<svg xmlns="http://www.w3.org/2000/svg" width="436.41" height="460.571" viewBox="0 0 436.41 460.571">
  <g id="Team_goals-pana" data-name="Team goals-pana" transform="translate(-38.28 -19.749)">
    <g id="freepik--background-complete--inject-167">
      <path id="Trazado_25849" data-name="Trazado 25849" d="M53.62,365.16s-6.24,2.52,1,15.76a182.28,182.28,0,0,0,12.11,19.75s1.29,3.08-1.32,3.63-8.4-.22-9.48,3,1.37,6.43,6.34,9.06,15.64,8.77,16.61,9.33,1.91,2,.2,2.64-14.66,2.35-13.49,8.44,16.21,11.14,17.85,11.72,2,1.26,1.93,2.15-4.52,1-8.18,1.68-7.8,2-6.83,5.47,10,10.54,31.49,12.09l10,.06,5.23-8.58c10-19.06,8.81-30.47,6.38-33.12s-5.77.13-8.25,2.9-4.93,6.43-5.75,6-1.17-1.08-.8-2.77,4-17.13-.5-21.35-12.84,5.88-14.31,7-2.16-.47-2.13-1.57.46-13.43.86-19-.89-9.36-4.33-10.18-5.73,4.54-7.58,6.46-3.78-.81-3.78-.81-2.93-7.61-10.36-20.71-13-9-13-9" fill="#ebebeb"/>
      <path id="Trazado_25850" data-name="Trazado 25850" d="M112.38,472.3c-5.42-9.64-14.76-26.94-22.85-41.75s-15.44-28.21-20.81-37.88l-6.37-11.44-1.73-3.11c-.19-.35-.34-.62-.44-.82A2.77,2.77,0,0,1,60,377l.17.27.47.8,1.78,3.08c1.54,2.68,3.75,6.57,6.45,11.4,5.42,9.64,12.79,23,20.89,37.83s17.41,32.13,22.77,41.8" fill="#e0e0e0"/>
      <path id="Trazado_25851" data-name="Trazado 25851" d="M63.94,408.72a4,4,0,0,1,.7.18c.45.13,1.09.34,1.88.6,1.57.53,3.73,1.32,6.09,2.24l6,2.36,1.83.71a3.369,3.369,0,0,1,.67.28,3.182,3.182,0,0,1-.71-.17c-.44-.13-1.08-.34-1.87-.61-1.57-.55-3.72-1.37-6.08-2.28l-6.06-2.32L64.6,409a2.751,2.751,0,0,1-.66-.28Z" fill="#e0e0e0"/>
      <path id="Trazado_25852" data-name="Trazado 25852" d="M81.82,414.44c-.08,0,1.36-4.55,3.21-10.09s3.41-10,3.49-10-1.35,4.55-3.2,10.09S81.91,414.46,81.82,414.44Z" fill="#e0e0e0"/>
      <path id="Trazado_25853" data-name="Trazado 25853" d="M93.23,437.74a3,3,0,0,1,.39-.63l1.14-1.65c1-1.4,2.29-3.33,3.67-5.51s2.57-4.21,3.41-5.68l1-1.74a4.318,4.318,0,0,1,.39-.62,3,3,0,0,1-.29.68c-.21.43-.52,1-.92,1.79-.79,1.5-2,3.54-3.34,5.73s-2.74,4.11-3.75,5.48c-.51.68-.92,1.22-1.22,1.59a3.629,3.629,0,0,1-.48.56Z" fill="#e0e0e0"/>
      <path id="Trazado_25854" data-name="Trazado 25854" d="M75.92,436.13a3.249,3.249,0,0,1,.68,0l1.85.1c1.57.1,3.73.26,6.11.45s4.54.38,6.1.53l1.85.2a3,3,0,0,1,.67.11,3.249,3.249,0,0,1-.68,0l-1.85-.1c-1.57-.1-3.73-.25-6.11-.44s-4.54-.38-6.1-.54l-1.85-.19A2.931,2.931,0,0,1,75.92,436.13Z" fill="#e0e0e0"/>
      <path id="Trazado_25855" data-name="Trazado 25855" d="M83.37,458a5,5,0,0,1,.88,0l2.37.12c2,.11,4.78.29,7.84.51s5.82.42,7.82.59l2.37.22a5.379,5.379,0,0,1,.87.12,4.85,4.85,0,0,1-.87,0l-2.38-.12c-2-.11-4.78-.29-7.84-.5s-5.82-.43-7.82-.6l-2.37-.22a4.258,4.258,0,0,1-.87-.12Z" fill="#e0e0e0"/>
      <path id="Trazado_25856" data-name="Trazado 25856" d="M105,459.35a5.5,5.5,0,0,1,.47-.8l1.38-2.15c1.16-1.81,2.74-4.32,4.42-7.14s3.13-5.41,4.17-7.3c.5-.9.92-1.65,1.23-2.23a6,6,0,0,1,.49-.8,5.438,5.438,0,0,1-.38.86c-.26.54-.65,1.32-1.14,2.28-1,1.91-2.42,4.52-4.1,7.35s-3.3,5.32-4.51,7.1c-.6.89-1.1,1.61-1.46,2.09a4.479,4.479,0,0,1-.57.74Z" fill="#e0e0e0"/>
      <path id="Trazado_25861" data-name="Trazado 25861" d="M79.34,180.44a25.1,25.1,0,0,1,6.21-2.7l1.28-6.15,10.38-.18,1.5,6.1A25.5,25.5,0,0,1,105,180l5.25-3.44,7.47,7.21-3.25,5.37a25.871,25.871,0,0,1,2.7,6.21l6.14,1.28L123.5,207l-6.09,1.5a25.89,25.89,0,0,1-2.48,6.3l3.44,5.25-7.22,7.47-5.36-3.25a26.221,26.221,0,0,1-6.21,2.7l-1.28,6.14-10.39.19-1.49-6.1a25.34,25.34,0,0,1-6.3-2.48l-5.25,3.44-7.47-7.22,3.25-5.36a25.43,25.43,0,0,1-2.7-6.21l-6.15-1.28-.18-10.39,6.1-1.49a25.34,25.34,0,0,1,2.48-6.3l-3.44-5.25L74,177.19l5.37,3.25Zm5.53,13.83a11.15,11.15,0,1,0,15.76-.27,11.15,11.15,0,0,0-15.76.27Z" fill="#e0e0e0"/>
      <path id="Trazado_25862" data-name="Trazado 25862" d="M60.9,240.3a15.109,15.109,0,0,1,3.72-1.62l.77-3.68,6.21-.11.9,3.65A15.549,15.549,0,0,1,76.27,240l3.14-2,4.48,4.31-2,3.22a14.85,14.85,0,0,1,1.61,3.71l3.68.77.11,6.22-3.65.89a15.16,15.16,0,0,1-1.48,3.77L84.27,264,80,268.48l-3.21-2A15.5,15.5,0,0,1,73,268.15l-.77,3.68-6.21.1-.9-3.65a15.161,15.161,0,0,1-3.77-1.48l-3.14,2.06-4.47-4.32,1.94-3.21a15.08,15.08,0,0,1-1.61-3.72l-3.68-.76-.11-6.22,3.65-.9a15.16,15.16,0,0,1,1.5-3.73l-2.06-3.14,4.32-4.47,3.21,2Zm3.32,8.28a6.67,6.67,0,1,0,9.43-.17,6.67,6.67,0,0,0-9.43.17Z" fill="#ebebeb"/>
      <path id="Trazado_25863" data-name="Trazado 25863" d="M64.22,248.58a4.879,4.879,0,0,1,1.24-1.09,6.58,6.58,0,0,1,4.35-1,6.75,6.75,0,0,1,3,1,6.9,6.9,0,0,1,2.39,2.69,6.58,6.58,0,0,1,.61,1.88,6.69,6.69,0,0,1,0,2A6.84,6.84,0,0,1,70.17,260a6.42,6.42,0,0,1-2,0,6.55,6.55,0,0,1-1.89-.54,6.76,6.76,0,0,1-3.93-5.22,6.6,6.6,0,0,1,.87-4.38,4.93,4.93,0,0,1,1-1.28,14.678,14.678,0,0,0-.92,1.35,6.71,6.71,0,0,0-.74,4.27,6.51,6.51,0,0,0,3.81,4.93,5.8,5.8,0,0,0,1.8.5,6,6,0,0,0,1.94,0,6.56,6.56,0,0,0,3.57-1.88,6.45,6.45,0,0,0,1.75-3.63,6,6,0,0,0,0-1.94,5.89,5.89,0,0,0-.57-1.78,6.48,6.48,0,0,0-5.06-3.63,6.62,6.62,0,0,0-4.24.88,14.448,14.448,0,0,0-1.34.93Z" fill="#ebebeb"/>
      <path id="Trazado_25864" data-name="Trazado 25864" d="M60.9,240.29a.919.919,0,0,1-.2-.1l-.62-.36-2.42-1.43h.08l-4.3,4.5v-.12l2.08,3.13v.12a15.261,15.261,0,0,0-1.46,3.74v.08h-.07l-3.65.9.1-.13c0,2,.08,4,.13,6.21l-.12-.14,3.68.76h.09v.09a15,15,0,0,0,1.6,3.67l.06.09-.06.09-1.94,3.21v-.21l4.48,4.31h-.22l3.14-2.06.09-.06.1.05a15.259,15.259,0,0,0,3.73,1.46h.1v.11l.9,3.65-.19-.14,6.22-.11-.18.15.76-3.68v-.12h.11a14.841,14.841,0,0,0,3.66-1.59h0l.1-.06.1.06,3.21,1.95h-.24l4.32-4.48v.24L82.05,261l-.06-.1.05-.1a14.79,14.79,0,0,0,1.47-3.72v-.11h.11L87.3,256l-.14.18c0-2.12-.07-4.2-.1-6.22l.14.17-3.68-.77h-.1v-.1a15.17,15.17,0,0,0-1.59-3.68v-.17l2-3.21v.2l-4.47-4.33h.18l-3.14,2h-.15a15.17,15.17,0,0,0-3.73-1.48h-.08v-.07c-.32-1.33-.61-2.52-.89-3.65l.12.08-6.22.09.08-.07c-.31,1.46-.57,2.67-.79,3.67h0a16.36,16.36,0,0,0-2.84,1.09l-.67.35a1,1,0,0,1-.23.11l.21-.14.66-.37a14.308,14.308,0,0,1,2.83-1.16h0c.2-1,.45-2.22.74-3.69v-.06h.07l6.21-.13h.09v.08l.91,3.65-.09-.09a15.439,15.439,0,0,1,3.81,1.48H76.2l3.13-2.07.1-.06.08.08L84,242.17l.09.09-.07.11-1.94,3.21v-.17a15.871,15.871,0,0,1,1.64,3.76l-.13-.12,3.68.76h.14V250q.06,3,.11,6.21v.15h-.14l-3.65.9.13-.13a15.11,15.11,0,0,1-1.5,3.81v-.19l2.06,3.14.08.13-.11.11-4.31,4.47-.11.11-.13-.08-3.21-1.95h.19a15.089,15.089,0,0,1-3.76,1.63l.14-.14c-.27,1.26-.53,2.51-.77,3.67v.15h-.15l-6.22.1h-.15v-.14c-.3-1.26-.61-2.51-.89-3.65l.14.13a15.441,15.441,0,0,1-3.82-1.5h.19L58.33,269l-.12.08-.11-.1-4.46-4.33-.1-.09.07-.12c.68-1.11,1.35-2.21,2-3.21v.17a15.11,15.11,0,0,1-1.62-3.76l.11.12L50.38,257h-.12v-.12c0-2.18-.07-4.26-.1-6.22v-.11h.11l3.65-.89-.09.09a15.69,15.69,0,0,1,1.5-3.79V246l-2.05-3.15v-.12l4.35-4.45h0L60,239.75l.61.38Z" fill="#ebebeb"/>
      <path id="Trazado_25865" data-name="Trazado 25865" d="M414.86,227.87l.12-16.41,15.83,3.83Z" fill="#f5f5f5"/>
      <rect id="Rect치ngulo_2795" data-name="Rect치ngulo 2795" width="9.25" height="37.41" transform="matrix(0.785, -0.619, 0.619, 0.785, 418.01, 222.769)" fill="#f5f5f5"/>
      <path id="Trazado_25866" data-name="Trazado 25866" d="M394.17,268.06l2.22-33.22,31.6,9.65Z" fill="#ebebeb"/>
      <rect id="Rect치ngulo_2796" data-name="Rect치ngulo 2796" width="18.78" height="75.93" transform="translate(401.17 258.097) rotate(-34.87)" fill="#ebebeb"/>
    </g>
    <g id="freepik--Floor--inject-167">
      <path id="Trazado_25867" data-name="Trazado 25867" d="M474.69,470.48c0,.14-97.7.26-218.19.26s-218.22-.12-218.22-.26,97.68-.26,218.22-.26S474.69,470.34,474.69,470.48Z" fill="#263238"/>
    </g>
    <g id="freepik--Plant--inject-167">
      <path id="Trazado_25868" data-name="Trazado 25868" d="M367.17,427.17a8.19,8.19,0,0,1,4.64,4.44,14.48,14.48,0,0,1,1.12,6.45c-.13,4.26-2.16,8.72-4.46,12.31-3.81-2.8-5.09-8.14-5.56-10.89-.75-4.34.52-12.65,4.26-12.31" fill="#455a64"/>
      <path id="Trazado_25869" data-name="Trazado 25869" d="M373.19,457a7,7,0,0,1,1.69-6.82,9.31,9.31,0,0,1,6.65-2.71,3.89,3.89,0,0,1,3.11,1.1,3,3,0,0,1,.3,3,6.08,6.08,0,0,1-2.05,2.4c-2.91,2.19-6.13,3.77-9.7,3" fill="#455a64"/>
      <path id="Trazado_25870" data-name="Trazado 25870" d="M369.73,470.3a5.25,5.25,0,0,1,0-.88c.06-.62.14-1.42.23-2.38a24.662,24.662,0,0,1,1.79-7.68,15.06,15.06,0,0,1,4.88-6.16,10.871,10.871,0,0,1,2.11-1.16c.26-.11.48-.16.62-.21l.22-.05a16.714,16.714,0,0,0-2.82,1.59,15.58,15.58,0,0,0-4.73,6.11,26.391,26.391,0,0,0-1.85,7.59c-.13,1-.24,1.81-.33,2.37a4.937,4.937,0,0,1-.12.86Z" fill="#263238"/>
      <path id="Trazado_25871" data-name="Trazado 25871" d="M366.76,433.59a1.341,1.341,0,0,1,.07.37c0,.28.1.64.16,1.08.13.94.3,2.3.5,4,.39,3.37.88,8,1.29,13.19s.68,9.85.83,13.24c.07,1.69.12,3.07.14,4v1.48a2.277,2.277,0,0,1,0-.38,5.841,5.841,0,0,0-.08-1.09c-.06-1-.14-2.35-.24-4-.2-3.39-.51-8.06-.92-13.22s-.86-9.82-1.2-13.2c-.16-1.66-.3-3-.4-4l-.1-1.09a1.564,1.564,0,0,1-.05-.38Z" fill="#263238"/>
      <path id="Trazado_25872" data-name="Trazado 25872" d="M367.26,460.07a16.38,16.38,0,0,0-9.91-11.2c-1.24-.46-2.82-.7-3.72.26s-.55,2.54,0,3.72a14,14,0,0,0,13.55,7.57" fill="#455a64"/>
      <path id="Trazado_25873" data-name="Trazado 25873" d="M358.26,452.83a3.911,3.911,0,0,1,.78.26,8.111,8.111,0,0,1,.89.38,12.611,12.611,0,0,1,1.14.59,14.749,14.749,0,0,1,1.32.83,14.583,14.583,0,0,1,1.42,1.09,16.84,16.84,0,0,1,4.75,6.6,16,16,0,0,1,.56,1.7,13.5,13.5,0,0,1,.35,1.52,11.438,11.438,0,0,1,.16,1.28,7.123,7.123,0,0,1,.06,1,5.314,5.314,0,0,1,0,.83c-.07,0-.05-1.18-.42-3a12.951,12.951,0,0,0-.37-1.49,17.146,17.146,0,0,0-5.25-8.16c-.48-.4-.93-.78-1.39-1.09a14.881,14.881,0,0,0-1.28-.85C359.34,453.28,358.23,452.89,358.26,452.83Z" fill="#263238"/>
    </g>
    <g id="freepik--speech-bubble--inject-167" transform="translate(-35.957 -42)">
      <path id="Trazado_25874" data-name="Trazado 25874" d="M377.05,188.15l11.69-6.63a31.33,31.33,0,1,0-8.34-7.5h0Z" fill="#fff"/>
      <path id="Trazado_25875" data-name="Trazado 25875" d="M377.05,188.15c.21-.89,1.19-5.24,3.21-14.17v-.2l.16.13h0l-.18.18a31.21,31.21,0,0,1-6.35-15,27.89,27.89,0,0,1-.26-5c.05-.86.07-1.73.15-2.6s.26-1.76.39-2.65a31.69,31.69,0,0,1,12.57-19.59,31.29,31.29,0,0,1,12.1-5.3,32.12,32.12,0,0,1,14,.37,31,31,0,0,1,12.89,6.72,31.5,31.5,0,0,1,8.62,12.08,31.891,31.891,0,0,1,2.16,14,31.06,31.06,0,0,1-3.81,12.89A31.85,31.85,0,0,1,414.4,185a34,34,0,0,1-10.19,1.36,31.16,31.16,0,0,1-15.53-4.69h.12l-11.75,6.52,11.63-6.74h.13A31.23,31.23,0,0,0,404.22,186a33.81,33.81,0,0,0,10.06-1.39,31.49,31.49,0,0,0,18-14.71,30.48,30.48,0,0,0,3.73-12.7,31.45,31.45,0,0,0-2.14-13.82,31.05,31.05,0,0,0-8.48-11.88,30.52,30.52,0,0,0-12.68-6.61,31.38,31.38,0,0,0-13.72-.37,30.74,30.74,0,0,0-11.92,5.19A31.27,31.27,0,0,0,374.64,149c-.14.88-.27,1.75-.41,2.61a24.757,24.757,0,0,0-.15,2.57,28.253,28.253,0,0,0,.23,4.9,31.17,31.17,0,0,0,6.19,14.91l.62.8-.8-.62h0l.2-.07Z" fill="#263238"/>
      <path id="Trazado_25876" data-name="Trazado 25876" d="M400,152h1.83l4-5.56V142.8s2.83-.18,2.49,4.6,0,3.57,0,3.57,6,0,6.5.54.53,6.34.59,9.58a3.49,3.49,0,0,1-2.48,3.52,2.351,2.351,0,0,1-.64.09c-1.5,0-9.15-1.22-9.15-1.22H400Z" fill="#344d84"/>
      <path id="Trazado_25877" data-name="Trazado 25877" d="M394.78,151.01l1.13,12.51h3.13V151.26Z" fill="#344d84"/>
    </g>
    <g id="freepik--Characters--inject-167">
      <path id="Trazado_25878" data-name="Trazado 25878" d="M148.25,207.16l-15,5.5-7.91,16.66c-.37,3.44-9,38.17-9,38.17l-8.65,30.91c16.56,7.57,38.52,18.37,60.51,17.5l2.8-26.52,15.08-57.63-11.51-22.86-3.94-.53Z" fill="#344d84"/>
      <path id="Trazado_25879" data-name="Trazado 25879" d="M78.48,433.13,67.17,447.87s11.2,16.44,9.37,19.37L47.17,446.36l16.66-23.7Z" fill="#455a64"/>
      <g id="Grupo_919" data-name="Grupo 919" opacity="0.6">
        <path id="Trazado_25880" data-name="Trazado 25880" d="M59,440.14a1.48,1.48,0,0,0-1.81.78,1.44,1.44,0,0,0,.76,1.8,1.55,1.55,0,0,0,1.9-.84,1.47,1.47,0,0,0-1-1.78" fill="#fff"/>
      </g>
      <g id="Grupo_920" data-name="Grupo 920" opacity="0.6">
        <path id="Trazado_25881" data-name="Trazado 25881" d="M47.17,446.36,48.94,444l27.5,20.9s.91,1.5.1,2.31Z" fill="#fff"/>
      </g>
      <path id="Trazado_25882" data-name="Trazado 25882" d="M67.76,448.06c-.11.14-.87-.3-1.91-.34s-1.83.29-1.93.14.71-.83,2-.75S67.88,448,67.76,448.06Z" fill="#263238"/>
      <path id="Trazado_25883" data-name="Trazado 25883" d="M69.93,451.53c-.06.16-.86,0-1.78.22s-1.51.8-1.65.7.35-1,1.49-1.29S70,451.39,69.93,451.53Z" fill="#263238"/>
      <path id="Trazado_25884" data-name="Trazado 25884" d="M69.06,456.46c-.15-.06.16-.92,1.09-1.44s1.82-.36,1.79-.2-.74.29-1.49.73S69.21,456.55,69.06,456.46Z" fill="#263238"/>
      <path id="Trazado_25885" data-name="Trazado 25885" d="M70,444.42c-.15.08-.67-.58-1.52-1.1s-1.66-.72-1.65-.89,1-.26,2,.37S70.11,444.35,70,444.42Z" fill="#263238"/>
      <g id="Grupo_921" data-name="Grupo 921" opacity="0.3">
        <path id="Trazado_25886" data-name="Trazado 25886" d="M73.34,440.26l-2.01,2.63-14.35-10.4,1.71-2.44Z"/>
      </g>
      <path id="Trazado_25887" data-name="Trazado 25887" d="M72.19,441.4a3.718,3.718,0,0,1-1.47-1,8,8,0,0,1-1.2-1.57,8.568,8.568,0,0,1-.53-1,2.461,2.461,0,0,1-.2-.66.77.77,0,0,1,.48-.81,1,1,0,0,1,.86.12,2.069,2.069,0,0,1,.5.47A6.3,6.3,0,0,1,72,439.66a3,3,0,0,1,0,1.81c-.1,0-.11-.68-.44-1.69a6.69,6.69,0,0,0-1.44-2.54c-.25-.3-.52-.49-.7-.41s-.08.05-.08.19a1.62,1.62,0,0,0,.15.48,8.393,8.393,0,0,0,.46,1,10.54,10.54,0,0,0,1,1.56C71.72,440.89,72.24,441.32,72.19,441.4Z" fill="#263238"/>
      <path id="Trazado_25888" data-name="Trazado 25888" d="M71.85,441.47a3,3,0,0,1,.62-1.69,5.859,5.859,0,0,1,1.35-1.47,6,6,0,0,1,1-.63,1.5,1.5,0,0,1,1.47-.08.84.84,0,0,1,.32.85,2.6,2.6,0,0,1-.23.65A4.18,4.18,0,0,1,74,441.16a2.35,2.35,0,0,1-1.81,0,16.581,16.581,0,0,0,1.66-.45,4.36,4.36,0,0,0,1.45-1.05,4.12,4.12,0,0,0,.58-.87c.17-.35.23-.68.1-.73a1,1,0,0,0-.86.11A6.35,6.35,0,0,0,72.83,440C72.17,440.86,72,441.51,71.85,441.47Z" fill="#263238"/>
      <path id="Trazado_25889" data-name="Trazado 25889" d="M167.83,443l-6.51,16.38s18.7,6.77,18.94,10.21l-36,.29,5.62-26.79Z" fill="#455a64"/>
      <g id="Grupo_922" data-name="Grupo 922" opacity="0.6">
        <path id="Trazado_25890" data-name="Trazado 25890" d="M150.16,457.94a1.49,1.49,0,0,0-1,1.69,1.43,1.43,0,0,0,1.67,1,1.54,1.54,0,0,0,1.05-1.79A1.46,1.46,0,0,0,150,458" fill="#fff"/>
      </g>
      <g id="Grupo_923" data-name="Grupo 923" opacity="0.6">
        <path id="Trazado_25891" data-name="Trazado 25891" d="M144.21,469.91l.61-2.91,34,.8s1.61.69,1.44,1.82Z" fill="#fff"/>
      </g>
      <path id="Trazado_25892" data-name="Trazado 25892" d="M161.9,459.23c0,.17-.89.26-1.75.83s-1.31,1.32-1.48,1.25.1-1.09,1.15-1.76S161.93,459.06,161.9,459.23Z" fill="#263238"/>
      <path id="Trazado_25893" data-name="Trazado 25893" d="M165.69,460.76c0,.17-.72.48-1.31,1.22s-.76,1.54-.93,1.54-.3-1,.46-1.92S165.69,460.59,165.69,460.76Z" fill="#263238"/>
      <path id="Trazado_25894" data-name="Trazado 25894" d="M167.87,465.27c-.16,0-.41-.84,0-1.81s1.26-1.36,1.34-1.21-.43.66-.78,1.46S168.05,465.25,167.87,465.27Z" fill="#263238"/>
      <path id="Trazado_25895" data-name="Trazado 25895" d="M163.29,455.88c-.07.16-.88-.07-1.88,0s-1.76.4-1.86.25.65-.79,1.82-.86S163.37,455.74,163.29,455.88Z" fill="#263238"/>
      <path id="Trazado_25896" data-name="Trazado 25896" d="M163.63,453.73a3.45,3.45,0,0,1-1.8,0,8.36,8.36,0,0,1-1.89-.56,7.564,7.564,0,0,1-1.05-.55,2.09,2.09,0,0,1-.54-.42.76.76,0,0,1-.09-.93,1,1,0,0,1,.77-.41,2.221,2.221,0,0,1,.67.09,6.241,6.241,0,0,1,1.13.37,6.431,6.431,0,0,1,1.67,1.08c.85.77,1.14,1.43,1.08,1.46s-.49-.49-1.35-1.12a7.182,7.182,0,0,0-1.62-.89,6.316,6.316,0,0,0-1-.32c-.38-.09-.7-.09-.8.08s0,.09,0,.2a2.059,2.059,0,0,0,.4.31,10.307,10.307,0,0,0,1,.53,10,10,0,0,0,1.75.66,10.879,10.879,0,0,1,1.67.42Z" fill="#263238"/>
      <path id="Trazado_25897" data-name="Trazado 25897" d="M163.59,453.73a2.85,2.85,0,0,1-.49-1.74,5.78,5.78,0,0,1,.23-2,5.931,5.931,0,0,1,.45-1.1,1.48,1.48,0,0,1,1.14-.92.83.83,0,0,1,.76.5,2.3,2.3,0,0,1,.19.66,3.791,3.791,0,0,1,0,1.21,4,4,0,0,1-.75,1.87c-.7.94-1.43,1.16-1.45,1.1a8.045,8.045,0,0,0,1.09-1.33,4.16,4.16,0,0,0,.55-1.7,3.39,3.39,0,0,0,0-1.05c-.06-.38-.2-.69-.35-.65a1.244,1.244,0,0,0-.62.6,5,5,0,0,0-.44,1,6.49,6.49,0,0,0-.34,1.8C163.49,453,163.68,453.7,163.59,453.73Z" fill="#263238"/>
      <path id="Trazado_25898" data-name="Trazado 25898" d="M210,147.67l-5.54,37.67-25.39,24.34,9.41,16.21L217.29,199a11.73,11.73,0,0,0,4.32-6.67V153.36l-.19-12.68Z" fill="#ffd6bd"/>
      <path id="Trazado_25899" data-name="Trazado 25899" d="M108.36,295.47C107.62,297,94,367.77,94,367.77l-38.11,62L75.7,444.2l47.09-61.37,25.74-78Z" fill="#263238"/>
      <path id="Trazado_25900" data-name="Trazado 25900" d="M160.11,302.83c1.11.74,30.27,61.58,29.9,66s-22.35,85.65-22.35,85.65l-22.39-4.12,13.87-79.23-26.31-36.94,8.59-33.61Z" fill="#263238"/>
      <path id="Trazado_25901" data-name="Trazado 25901" d="M190.65,196.25l-14.45,12-2.7.43,10.88,24.03,20.06-16.19Z" fill="#344d84"/>
      <path id="Trazado_25902" data-name="Trazado 25902" d="M148.25,207.16l-15,5.5-7.91,16.66c-.37,3.44-9,38.17-9,38.17l-8.65,30.91c16.56,7.57,38.52,18.37,60.51,17.5l2.8-26.52,15.22-58.15-11.65-22.34-3.94-.53Z" fill="#344d84"/>
      <path id="Trazado_25903" data-name="Trazado 25903" d="M170.27,211.7c.36-2.78.67-5.09.72-5.37,0,0,9.5.35,11.39-8.85.92-4.45,2.06-13.75,3-22.19a17.5,17.5,0,0,0-14.07-19.09l-.89-.17c-9.7-1.29-16.22,6.22-17.25,15.95l-4.66,35.53s9,8,14.23,10.61C169.51,221.45,170.27,211.7,170.27,211.7Z" fill="#ffd6bd"/>
      <path id="Trazado_25904" data-name="Trazado 25904" d="M171,206.2a21.9,21.9,0,0,1-11.36-5.74s1.56,7.18,10.92,8.13Z" fill="#ffb394"/>
      <path id="Trazado_25905" data-name="Trazado 25905" d="M183.11,179.62c-.19.16-1.44-.38-3.17-.26s-3,.81-3.18.68.1-.34.65-.66a5.87,5.87,0,0,1,2.53-.72,5.42,5.42,0,0,1,2.53.39C183,179.3,183.21,179.55,183.11,179.62Z" fill="#263238"/>
      <path id="Trazado_25906" data-name="Trazado 25906" d="M168.61,178.4c-.24.06-1.12-1-2.72-1.62s-3-.6-3.13-.81.23-.25.86-.29a6.12,6.12,0,0,1,2.58.48,5.58,5.58,0,0,1,2.09,1.46C168.67,178.08,168.73,178.38,168.61,178.4Z" fill="#263238"/>
      <path id="Trazado_25907" data-name="Trazado 25907" d="M167.74,180.79a1,1,0,1,1-.2-.741A1,1,0,0,1,167.74,180.79Z" fill="#263238"/>
      <path id="Trazado_25908" data-name="Trazado 25908" d="M181.71,183.29a1,1,0,1,1-.2-.741A1,1,0,0,1,181.71,183.29Z" fill="#263238"/>
      <path id="Trazado_25909" data-name="Trazado 25909" d="M171.66,188.51a9.28,9.28,0,0,1,2.38,0c.37,0,.72,0,.83-.21a1.87,1.87,0,0,0,0-1.12c-.17-.94-.35-1.93-.54-3-.73-4.21-1.18-7.64-1-7.67s.9,3.36,1.62,7.57c.18,1,.34,2,.49,3a2.12,2.12,0,0,1-.08,1.46.94.94,0,0,1-.7.41,2.48,2.48,0,0,1-.63,0,9.35,9.35,0,0,1-2.37-.44Z" fill="#263238"/>
      <path id="Trazado_25910" data-name="Trazado 25910" d="M169.07,171.29c-.19.32-1.4-.08-2.9-.18s-2.77.08-2.91-.27c0-.17.22-.46.76-.71a4.72,4.72,0,0,1,2.26-.35,4.79,4.79,0,0,1,2.17.69C168.94,170.8,169.16,171.13,169.07,171.29Z" fill="#263238"/>
      <path id="Trazado_25911" data-name="Trazado 25911" d="M183.51,175.92c-.19.27-1.37-.19-2.84-.41s-2.71-.18-2.83-.49c-.05-.15.22-.37.76-.53a5.2,5.2,0,0,1,2.22-.11,5.52,5.52,0,0,1,2.1.79C183.4,175.5,183.6,175.8,183.51,175.92Z" fill="#263238"/>
      <path id="Trazado_25912" data-name="Trazado 25912" d="M152.61,179c-.15-.1-6-3.1-7,3.24s5.56,6.05,5.6,5.87S152.61,179,152.61,179Z" fill="#ffd6bd"/>
      <path id="Trazado_25913" data-name="Trazado 25913" d="M149.67,185.36a2.759,2.759,0,0,1-.33.12,1.14,1.14,0,0,1-.83-.12,2.78,2.78,0,0,1-.87-2.66,3.69,3.69,0,0,1,.57-1.53,1.27,1.27,0,0,1,1-.71.56.56,0,0,1,.61.41.575.575,0,0,1,0,.32c0,.01.16-.08.15-.35a.76.76,0,0,0-.19-.44.81.81,0,0,0-.58-.26,1.58,1.58,0,0,0-1.31.8,3.73,3.73,0,0,0-.67,1.71,2.91,2.91,0,0,0,1.17,3,1.2,1.2,0,0,0,1,0C149.63,185.51,149.69,185.38,149.67,185.36Z" fill="#ffb394"/>
      <path id="Trazado_25914" data-name="Trazado 25914" d="M169.63,192.74c.09-.15-1.12-.67-1.85-2a6.94,6.94,0,0,1-.69-1.77c-.13-.48-.24-.79-.31-.77s-.09.32,0,.84a4.6,4.6,0,0,0,.6,2,3.85,3.85,0,0,0,1.48,1.44C169.28,192.74,169.61,192.79,169.63,192.74Z" fill="#263238"/>
      <path id="Trazado_25915" data-name="Trazado 25915" d="M198.7,168.42a1.5,1.5,0,0,0-.6-1,4.7,4.7,0,0,0-2.33-.66,13.52,13.52,0,0,1-6.73-2.95,31.642,31.642,0,0,0-2.79-4.33c-2.47-3.24-4.55-5.49-6.83-6.74A21.67,21.67,0,0,0,168,150.5c-3.33.46-6.54,2.74-7.39,6-1.63-1.75-4.35-2.06-6.66-1.43h-.06c-2.56.58-4.26,3-5.29,5.44s-1.65,5.06-3.24,7.15c-.34.44-.73,1-.55,1.48a1,1,0,0,0,1,.6,2.91,2.91,0,0,0,1.21-.38c-.35.63-.71,1.25-1.06,1.87a5.87,5.87,0,0,0,2.7.14,57.639,57.639,0,0,0,1,6.82,3.86,3.86,0,0,1,2.53,1c.77.88,1,2.38,2.48,2,.76-.2,1.61-1.65,1.94-2.36A36.58,36.58,0,0,0,160,163.59a11.57,11.57,0,0,1,3.91-2.17l-.13.08c2.71-.59,5.75-1.13,8.07.38,1.8,1.17,2.69,3.29,3.93,5a14.72,14.72,0,0,0,9.82,6c-.17,2.63-.83,6.3-1,8.93l2.7-3.93h0c.21-.29.4-.58.58-.87l.06-.09h0a11.394,11.394,0,0,1,.92-1.41h0a1.65,1.65,0,0,0,2.65-1.9,3.77,3.77,0,0,0-.7-.89,2.62,2.62,0,0,0,2.39.93,2,2,0,0,0,1.67-1.84,1.74,1.74,0,0,0-.86-1.5,5.91,5.91,0,0,0,3.4-.34A1.465,1.465,0,0,0,198.7,168.42Z" fill="#263238"/>
      <path id="Trazado_25916" data-name="Trazado 25916" d="M163.41,157.91a8.42,8.42,0,0,0-1,.75,6.67,6.67,0,0,0-1.79,2.91,11.86,11.86,0,0,0-.52,2.34c-.11.85-.15,1.78-.19,2.75a26.145,26.145,0,0,1-.3,3.06,10.458,10.458,0,0,1-.4,1.58,3.3,3.3,0,0,1-.84,1.48,1.39,1.39,0,0,1-1.36.29,2.1,2.1,0,0,1-1.1-.81,4.85,4.85,0,0,1-.62-2.47l.19.05a7.73,7.73,0,0,1-1.36,1.81,2.77,2.77,0,0,1-1.92.77,1.79,1.79,0,0,1-.94-.28,1.61,1.61,0,0,1-.58-.72,1.78,1.78,0,0,1-.1-.85,1.14,1.14,0,0,1,.39-.68l.09.1a6,6,0,0,1-2.18,1.26,5.812,5.812,0,0,1-.64.16.67.67,0,0,1-.23,0l.22-.06a2.534,2.534,0,0,0,.63-.2,6.26,6.26,0,0,0,2.11-1.29l.09.1a1.19,1.19,0,0,0-.23,1.37,1.41,1.41,0,0,0,.52.64,1.62,1.62,0,0,0,.85.24,2.59,2.59,0,0,0,1.79-.73,7.84,7.84,0,0,0,1.32-1.78l.17-.28v.33a4.77,4.77,0,0,0,.58,2.36,1.94,1.94,0,0,0,1,.72,1.22,1.22,0,0,0,1.16-.24,3.24,3.24,0,0,0,.78-1.39,10.66,10.66,0,0,0,.39-1.55,23.346,23.346,0,0,0,.3-3c.06-1,.11-1.9.22-2.77a12,12,0,0,1,.55-2.36,6.7,6.7,0,0,1,1.88-2.93A4,4,0,0,1,163.41,157.91Z" fill="#455a64"/>
      <path id="Trazado_25917" data-name="Trazado 25917" d="M191.09,170.37h-.08l-.25.14a2.47,2.47,0,0,1-.43.21,5.471,5.471,0,0,1-.6.23,8.23,8.23,0,0,1-4.06.24,10.62,10.62,0,0,1-5.36-2.73,18.34,18.34,0,0,1-4.16-6.13c-.55-1.2-1-2.42-1.44-3.56a12.77,12.77,0,0,0-1.74-3.08,6.46,6.46,0,0,0-2.49-1.94,4.4,4.4,0,0,0-1.39-.33,4.75,4.75,0,0,0-1.32.1,5.46,5.46,0,0,0-2.08.93,5.37,5.37,0,0,0-1.21,1.24,6.14,6.14,0,0,0-.64,1.34v-.1l.07-.28a5.339,5.339,0,0,1,.48-1,5.47,5.47,0,0,1,1.21-1.29,5.2,5.2,0,0,1,3.48-1.1,4.69,4.69,0,0,1,1.45.33,6.5,6.5,0,0,1,2.57,2,12.521,12.521,0,0,1,1.79,3.12c.48,1.14.9,2.36,1.44,3.55a18.26,18.26,0,0,0,4.09,6.07,10.5,10.5,0,0,0,5.26,2.73,8.44,8.44,0,0,0,4-.17A11.587,11.587,0,0,0,191.09,170.37Z" fill="#455a64"/>
      <path id="Trazado_25918" data-name="Trazado 25918" d="M192.42,166.38a2.141,2.141,0,0,1-.36.2,7.071,7.071,0,0,1-1,.38,10.149,10.149,0,0,1-1.63.33,12.333,12.333,0,0,1-2,0,11.341,11.341,0,0,1-2-.38,9.872,9.872,0,0,1-1.55-.6,6.46,6.46,0,0,1-1-.56,1.34,1.34,0,0,1-.32-.25s.5.29,1.35.67a11.5,11.5,0,0,0,1.53.55,13.471,13.471,0,0,0,2,.35,12,12,0,0,0,2,0,11.57,11.57,0,0,0,1.61-.28C191.88,166.58,192.41,166.35,192.42,166.38Z" fill="#455a64"/>
      <path id="Trazado_25919" data-name="Trazado 25919" d="M129.28,237.52s12.55,18.17,21.56,18H154l1.5-2.7s20,4,24.44,2.42l-24.74-9.18-4.76,2.77Z" opacity="0.3"/>
      <path id="Trazado_25920" data-name="Trazado 25920" d="M144.73,245.84s45,13.11,50.3,11.89,38.17-27.56,38.17-27.56l-7.42-8.93L191.83,240l-40.74-12.93Z" fill="#ffd6bd"/>
      <path id="Trazado_25921" data-name="Trazado 25921" d="M133.43,212.59s-7.52,1.66-8.63,14c-1.32,14.75,27.81,26.29,27.81,26.29L167,228.82Z" fill="#344d84"/>
      <path id="Trazado_25922" data-name="Trazado 25922" d="M149,222.21a1.25,1.25,0,0,1,.33.12l.91.41,3.43,1.61,12.21,5.86.22.1-.12.21c-2.84,4.92-6.2,10.74-9.8,17L153,253l-.11.18-.2-.07a62.928,62.928,0,0,1-11.54-5.2,43.68,43.68,0,0,1-8.08-6.14,45.49,45.49,0,0,1-6-6.92,2.839,2.839,0,0,1,.43.46l1.17,1.38a63.828,63.828,0,0,0,4.65,4.84,45.931,45.931,0,0,0,8.08,6,64.64,64.64,0,0,0,11.48,5.1l-.3.12,3.17-5.49c3.62-6.2,7-12,9.86-16.92l.1.31-12.13-6-3.38-1.72-.88-.47Z" fill="#263238"/>
      <path id="Trazado_25923" data-name="Trazado 25923" d="M184,225.89c-.15.05-1.39-3-3.21-6.57s-3.51-6.39-3.38-6.47a7.671,7.671,0,0,1,1.28,1.73,51.431,51.431,0,0,1,4.67,9.25A8.391,8.391,0,0,1,184,225.89Z" fill="#263238"/>
      <path id="Trazado_25924" data-name="Trazado 25924" d="M75.68,444.21a1.5,1.5,0,0,1,.2-.31l.63-.87c.59-.77,1.41-1.88,2.47-3.3l9.16-12.07,30.39-39.72c1.38-1.8,2.74-3.58,4-5.25v.07l14.36-43.24,4.34-12.88c.51-1.49.91-2.65,1.19-3.48l.33-.89a1.169,1.169,0,0,1,.12-.3,1.458,1.458,0,0,1-.08.31c-.07.23-.16.53-.27.92-.26.82-.63,2-1.11,3.5-1,3.07-2.42,7.47-4.19,12.94L123,382.92V383h0l-4,5.26L88.5,427.88l-9.3,12-2.6,3.22-.68.83A2,2,0,0,1,75.68,444.21Z" fill="#455a64"/>
      <path id="Trazado_25925" data-name="Trazado 25925" d="M167.59,367a21.761,21.761,0,0,1-4.41,1.83,21.342,21.342,0,0,1-4.58,1.34,22.463,22.463,0,0,1,4.4-1.87A22.817,22.817,0,0,1,167.59,367Z" fill="#455a64"/>
      <path id="Trazado_25926" data-name="Trazado 25926" d="M167.31,373.32a15.661,15.661,0,0,1-3.9-.83,15.221,15.221,0,0,1-3.75-1.34,15.63,15.63,0,0,1,3.89.83A15.611,15.611,0,0,1,167.31,373.32Z" fill="#455a64"/>
      <path id="Trazado_25927" data-name="Trazado 25927" d="M168,285a7.061,7.061,0,0,1-1.15.79c-.75.5-1.87,1.15-3.29,1.9A61,61,0,0,1,152,292.38a60.311,60.311,0,0,1-12.34,2.16c-1.6.11-2.9.14-3.8.12a7.6,7.6,0,0,1-1.39-.07,6.779,6.779,0,0,1,1.39-.13c.89,0,2.18-.13,3.77-.28a71,71,0,0,0,12.23-2.3,69.576,69.576,0,0,0,11.6-4.49c1.44-.7,2.58-1.3,3.36-1.74A6.768,6.768,0,0,1,168,285Z" fill="#263238"/>
      <path id="Trazado_25928" data-name="Trazado 25928" d="M316.31,443.61,323,459.93s-18.63,7-18.84,10.4l36-.09-5.9-26.72Z" fill="#455a64"/>
      <g id="Grupo_924" data-name="Grupo 924" opacity="0.6">
        <path id="Trazado_25929" data-name="Trazado 25929" d="M334.14,458.34a1.47,1.47,0,0,1,1,1.68,1.42,1.42,0,0,1-1.65,1,1.56,1.56,0,0,1-1.07-1.79,1.46,1.46,0,0,1,1.83-.87" fill="#fff"/>
      </g>
      <g id="Grupo_925" data-name="Grupo 925" opacity="0.6">
        <path id="Trazado_25930" data-name="Trazado 25930" d="M340.21,470.25l-.64-2.91-34,1.16s-1.6.7-1.42,1.83Z" fill="#fff"/>
      </g>
      <path id="Trazado_25931" data-name="Trazado 25931" d="M322.41,459.75c0,.17.89.25,1.76.82s1.33,1.3,1.49,1.23-.1-1.09-1.17-1.75S322.37,459.59,322.41,459.75Z" fill="#263238"/>
      <path id="Trazado_25932" data-name="Trazado 25932" d="M318.64,461.32c0,.17.72.47,1.32,1.21s.77,1.53,1,1.52.28-1-.48-1.91S318.64,461.15,318.64,461.32Z" fill="#263238"/>
      <path id="Trazado_25933" data-name="Trazado 25933" d="M316.5,465.85c.16,0,.4-.84-.05-1.8s-1.28-1.35-1.35-1.2.43.66.79,1.46S316.33,465.83,316.5,465.85Z" fill="#263238"/>
      <path id="Trazado_25934" data-name="Trazado 25934" d="M321,456.42c.07.16.88-.08,1.87,0s1.77.38,1.87.23-.66-.78-1.83-.84S320.9,456.28,321,456.42Z" fill="#263238"/>
      <path id="Trazado_25935" data-name="Trazado 25935" d="M320.62,454.27a3.37,3.37,0,0,0,1.8,0,7.87,7.87,0,0,0,1.89-.58,9.542,9.542,0,0,0,1-.55,2.411,2.411,0,0,0,.54-.43.76.76,0,0,0,.08-.94,1,1,0,0,0-.77-.4,2.641,2.641,0,0,0-.68.1,6.469,6.469,0,0,0-2.78,1.48c-.84.78-1.12,1.44-1.06,1.47s.48-.49,1.33-1.13a7.76,7.76,0,0,1,1.61-.92,7.465,7.465,0,0,1,1-.32c.38-.1.7-.1.8.07s0,.09,0,.2a1.79,1.79,0,0,1-.4.31,10.5,10.5,0,0,1-.95.55,10,10,0,0,1-1.74.67,11.514,11.514,0,0,0-1.67.42Z" fill="#263238"/>
      <path id="Trazado_25936" data-name="Trazado 25936" d="M320.67,454.27a2.91,2.91,0,0,0,.47-1.75,5.779,5.779,0,0,0-.25-2,6.855,6.855,0,0,0-.47-1.1,1.51,1.51,0,0,0-1.15-.91.84.84,0,0,0-.75.51,2.67,2.67,0,0,0-.19.66,4.24,4.24,0,0,0,.78,3.08c.71.93,1.44,1.14,1.46,1.08a7.425,7.425,0,0,1-1.1-1.32,4.26,4.26,0,0,1-.58-1.7,3.672,3.672,0,0,1,0-1c.05-.38.19-.69.34-.65a1.267,1.267,0,0,1,.63.59,6,6,0,0,1,.45,1,6.25,6.25,0,0,1,.35,1.8C320.76,453.58,320.57,454.24,320.67,454.27Z" fill="#263238"/>
      <path id="Trazado_25937" data-name="Trazado 25937" d="M339.9,308.31c-1,.52-38,52.3-48.69,66.55a10.86,10.86,0,0,0-2.06,9.14c4.73,18.4,24.14,74.95,24.14,74.95l26-5.4L323,386l40.34-43.27-4.56-34.39Z" fill="#263238"/>
      <path id="Trazado_25938" data-name="Trazado 25938" d="M322.6,387a13.91,13.91,0,0,1-3.37-1.64,13.489,13.489,0,0,1-3.11-2.09,13.91,13.91,0,0,1,3.37,1.64A13.489,13.489,0,0,1,322.6,387Z" fill="#455a64"/>
      <path id="Trazado_25939" data-name="Trazado 25939" d="M232.68,187.67c.17.1,1.68.85,3.1,1.55a9.38,9.38,0,0,1,3.94,3.7c1.07,1.85,2.38,4.09,2.49,4.18l5.35,4.15-7.28,10-2-1.62s-7.26-.38-10-1.71-5.27-3.49-4.95-4.44l.42-1.25a4.54,4.54,0,0,1-.7-3.26s-1.66-1.92-1.36-3.28a3.23,3.23,0,0,1,2.56-2.51s-.81-2.23,0-3.43a4.44,4.44,0,0,1,2.45-1.54l6.81,2.94Z" fill="#c78976"/>
      <path id="Trazado_25940" data-name="Trazado 25940" d="M417.77,446.27l11.89,14.27s-10.51,16.88-8.57,19.73l28.5-22.06-17.62-23Z" fill="#455a64"/>
      <g id="Grupo_926" data-name="Grupo 926" opacity="0.6">
        <path id="Trazado_25941" data-name="Trazado 25941" d="M437.52,452.48a1.46,1.46,0,0,1,1.83.71,1.42,1.42,0,0,1-.68,1.82,1.55,1.55,0,0,1-1.94-.76,1.47,1.47,0,0,1,.92-1.82" fill="#fff"/>
      </g>
      <g id="Grupo_927" data-name="Grupo 927" opacity="0.6">
        <path id="Trazado_25942" data-name="Trazado 25942" d="M449.59,458.21,447.72,456l-26.63,22s-.84,1.54,0,2.32Z" fill="#fff"/>
      </g>
      <path id="Trazado_25943" data-name="Trazado 25943" d="M429.09,460.75c.11.14.85-.34,1.88-.42s1.85.22,1.94.06-.75-.79-2-.67S429,460.65,429.09,460.75Z" fill="#263238"/>
      <path id="Trazado_25944" data-name="Trazado 25944" d="M427.05,464.3c.08.16.86-.07,1.79.15s1.55.74,1.68.63-.39-1-1.55-1.22S427,464.17,427.05,464.3Z" fill="#263238"/>
      <path id="Trazado_25945" data-name="Trazado 25945" d="M428.13,469.19c.14-.06-.2-.91-1.15-1.39s-1.83-.29-1.8-.13.75.26,1.52.67S428,469.29,428.13,469.19Z" fill="#263238"/>
      <path id="Trazado_25946" data-name="Trazado 25946" d="M426.74,457.2c.15.08.64-.61,1.47-1.16s1.63-.78,1.61-1-1-.22-2,.45S426.58,457.14,426.74,457.2Z" fill="#263238"/>
      <g id="Grupo_928" data-name="Grupo 928" opacity="0.3">
        <path id="Trazado_25947" data-name="Trazado 25947" d="M423.19,453.18l2.12,2.55,13.9-10.97-1.8-2.38Z"/>
      </g>
      <path id="Trazado_25948" data-name="Trazado 25948" d="M424.39,454.27a3.656,3.656,0,0,0,1.42-1.11,7.94,7.94,0,0,0,1.14-1.61,8.057,8.057,0,0,0,.48-1.07,2,2,0,0,0,.17-.67.75.75,0,0,0-.51-.79,1,1,0,0,0-.85.15,2.44,2.44,0,0,0-.48.49,6.472,6.472,0,0,0-.65,1,6.69,6.69,0,0,0-.65,1.88,3,3,0,0,0,.06,1.81c.1,0,.08-.68.36-1.71a7.18,7.18,0,0,1,.72-1.7,6.307,6.307,0,0,1,.63-.89c.24-.31.49-.51.67-.44s.09,0,.09.18a1.742,1.742,0,0,1-.12.49,8.661,8.661,0,0,1-.42,1,10.374,10.374,0,0,1-1,1.6A17.114,17.114,0,0,0,424.39,454.27Z" fill="#263238"/>
      <path id="Trazado_25949" data-name="Trazado 25949" d="M424.73,454.33a3,3,0,0,0-.7-1.67,5.809,5.809,0,0,0-1.4-1.41,5.712,5.712,0,0,0-1-.58,1.47,1.47,0,0,0-1.47,0,.84.84,0,0,0-.29.86,2.322,2.322,0,0,0,.26.64,4,4,0,0,0,.74,1,4.1,4.1,0,0,0,1.75,1,2.38,2.38,0,0,0,1.82,0,15.6,15.6,0,0,1-1.68-.38,4.12,4.12,0,0,1-1.49-1,3.54,3.54,0,0,1-.61-.85c-.19-.33-.27-.67-.13-.72a1.353,1.353,0,0,1,.86.08,5.7,5.7,0,0,1,.95.5,6.22,6.22,0,0,1,1.38,1.21C424.38,453.73,424.63,454.37,424.73,454.33Z" fill="#263238"/>
      <path id="Trazado_25950" data-name="Trazado 25950" d="M392.16,307.12c.56,1.56,7.18,81.49,7.18,81.49l44.56,59.05L425,460.87l-50.37-51.72a18,18,0,0,1-4.79-8.91l-18.62-88.55Z" fill="#263238"/>
      <path id="Trazado_25951" data-name="Trazado 25951" d="M286.78,223.38l39.23.85,2.7.42-10.88,24.04-40.06-5.76-39.34-29.1,10.51-14.72Z" fill="#344d84"/>
      <path id="Trazado_25952" data-name="Trazado 25952" d="M349.47,222.38l15.06,3.91a12.64,12.64,0,0,1,8.28,7.79l4.23,15.3,8.86,34.09,8.65,30.91c-15.4,7-27.61,16.64-46.94,17.24a18.54,18.54,0,0,1-7.88-1.47l-12.64-5.37,4.12-19.42-15.08-57.63,11.51-22.87,3.93-.53Z" fill="#344d84"/>
      <path id="Trazado_25953" data-name="Trazado 25953" d="M293.11,203.62a2.57,2.57,0,0,1,.33-1.71,6.29,6.29,0,0,1,3.3-2.31,16.51,16.51,0,0,0-.37-5.43,3.28,3.28,0,0,1-1.91.18,1.721,1.721,0,0,1-.32,0c-1.44-.09-2.27-1.87-1.92-3.28a7.56,7.56,0,0,1,2.52-3.45c-.9.42-1.45,1.33-2.23,2s-2.14.79-2.6-.09a2.2,2.2,0,0,1-.18-.88c0-.61-.07-1.22-.11-1.83a2,2,0,0,1,.28-1.42,5.141,5.141,0,0,1,.85-.59c.93-.67,1-2.14,1.9-2.82a5,5,0,0,1,2.44-.55c.84-.11,1.79-.66,1.74-1.5a7.84,7.84,0,0,1-3.48-1.21,2.7,2.7,0,0,1-1-3.27,4,4,0,0,1,2.39-1.53c1-.35,2.38-.6,3,.27a2.81,2.81,0,0,1,4,.82l2.5-1.27c-1-.5-2.24-.58-3.21-1.2s-1.44-2.22-.48-2.85c.35-.23.81-.26,1.12-.55s.35-.52.62-.64a1.11,1.11,0,0,1,.65,0l6.88,1.47L307,167.1c-.87-.89-1.78-2.21-1.09-3.24s2.37-.59,3,.44a1.92,1.92,0,0,1,2.81.8,1.94,1.94,0,0,1,3.19,2,5.48,5.48,0,0,1,2.92-.23,1.69,1.69,0,0,1,2.13-2.07,2.86,2.86,0,0,1-.2-1.72c.16-.56.85-1,1.35-.7a2,2,0,0,1,2.29-3l.48-1.44a2.6,2.6,0,0,1,2.8.31,1.51,1.51,0,0,1-.41,2.44c.64-.26.9.84.72,1.51-.24.94-.49,1.89-.74,2.83a2.18,2.18,0,0,1,2.44-1.2,1.69,1.69,0,0,1,2.28-.86,1.38,1.38,0,0,1,2.45-.5c0-.48.57-.74,1-.86a3.17,3.17,0,0,1,2.06-.08c.64.28,1,1.24.48,1.7.43-.53,1.39-.19,1.64.44a2.43,2.43,0,0,1-.29,2,5.819,5.819,0,0,0-.78,1.88,2.9,2.9,0,0,1,1.69-1.09,7.33,7.33,0,0,1,3.58-.62c0-.53.64-.79,1.16-.87a8.33,8.33,0,0,1,4.8.62c.7.32,1.45.92,1.35,1.68a2.13,2.13,0,0,1-.48.93c-.89,1.18-1.79,2.36-2.68,3.55a10.31,10.31,0,0,1,6.14,1.55,18.873,18.873,0,0,1,2.61.1c.83.26,1.3,1.63.49,1.94a1.61,1.61,0,0,1,1.1,1.57,1.54,1.54,0,0,1-.32.82,1.931,1.931,0,0,1-.22.59,3,3,0,0,1-.75.86,2,2,0,0,1-1.3,1.33,8.22,8.22,0,0,1,2.45,1.34,3.38,3.38,0,0,1,1.24,3.24c0,.07-.05.12-.07.19a1.65,1.65,0,0,1-.3,1.23,1.5,1.5,0,0,1,.46.82,3.69,3.69,0,0,1,3.1,5.73c-.59.89-2.14,1.36-2.6.4a2.88,2.88,0,0,1-1.46,2.27,2.78,2.78,0,0,1,0,4.1,3,3,0,0,1,.88,4.86,2.271,2.271,0,1,1-3.47,2.93,4.85,4.85,0,0,1-.82,2.6,1.67,1.67,0,0,1-2.42.27,3.12,3.12,0,0,1-3.74,3,2.01,2.01,0,0,1-3.61,1.77l-4.88,1.83a19.319,19.319,0,0,1-3.3,1,9.38,9.38,0,0,1-4.37-.29,3.16,3.16,0,0,0-1.38-.25,3.24,3.24,0,0,0-1.4.8,8.46,8.46,0,0,1-8.15,1.12,4.309,4.309,0,0,0-1.29-.41,4,4,0,0,0-1.51.35,15.429,15.429,0,0,1-3.73.86,4,4,0,0,1-3.12-.68c-.82-.73-.82-2.35.21-2.72a2.32,2.32,0,0,0-1.25-1.64,1.41,1.41,0,0,0-1.82.62c-.28.65.34,1.55,1,1.38-.81,1.18-2.92.77-3.47-.55a2.83,2.83,0,0,1,1.69-3.47,6.58,6.58,0,0,1-1.21-2.91,2.31,2.31,0,0,1-2.81,1.47,4,4,0,0,1-1.74,2.66,2.4,2.4,0,0,1-3-.39,1.73,1.73,0,0,1,.73-2.66,2.06,2.06,0,0,1,.64-3.44,3.19,3.19,0,0,1,.6-3.87,1.69,1.69,0,0,1-2.57,0c-.25,1.21-1.84,1.56-3.07,1.35a2.24,2.24,0,0,1-2.03-1.8Z" fill="#263238"/>
      <path id="Trazado_25954" data-name="Trazado 25954" d="M293.11,203.62a1.889,1.889,0,0,0,.1.42,1.84,1.84,0,0,0,.8,1,4.08,4.08,0,0,0,2.05.48,3.52,3.52,0,0,0,1.34-.27,1.68,1.68,0,0,0,1-1.17h-.11a1.76,1.76,0,0,0,2.68,0l-.11-.1a3.29,3.29,0,0,0-.63,4l.05-.13a2.156,2.156,0,0,0-.67,3.6v-.18a1.74,1.74,0,0,0-1.16,1.85,1.89,1.89,0,0,0,1.6,1.7,2.75,2.75,0,0,0,2.42-.68,4.47,4.47,0,0,0,1.28-2.35l-.16.09a2.46,2.46,0,0,0,3-1.55h-.26a6.69,6.69,0,0,0,1.23,3l.06-.2a3.17,3.17,0,0,0-1.55,1.37,2.63,2.63,0,0,0-.27,2.11,2.22,2.22,0,0,0,1.65,1.44,2,2,0,0,0,2.13-.7l.22-.33-.38.1c-.39.11-.81-.27-.9-.7a.91.91,0,0,1,.66-1,1.4,1.4,0,0,1,1.37.25,2.37,2.37,0,0,1,.79,1.3l.1-.18a1.31,1.31,0,0,0-.79.82,2.063,2.063,0,0,0,.47,2.13,2.74,2.74,0,0,0,1,.59,5.38,5.38,0,0,0,2.22.18,15.193,15.193,0,0,0,2.21-.36c1.48-.24,2.86-1.42,4.25-.49a8.44,8.44,0,0,0,4.7.51,9.221,9.221,0,0,0,2.32-.74,12.8,12.8,0,0,0,2.05-1.36,1.51,1.51,0,0,1,1-.27,10.222,10.222,0,0,1,1.16.32,9.77,9.77,0,0,0,2.52.36,13.23,13.23,0,0,0,5-1.15l4.9-1.83-.24-.08a2.236,2.236,0,0,0,4-2l-.24.27a3.32,3.32,0,0,0,4-3.24l-.36.15a1.53,1.53,0,0,0,1.39.4,2.16,2.16,0,0,0,1.31-.69,4.88,4.88,0,0,0,.92-2.76l-.37.12a2.483,2.483,0,1,0,3.79-3.21v.3a2.94,2.94,0,0,0,.95-2.78,3,3,0,0,0-1.89-2.45l.07.37a3,3,0,0,0,0-4.43v.36a3.11,3.11,0,0,0,1.58-2.44l-.41.07a1.15,1.15,0,0,0,.57.56,1.57,1.57,0,0,0,.77.08,2.51,2.51,0,0,0,1.31-.63,3.69,3.69,0,0,0,1-2.7,3.75,3.75,0,0,0-1.19-2.65,3.94,3.94,0,0,0-2.74-1.1l.22.18a1.62,1.62,0,0,0-.52-.94v.3a1.87,1.87,0,0,0,.35-1.4v.1a3.28,3.28,0,0,0-.79-3.22,7,7,0,0,0-2.95-1.82v.42a2.21,2.21,0,0,0,1.45-1.49l-.07.11a2.76,2.76,0,0,0,1-1.57v.08a1.66,1.66,0,0,0,.27-1.56,1.8,1.8,0,0,0-1.17-1.17v.42a.85.85,0,0,0,.53-.59,1.32,1.32,0,0,0-.05-.74,1.61,1.61,0,0,0-1-1,17.359,17.359,0,0,0-2.64-.11h.09a10.65,10.65,0,0,0-6.28-1.59l.2.36c.38-.51.8-1.07,1.23-1.62l.93-1.23a11,11,0,0,0,.91-1.3,1.36,1.36,0,0,0,.11-.89A1.8,1.8,0,0,0,350,166a3.62,3.62,0,0,0-1.38-.84,8.47,8.47,0,0,0-3.06-.61,9.107,9.107,0,0,0-1.56.12,2.54,2.54,0,0,0-.78.29,1,1,0,0,0-.51.79l.26-.21a6.4,6.4,0,0,0-2.93.37c-.46.15-.91.3-1.37.49a2.35,2.35,0,0,0-1.2,1l.42.13c.09-.94.89-1.72,1.12-2.81a1.67,1.67,0,0,0-.41-1.62,1.51,1.51,0,0,0-.81-.37,1,1,0,0,0-.87.34l.31.3a1,1,0,0,0,.33-.81,1.59,1.59,0,0,0-.28-.77,1.35,1.35,0,0,0-.65-.5,2,2,0,0,0-.76-.14,5.63,5.63,0,0,0-1.44.24,2.54,2.54,0,0,0-.7.31.91.91,0,0,0-.44.75l.41-.1a1.58,1.58,0,0,0-2.85.58l.32-.17a1.9,1.9,0,0,0-2.6,1l.27-.14a2.4,2.4,0,0,0-2.69,1.31l.4.15.63-2.39a2.81,2.81,0,0,0,.14-1.3,1.49,1.49,0,0,0-.25-.67.68.68,0,0,0-.35-.26.72.72,0,0,0-.44,0l.14.41a1.47,1.47,0,0,0,1-1.3,1.85,1.85,0,0,0-.52-1.54,2.83,2.83,0,0,0-3-.32h-.09v.09l-.48,1.45.27-.14a2.18,2.18,0,0,0-2.53,3.27l.28-.3a1,1,0,0,0-1.06.06,1.37,1.37,0,0,0-.61.8,3.08,3.08,0,0,0,.21,1.82l.28-.26a1.89,1.89,0,0,0-2.4,2.34l.23-.28a5.75,5.75,0,0,0-3,.23l.27.25a2.14,2.14,0,0,0-3.53-2.14l.33.07a2.11,2.11,0,0,0-3.12-.89h.29a2.39,2.39,0,0,0-1.21-1,2.08,2.08,0,0,0-1.55,0,1.54,1.54,0,0,0-.83,1.32A2.62,2.62,0,0,0,306,166a12.41,12.41,0,0,0,1.86,2.13l1.92,2,.18-.32-4.25-.9-2.08-.44a4.37,4.37,0,0,0-1.09-.17.9.9,0,0,0-.56.32c-.12.15-.21.3-.31.4a2.939,2.939,0,0,1-.87.42,1.34,1.34,0,0,0-.78.83,2.26,2.26,0,0,0,.57,2.06,3.83,3.83,0,0,0,1.82,1,12.158,12.158,0,0,1,1.85.62v-.32l-2.5,1.27.23.07a3,3,0,0,0-4.27-.86h.23a1.94,1.94,0,0,0-1.77-.65,6.88,6.88,0,0,0-1.76.44,5.18,5.18,0,0,0-1.58.82,2.17,2.17,0,0,0-.82,1.59,3.26,3.26,0,0,0,1.72,2.85,9.39,9.39,0,0,0,3.1.94l-.12-.14a1.15,1.15,0,0,1-.65,1,2.76,2.76,0,0,1-1.27.37,9.488,9.488,0,0,0-1.38.18,2,2,0,0,0-1.19.74c-.58.75-.73,1.66-1.29,2.25-.26.31-.67.41-1,.73a1.6,1.6,0,0,0-.4,1.24c0,.82.09,1.63.14,2.41a1.41,1.41,0,0,0,.53,1.11,1.69,1.69,0,0,0,1.17.25,2.71,2.71,0,0,0,1.08-.4,5.4,5.4,0,0,0,.83-.74,5.7,5.7,0,0,1,1.56-1.33l-.12-.18a13.1,13.1,0,0,0-1.74,1.85,4.24,4.24,0,0,0-.88,2.17,3.07,3.07,0,0,0,.63,2.06,1.93,1.93,0,0,0,1.79.79h0a3.42,3.42,0,0,0,2-.18l-.11-.06a16.739,16.739,0,0,1,.4,5.4v-.05a9.78,9.78,0,0,0-2.32,1.24,3.69,3.69,0,0,0-1.15,1.43,2.58,2.58,0,0,0-.19,1.06,2.18,2.18,0,0,0,.05.35,2.64,2.64,0,0,1,.2-1.38,3.5,3.5,0,0,1,1.14-1.39,9.71,9.71,0,0,1,2.31-1.2h0a16.489,16.489,0,0,0-.36-5.44v-.09h-.08a3.21,3.21,0,0,1-1.87.16h0a1.76,1.76,0,0,1-1.63-.73,2.94,2.94,0,0,1-.58-1.94,4,4,0,0,1,.86-2.06,12.572,12.572,0,0,1,1.72-1.8l.51-.47-.63.28a5.65,5.65,0,0,0-1.63,1.37,5.278,5.278,0,0,1-.8.7,2.42,2.42,0,0,1-1,.36,1.39,1.39,0,0,1-1-.21,1.17,1.17,0,0,1-.42-.93c0-.78-.09-1.58-.14-2.39a1.4,1.4,0,0,1,.33-1.05c.27-.25.72-.38,1-.73.63-.68.79-1.6,1.31-2.26a3.224,3.224,0,0,1,2.39-.81,3.06,3.06,0,0,0,1.39-.41,1.43,1.43,0,0,0,.8-1.28v-.11h-.11a8.83,8.83,0,0,1-3-.91,2.93,2.93,0,0,1-1.56-2.57,1.85,1.85,0,0,1,.71-1.35,5,5,0,0,1,1.49-.77,7.111,7.111,0,0,1,1.68-.41,1.6,1.6,0,0,1,1.47.52l.11.14.13-.11a2.66,2.66,0,0,1,3.77.77l.08.14.15-.07,2.5-1.26.32-.16-.32-.16a14.148,14.148,0,0,0-1.9-.64,3.51,3.51,0,0,1-1.66-.88,1.94,1.94,0,0,1-.5-1.71,1,1,0,0,1,.59-.61,2.86,2.86,0,0,0,1-.49c.28-.3.41-.6.66-.61a5,5,0,0,1,1,.16l2.07.45,4.25.91.62.13-.44-.45-1.92-2a12,12,0,0,1-1.8-2.06,2.32,2.32,0,0,1-.37-1.22,1.16,1.16,0,0,1,.61-1,1.89,1.89,0,0,1,2.25.78l.12.19.17-.13a1.71,1.71,0,0,1,2.5.72l.11.28.22-.21a1.74,1.74,0,0,1,2.86,1.74l-.11.39.37-.14a5.35,5.35,0,0,1,2.81-.22l.39.08-.16-.36a1.49,1.49,0,0,1,1.85-1.8l.43.2-.15-.45a2.86,2.86,0,0,1-.2-1.58c.11-.45.69-.83,1.05-.6l.83.52-.54-.82a1.76,1.76,0,0,1,2-2.63l.2.07.07-.21c.16-.48.32-.95.48-1.44l-.11.12a2.4,2.4,0,0,1,2.53.25c.63.54.51,1.88-.29,2.1l.14.41a.21.21,0,0,1,.28.09,1.15,1.15,0,0,1,.18.47,2.38,2.38,0,0,1-.14,1.13l-.63,2.39.41.15a2,2,0,0,1,2.18-1.08l.2.06.06-.19a1.48,1.48,0,0,1,2-.75l.31.17V163a1.16,1.16,0,0,1,2-.41l.49,1-.07-1.1c0-.29.41-.52.82-.63a5.16,5.16,0,0,1,1.31-.23,1.21,1.21,0,0,1,1.06.46.76.76,0,0,1,0,1l.32.31c.21-.28.74-.2,1,.08a1.2,1.2,0,0,1,.27,1.2c-.16.93-1,1.7-1.13,2.85l-.14,1.09.56-1c.42-.72,1.44-.93,2.32-1.25a6.08,6.08,0,0,1,2.72-.35h.26v-.25c0-.34.48-.58.92-.66a8.27,8.27,0,0,1,4.37.46,3.33,3.33,0,0,1,1.22.74,1,1,0,0,1,.26,1.15,12.623,12.623,0,0,1-.87,1.22l-.93,1.23-1.23,1.62-.3.39h.49a10.16,10.16,0,0,1,6,1.52h0a20.49,20.49,0,0,1,2.57.09,1.2,1.2,0,0,1,.71.75c.12.35.05.69-.22.77l-.68.22.69.21a1.38,1.38,0,0,1,.88.88,1.21,1.21,0,0,1-.21,1.16h0v.05a2.26,2.26,0,0,1-.89,1.32h-.06v.07a1.75,1.75,0,0,1-1.14,1.18l-.65.18.63.24a6.85,6.85,0,0,1,2.78,1.7,2.84,2.84,0,0,1,.71,2.78v.11a1.44,1.44,0,0,1-.25,1.07l-.13.16.15.14a1.22,1.22,0,0,1,.39.68v.19h.19a3.55,3.55,0,0,1,2.43,1,3.31,3.31,0,0,1,1.05,2.35,3.27,3.27,0,0,1-.82,2.36,2,2,0,0,1-1.07.52.79.79,0,0,1-.89-.39l-.35-.78-.06.86a2.69,2.69,0,0,1-1.35,2.09l-.29.15.25.2a2.57,2.57,0,0,1,0,3.77l-.3.25.37.12a2.56,2.56,0,0,1,1.61,2.1,2.53,2.53,0,0,1-.8,2.39l-.17.14.14.16a2.061,2.061,0,0,1-3.14,2.67l-.31-.38-.06.49a4.48,4.48,0,0,1-.81,2.53,1.45,1.45,0,0,1-2.06.23l-.4-.48v.62a2.79,2.79,0,0,1-1.14,2.28,2.74,2.74,0,0,1-2.35.55l-.39-.11.16.38a1.82,1.82,0,0,1-3.26,1.6l-.08-.14-.16.06-4.9,1.83a12.811,12.811,0,0,1-4.87,1.13,9,9,0,0,1-2.42-.34,9.362,9.362,0,0,0-1.22-.33,1.81,1.81,0,0,0-1.28.34,12.483,12.483,0,0,1-2,1.33,8.4,8.4,0,0,1-2.23.71,8.1,8.1,0,0,1-4.5-.47,4.54,4.54,0,0,0-1.13-.37,2.51,2.51,0,0,0-1.2.17,17.51,17.51,0,0,1-2.13.68,16.223,16.223,0,0,1-2.16.36,5,5,0,0,1-2.08-.17,1.83,1.83,0,0,1-1.31-1.34,1.32,1.32,0,0,1,.65-1.59h.13v-.14a2.78,2.78,0,0,0-.9-1.48,1.71,1.71,0,0,0-1.67-.29,1.2,1.2,0,0,0-.85,1.38,1.11,1.11,0,0,0,1.26.93l-.16-.23a1.69,1.69,0,0,1-1.81.58,1.92,1.92,0,0,1-1.45-1.24,2.71,2.71,0,0,1,1.65-3.14l.17-.07-.11-.14a6.41,6.41,0,0,1-1.19-2.85l-.08-.57-.17.55a2.19,2.19,0,0,1-2.65,1.39h-.13v.14a4.26,4.26,0,0,1-1.19,2.22,2.52,2.52,0,0,1-2.23.64,1.68,1.68,0,0,1-1.43-1.49,1.53,1.53,0,0,1,1-1.64l.19-.05-.16-.13a2,2,0,0,1,.6-3.27h.11l-.06-.1a3.12,3.12,0,0,1,.58-3.77l-.11-.11a1.62,1.62,0,0,1-2.46,0l-.09-.12v.15a1.56,1.56,0,0,1-.95,1.09,3.42,3.42,0,0,1-1.3.28,4,4,0,0,1-2-.45,1.83,1.83,0,0,1-.8-.93C293.14,203.77,293.12,203.62,293.11,203.62Z" fill="#455a64"/>
      <path id="Trazado_25955" data-name="Trazado 25955" d="M349.83,223.41l-11.9-34.34c-2.83-9.35-10.63-15.49-19.89-12.41l-.84.34A17.45,17.45,0,0,0,307,198.36c2.49,8.09,5.35,17,7.08,21.17,3.58,8.66,12.82,6.54,12.82,6.54s.75,2,1.66,4.64h0s1.48,8.71,8.29,6.62S349.83,223.41,349.83,223.41Z" fill="#c78976"/>
      <path id="Trazado_25956" data-name="Trazado 25956" d="M326.84,226.09a22.66,22.66,0,0,0,10-7.87s0,7.7-9,10.38Z" fill="#8b5d54"/>
      <path id="Trazado_25957" data-name="Trazado 25957" d="M311.78,204.39a1.34,1.34,0,0,0,1.7.78,1.28,1.28,0,0,0,.83-1.63,1.34,1.34,0,0,0-1.7-.78,1.28,1.28,0,0,0-.83,1.63Z" fill="#263238"/>
      <path id="Trazado_25958" data-name="Trazado 25958" d="M310.23,201.24c.22.1.89-1,2.22-1.5s2.59-.25,2.67-.47-.23-.33-.78-.48a3.76,3.76,0,0,0-2.22.18,3.52,3.52,0,0,0-1.68,1.4C310.15,200.85,310.13,201.2,310.23,201.24Z" fill="#263238"/>
      <path id="Trazado_25959" data-name="Trazado 25959" d="M324.24,200.4a1.34,1.34,0,0,0,1.7.78,1.28,1.28,0,0,0,.83-1.63,1.34,1.34,0,0,0-1.7-.78,1.28,1.28,0,0,0-.83,1.63Z" fill="#263238"/>
      <path id="Trazado_25960" data-name="Trazado 25960" d="M323.55,196.56c.22.1.88-1,2.22-1.51s2.59-.25,2.67-.47-.23-.33-.79-.47a3.65,3.65,0,0,0-2.21.18,3.49,3.49,0,0,0-1.69,1.4C323.47,196.16,323.45,196.51,323.55,196.56Z" fill="#263238"/>
      <path id="Trazado_25961" data-name="Trazado 25961" d="M322.85,208.75a9.54,9.54,0,0,0-2.32.47c-.36.1-.71.16-.86-.05a1.9,1.9,0,0,1-.18-1.1q0-1.42,0-3c-.07-4.27-.27-7.71-.44-7.71s-.25,3.46-.18,7.72c0,1,.05,2,.08,3a2.14,2.14,0,0,0,.36,1.41.91.91,0,0,0,.76.27,2.37,2.37,0,0,0,.61-.15,9.771,9.771,0,0,0,2.17-.86Z" fill="#263238"/>
      <path id="Trazado_25962" data-name="Trazado 25962" d="M321.43,192.16c.28.31,1.54-.39,3.19-.82s3.08-.51,3.16-.92c0-.19-.32-.45-1-.6a5.74,5.74,0,0,0-4.84,1.33C321.48,191.61,321.3,192,321.43,192.16Z" fill="#263238"/>
      <path id="Trazado_25963" data-name="Trazado 25963" d="M309,196.53c.35.22,1.16-.45,2.27-.88s2.14-.56,2.24-1c0-.2-.22-.45-.75-.58a3.34,3.34,0,0,0-2,.19,3.39,3.39,0,0,0-1.59,1.29C308.83,196.06,308.82,196.42,309,196.53Z" fill="#263238"/>
      <path id="Trazado_25964" data-name="Trazado 25964" d="M322.89,212.7a5.88,5.88,0,0,0,1.22,1.22,2,2,0,0,0,1.65.34A1.8,1.8,0,0,0,327,213a2.89,2.89,0,0,0-.14-1.81c-.2-.52-.65-1.07-1.19-.95a1.28,1.28,0,0,0-.59.35l-2.39,2" fill="#8b5d54"/>
      <path id="Trazado_25965" data-name="Trazado 25965" d="M324.74,214.61a4.34,4.34,0,0,0,1.41-.67,2.21,2.21,0,0,0,.78-1.38,2.33,2.33,0,0,0-.56-1.81,2,2,0,0,0-.38-.33c-.15-.08-.13-.08-.24,0s-.25.22-.38.32l-.4.34c-.51.43-1,.82-1.37,1.13a5.24,5.24,0,0,1-1.35.95,6.67,6.67,0,0,1,1.11-1.22c.36-.35.8-.77,1.3-1.22l.38-.35c.14-.12.24-.23.43-.37a.68.68,0,0,1,.42-.13.82.82,0,0,1,.38.14,2.782,2.782,0,0,1,.48.42,2.74,2.74,0,0,1,.65,2.24,2.5,2.5,0,0,1-1,1.59,2.28,2.28,0,0,1-1.18.44C324.9,214.69,324.74,214.64,324.74,214.61Z" fill="#263238"/>
      <path id="Trazado_25966" data-name="Trazado 25966" d="M301.88,192a11,11,0,0,1-.31-1.38,4.39,4.39,0,0,1,.54-2.09c1-2.28,2.14-4.65,4-6,1.16-.82,2.54-1.21,3.7-2a25.285,25.285,0,0,0,2-1.74,20.4,20.4,0,0,1,9.7-4.36,17,17,0,0,1,6-.32,20.259,20.259,0,0,1,6.44,2.5,31.11,31.11,0,0,1,8.62,6.51,15.26,15.26,0,0,1,3.88,7.78c.4,2.94-.57,6.09-2.76,7.36l-1.23-.79-1.93-1.14c.46.57.23.6-.2,1.13a1.19,1.19,0,0,1-1.76,0c-.26.71-1.43.4-1.52-.4-.45.46-1.37-.06-1.39-.79-.56.43-1.22-.47-1.75-1a9.495,9.495,0,0,0-.94-.85,7.2,7.2,0,0,1-2.12-3.45,7.13,7.13,0,0,1-2.26-3.33c-.34-.8-.68-1.6-1-2.39l-.63-.44a1.41,1.41,0,0,1-.51,1.55,3,3,0,0,1-1.51.41l-1.57.15-.84.54a3.91,3.91,0,0,1,.44,2.49,2.51,2.51,0,0,1-.46,1.6.73.73,0,0,1-1.2-.46.82.82,0,0,1-1.26.16,2.68,2.68,0,0,1-.78-1.43,6.84,6.84,0,0,1,.13-3.94L317.54,189a1.26,1.26,0,0,1-.52.57.7.7,0,0,1-.5,1,1.79,1.79,0,0,1-1.14-.36c-.82-.47-1.81-1.4-1.47-2.3a.6.6,0,0,1-.49-.75l-2.26,3.08c.24-.25.69.11.74.5a1.64,1.64,0,0,1-.35,1.05,2.4,2.4,0,0,1,.74,1.28c.39-.62,1.43,0,1.48.82a1.7,1.7,0,0,1-1.18,1.66A1.19,1.19,0,0,1,311,195c-.61.33-1.48-.37-1.47-1.16-.37.44-1-.27-1.23-.89a9.359,9.359,0,0,1-.49-3.39.164.164,0,0,1-.22.14.32.32,0,0,1-.1-.1c-.14,1.4-.29,2.8-.43,4.2a9.69,9.69,0,0,0,.08,3.6c.13.48.27,1.16-.12,1.32a.65.65,0,0,1-.34,0,6.27,6.27,0,0,1-3.53-2.29,4.57,4.57,0,0,1-.82-1.29,20.721,20.721,0,0,1-.45-3.14Z" fill="#263238"/>
      <path id="Trazado_25967" data-name="Trazado 25967" d="M313.87,186a1.42,1.42,0,0,1-.58-.6,1,1,0,0,1,0-.91,1.07,1.07,0,0,1,1-.58h.25l-.16-.2a1.14,1.14,0,0,1-.07-1.31,1.12,1.12,0,0,1,1.4-.36l.13-.22a.43.43,0,0,1-.11-.12.63.63,0,0,1-.07-.55.74.74,0,0,1,.37-.41,1.12,1.12,0,0,1,.57-.14,1.71,1.71,0,0,0,.66,0c.25-.13.31-.36.42-.49a2.63,2.63,0,0,1,.35-.39,2.59,2.59,0,0,1,.84-.46,2.47,2.47,0,0,1,1.38-.07c.33.08.49.18.51.16a1.3,1.3,0,0,0-.48-.26,2.47,2.47,0,0,0-1.47,0,2.731,2.731,0,0,0-.91.47,2.4,2.4,0,0,0-.41.43c-.12.16-.2.35-.33.4a1.74,1.74,0,0,1-.57,0,1.41,1.41,0,0,0-.68.16,1,1,0,0,0-.5.56.91.91,0,0,0,.1.78.86.86,0,0,0,.19.19l.13-.23a1.33,1.33,0,0,0-1.62,2l.09-.19a1.3,1.3,0,0,0-1.16.73,1.18,1.18,0,0,0,.51,1.52A.431.431,0,0,0,313.87,186Z" fill="#455a64"/>
      <path id="Trazado_25968" data-name="Trazado 25968" d="M308.13,189.36a1.87,1.87,0,0,1-.68-.55,1.34,1.34,0,0,1-.21-1,1.37,1.37,0,0,1,.77-1l.17-.07-.16-.1a1.64,1.64,0,0,1-.82-1.24.88.88,0,0,1,.34-.7.68.68,0,0,1,.76-.12l.93.55-.78-.75a1.31,1.31,0,0,1-.38-1.06,1.25,1.25,0,0,1,.64-1,1.32,1.32,0,0,1,.86-.16l.33.06-.21-.27a.85.85,0,0,1,.42-1.18,2.2,2.2,0,0,1,1.41,0l.28.06-.15-.24a.94.94,0,0,1,0-1,1.73,1.73,0,0,1,.74-.63,4.56,4.56,0,0,1,1.61-.43,7.5,7.5,0,0,1,1.48.09,1.49,1.49,0,0,0-.38-.12,4.37,4.37,0,0,0-2.79.28,1.92,1.92,0,0,0-.85.69,1.18,1.18,0,0,0-.05,1.22l.12-.18a2.36,2.36,0,0,0-1.57.05,1.23,1.23,0,0,0-.6.65.92.92,0,0,0,.09.93l.12-.21a1.59,1.59,0,0,0-1,.18,1.51,1.51,0,0,0-.78,1.2,1.57,1.57,0,0,0,.47,1.26l.15-.2a1,1,0,0,0-1.05.15,1.11,1.11,0,0,0-.41.9,1.82,1.82,0,0,0,.95,1.4v-.18a1.54,1.54,0,0,0-.85,1.15,1.42,1.42,0,0,0,.82,1.48A.412.412,0,0,0,308.13,189.36Z" fill="#455a64"/>
      <path id="Trazado_25969" data-name="Trazado 25969" d="M295.08,194.4a1,1,0,0,1,.13-.77,1.24,1.24,0,0,1,.74-.54,3.47,3.47,0,0,1,1.27-.06h.15l-.06-.15a1.12,1.12,0,0,1,.57-1.3,3.28,3.28,0,0,1,1.85-.23l.86.07-.81-.3a.93.93,0,0,1-.3-1.3,2.1,2.1,0,0,1,1.45-.81H301l.51-.1-.49-.15a1,1,0,0,1-.33-1.53,1.5,1.5,0,0,1,1.64-.31l.63.25-.5-.45a2.23,2.23,0,0,1-.63-2.19,2.09,2.09,0,0,1,1.2-1.37,2.34,2.34,0,0,1,1.22-.19,1.886,1.886,0,0,1,.45.08l-.11-.06a1.672,1.672,0,0,0-.33-.1A2.44,2.44,0,0,0,303,183a2.22,2.22,0,0,0-1.34,1.45,2.45,2.45,0,0,0,.66,2.43l.12-.21a1.72,1.72,0,0,0-1.92.37,1.24,1.24,0,0,0-.28,1.06,1.13,1.13,0,0,0,.72.89v-.26h-.08a2.28,2.28,0,0,0-1.62,1,1.27,1.27,0,0,0-.14.93,1,1,0,0,0,.57.72l.06-.24a3.46,3.46,0,0,0-2,.28,1.31,1.31,0,0,0-.63,1.57l.09-.13a3.78,3.78,0,0,0-1.33.11,1.34,1.34,0,0,0-.78.63.91.91,0,0,0-.12.62C295,194.35,295.08,194.41,295.08,194.4Z" fill="#455a64"/>
      <path id="Trazado_25970" data-name="Trazado 25970" d="M298.4,179.63a.8.8,0,0,0,.36,0,4.319,4.319,0,0,0,1-.23,3,3,0,0,1,1.46-.19.94.94,0,0,1,.67.46.67.67,0,0,1-.05.81l.21.07c0-.34.3-.65.59-1a4.67,4.67,0,0,1,1-.85,1.61,1.61,0,0,1,1.24-.16,1.06,1.06,0,0,1,.79.78l.05.32.17-.28a2.9,2.9,0,0,1,1.44-1.14,3.31,3.31,0,0,1,1.46-.21,3.859,3.859,0,0,1,1.27.38,1.357,1.357,0,0,0-.29-.22,2.83,2.83,0,0,0-1-.31,3.34,3.34,0,0,0-1.55.16,3,3,0,0,0-1.57,1.21l.22.05a1.28,1.28,0,0,0-.95-1,1.82,1.82,0,0,0-1.44.17,4.63,4.63,0,0,0-1.09.9,5.373,5.373,0,0,0-.44.51.89.89,0,0,0-.21.67v.25l.17-.18a.88.88,0,0,0,.07-1.09,1.14,1.14,0,0,0-.82-.56,3,3,0,0,0-1.55.26,5.8,5.8,0,0,1-.95.29C298.53,179.62,298.4,179.61,298.4,179.63Z" fill="#455a64"/>
      <path id="Trazado_25971" data-name="Trazado 25971" d="M309.42,171.22a2.48,2.48,0,0,1,.69-.1,1.55,1.55,0,0,1,.74.22,1.42,1.42,0,0,1,.64.72l.05.13.12-.08a.86.86,0,0,1,1.06.25,2.66,2.66,0,0,1,.45,1.37l.07.51.19-.49v-.08a1.09,1.09,0,0,1,.75-.6,1.24,1.24,0,0,1,.93.12,2,2,0,0,1,.93,1.33,3.559,3.559,0,0,1,0,1.16,2.051,2.051,0,0,0,0,.44,1.6,1.6,0,0,0,.14-.42,3.24,3.24,0,0,0,.05-1.21,2.11,2.11,0,0,0-1-1.51,1.44,1.44,0,0,0-2,.59v.1h.25a2.74,2.74,0,0,0-.52-1.49,1.08,1.08,0,0,0-1.38-.27h.17a1.58,1.58,0,0,0-.77-.8,1.7,1.7,0,0,0-.82-.19,1.43,1.43,0,0,0-.53.12A1.391,1.391,0,0,0,309.42,171.22Z" fill="#455a64"/>
      <path id="Trazado_25972" data-name="Trazado 25972" d="M322.58,175.65a.72.72,0,0,0,.3-.17,2.13,2.13,0,0,0,.6-.75,2.27,2.27,0,0,0,.21-1.43,1.23,1.23,0,0,1,0-.73c.09-.22.36-.42.47-.76a1.32,1.32,0,0,0-.81-1.6l.06.18a4.17,4.17,0,0,0,.64-1.8,1.59,1.59,0,0,0,0-.73,3,3,0,0,1-.12.71,4.48,4.48,0,0,1-.69,1.69l-.09.13.15.05a1.08,1.08,0,0,1,.64,1.29c-.07.25-.31.43-.45.74a1.3,1.3,0,0,0,0,.88,2.29,2.29,0,0,1-.14,1.3,3.54,3.54,0,0,1-.77,1Z" fill="#455a64"/>
      <path id="Trazado_25973" data-name="Trazado 25973" d="M326.44,176.92a.611.611,0,0,0,.22,0,3.391,3.391,0,0,0,.58-.23,3.47,3.47,0,0,0,1.54-1.59l-.16.05a2.28,2.28,0,0,0,1.7.35,2.38,2.38,0,0,0,.9-.38,1.39,1.39,0,0,0,.62-.86v-.39a.49.49,0,0,1,.09-.28,1.6,1.6,0,0,1,.5-.42,2.22,2.22,0,0,0,.57-.45.73.73,0,0,0,.17-.72l-.12.15a2.28,2.28,0,0,0,1.54-.41,2.48,2.48,0,0,0,.82-.92,2.151,2.151,0,0,0,.23-.76.66.66,0,0,0,0-.29,3.051,3.051,0,0,1-.33,1,2.53,2.53,0,0,1-.81.83,2.16,2.16,0,0,1-1.4.34h-.19l.06.17a.52.52,0,0,1-.14.49,1.91,1.91,0,0,1-.52.39,1.8,1.8,0,0,0-.58.5.87.87,0,0,0-.14.42,2.176,2.176,0,0,1,0,.35,1.23,1.23,0,0,1-.51.69,2.1,2.1,0,0,1-2.32.06l-.11-.08-.05.12a3.56,3.56,0,0,1-1.41,1.57C326.73,176.82,326.43,176.89,326.44,176.92Z" fill="#455a64"/>
      <path id="Trazado_25974" data-name="Trazado 25974" d="M348.48,178.89v-.1a1,1,0,0,0,0-.27,2.781,2.781,0,0,0-.41-1,6.1,6.1,0,0,0-1.08-1.22,5.9,5.9,0,0,0-.79-.63,1.55,1.55,0,0,0-.53-.21.7.7,0,0,0-.62.18l.19.06a1.74,1.74,0,0,0-3.14-.67l.23.05a1.22,1.22,0,0,0-.74-.81,1.17,1.17,0,0,0-1.11.18,1.1,1.1,0,0,0-.38.52h.25a.75.75,0,0,0-.44-.52,1.05,1.05,0,0,0-.63-.07,2.38,2.38,0,0,0-1,.59h.17a1.84,1.84,0,0,0-1.3-.44,2.63,2.63,0,0,0-1.23.35,6.551,6.551,0,0,0-1.62,1.49l.16.08a.44.44,0,0,0-.17-.42.76.76,0,0,0-.38-.15,1.35,1.35,0,0,0-.7.09,3.581,3.581,0,0,0-.91.6,2.858,2.858,0,0,0-.47.49,1.208,1.208,0,0,0-.13.21,8.616,8.616,0,0,1,.66-.62,4,4,0,0,1,.91-.54,1.24,1.24,0,0,1,.61-.06c.22,0,.43.16.39.37l-.05.32.22-.24a6.679,6.679,0,0,1,1.59-1.42,2.38,2.38,0,0,1,1.12-.31,1.63,1.63,0,0,1,1.13.39l.08.07.09-.07a2.12,2.12,0,0,1,.88-.53.64.64,0,0,1,.76.39l.09.45.16-.43a.94.94,0,0,1,1.16-.55,1,1,0,0,1,.58.63l.07.27.16-.23a1.5,1.5,0,0,1,2.71.56v.21l.15-.15c.22-.24.61-.12.89,0a5.061,5.061,0,0,1,.77.59,6,6,0,0,1,1.09,1.15,3.36,3.36,0,0,1,.56,1.37Z" fill="#455a64"/>
      <path id="Trazado_25975" data-name="Trazado 25975" d="M349.21,186.64a.433.433,0,0,1,.08-.19,6.086,6.086,0,0,0,.15-.59,1.89,1.89,0,0,0-.07-1,1.45,1.45,0,0,0-.35-.52,1,1,0,0,0-.68-.26l.09.12a1.24,1.24,0,0,0-.31-1.26,1.26,1.26,0,0,0-1.46-.18l.17.15a1,1,0,0,0-.36-1.11,1.46,1.46,0,0,0-1.22-.19,4.1,4.1,0,0,1-.56.16.46.46,0,0,1-.43-.2,2.119,2.119,0,0,0-.49-.44,1.09,1.09,0,0,0-.68-.16,6.659,6.659,0,0,0-1.35.36,1.48,1.48,0,0,1-1.17,0c-.16-.09-.31-.25-.49-.38a1.3,1.3,0,0,0-.62-.25,1.38,1.38,0,0,0-1.15.41l.19.11a1,1,0,0,0-.47-1.11,1.47,1.47,0,0,0-1.08-.2,4.839,4.839,0,0,0-1.58.68,6.811,6.811,0,0,0-.87.68c-.18.18-.27.28-.26.29a9.866,9.866,0,0,1,1.2-.85,4.76,4.76,0,0,1,1.54-.61,1.28,1.28,0,0,1,.93.18.81.81,0,0,1,.37.87l-.15.47.34-.35a1.14,1.14,0,0,1,1-.32,1.07,1.07,0,0,1,.51.2,6.223,6.223,0,0,0,.5.4,1.52,1.52,0,0,0,.69.16,3.831,3.831,0,0,0,.69-.13,6.268,6.268,0,0,1,1.28-.35,1,1,0,0,1,.54.12,2,2,0,0,1,.43.41.77.77,0,0,0,.65.27,4.31,4.31,0,0,0,.59-.17,1.21,1.21,0,0,1,1,.14.74.74,0,0,1,.29.82l-.12.32.29-.17a1,1,0,0,1,1.2.12,1.08,1.08,0,0,1,.28,1v.13h.13a1,1,0,0,1,.89.65,1.88,1.88,0,0,1,.1.91A7.852,7.852,0,0,0,349.21,186.64Z" fill="#455a64"/>
      <path id="Trazado_25976" data-name="Trazado 25976" d="M355.06,199.55a1,1,0,0,0,.22-.15,2,2,0,0,0,.44-.62,1.9,1.9,0,0,0,.11-1.19,2,2,0,0,0-.92-1.25v.13a3.55,3.55,0,0,0,.29-1.44,1.44,1.44,0,0,0-.29-.78,1.08,1.08,0,0,0-.77-.45l.09.21a1.51,1.51,0,0,0,.24-1.49,1.64,1.64,0,0,0-.49-.74,1.44,1.44,0,0,0-.8-.33.471.471,0,0,1-.5-.36,2.13,2.13,0,0,0-.38-.69,2.7,2.7,0,0,0-1.22-.73l-1.14-.4a4.45,4.45,0,0,0-1.75-.27,2,2,0,0,0-.47.09.162.162,0,0,0-.15.08,4.289,4.289,0,0,1,.63-.07,4.47,4.47,0,0,1,1.68.35l1.12.43a2.41,2.41,0,0,1,1.12.68,1.841,1.841,0,0,1,.33.62.77.77,0,0,0,.26.37.93.93,0,0,0,.42.15,1.35,1.35,0,0,1,.9,2.14l-.17.2h.26a1,1,0,0,1,.84,1,3.38,3.38,0,0,1-.26,1.35v.09h.07a1.85,1.85,0,0,1,.86,1.11,1.72,1.72,0,0,1-.06,1.09A2.79,2.79,0,0,1,355.06,199.55Z" fill="#455a64"/>
      <path id="Trazado_25977" data-name="Trazado 25977" d="M326.4,186a2.09,2.09,0,0,0,.66-.52,2,2,0,0,0,.5-.78,1.4,1.4,0,0,0-.07-1.16,1,1,0,0,0-.18-.23v.19a1.25,1.25,0,0,0,.38-1,1.15,1.15,0,0,0-.4-.77c-.39-.32-.73-.26-.72-.24a2,2,0,0,1,.6.37,1,1,0,0,1,0,1.46l-.09.09.09.1a.55.55,0,0,1,.13.17,1.24,1.24,0,0,1,.07,1,2.21,2.21,0,0,1-.41.73C326.6,185.71,326.37,185.93,326.4,186Z" fill="#455a64"/>
      <path id="Trazado_25978" data-name="Trazado 25978" d="M319.78,185a1.58,1.58,0,0,1-.44-.87,1.07,1.07,0,0,1,.36-1A1.17,1.17,0,0,1,321,183l.2.1v-.22a2.28,2.28,0,0,1,.07-.82,1,1,0,0,1,.5-.63c.38-.17.94.07.93.43h.25a2,2,0,0,1,.32-1.45,2.08,2.08,0,0,1,1-.73,2.92,2.92,0,0,1,1.11-.11.75.75,0,0,0-.3-.1,2.07,2.07,0,0,0-.86.06,2,2,0,0,0-1.08.75,2.15,2.15,0,0,0-.4,1.62h.25a.72.72,0,0,0-.46-.65,1,1,0,0,0-.82,0,1.17,1.17,0,0,0-.64.79,2.09,2.09,0,0,0-.07.92l.17-.12a1.39,1.39,0,0,0-1.5.23,1.24,1.24,0,0,0-.38,1.13,1.31,1.31,0,0,0,.36.7C319.68,184.92,319.77,185,319.78,185Z" fill="#455a64"/>
      <path id="Trazado_25979" data-name="Trazado 25979" d="M339.74,195.82c.12-.13,5.27-4.16,7.45,1.87s-4.31,7-4.38,6.8S339.74,195.82,339.74,195.82Z" fill="#c78976"/>
      <path id="Trazado_25980" data-name="Trazado 25980" d="M343.82,201.54a1.374,1.374,0,0,1,.34.06,1.16,1.16,0,0,0,.79-.27,2.76,2.76,0,0,0,.35-2.77,3.75,3.75,0,0,0-.83-1.4,1.3,1.3,0,0,0-1.09-.51.56.56,0,0,0-.51.51c0,.2.06.3,0,.32s-.16,0-.2-.32a.69.69,0,0,1,.1-.46.8.8,0,0,1,.52-.36,1.58,1.58,0,0,1,1.44.53,3.87,3.87,0,0,1,1,1.55,2.91,2.91,0,0,1-.59,3.16,1.23,1.23,0,0,1-1,.19C343.88,201.68,343.8,201.56,343.82,201.54Z" fill="#8b5d54"/>
      <path id="Trazado_25981" data-name="Trazado 25981" d="M326.67,288s12,1.43,20-3.85,18-25.82,18-25.82-20.05,23.16-39,26.14Z" opacity="0.3"/>
      <path id="Trazado_25982" data-name="Trazado 25982" d="M349.43,238.61c-6.83,8.89-19.7,25.68-19.7,25.68l-47.63,7,2.49,15.78,47.32-2.71a27.61,27.61,0,0,0,18.11-9.1c5.79-6.48,13.67-15.46,18.59-21.69a12.15,12.15,0,0,0-2.92-17.73h0a12.15,12.15,0,0,0-16.26,2.77Z" fill="#344d84"/>
      <path id="Trazado_25983" data-name="Trazado 25983" d="M369.8,400.24c-.14,0-3.21-14-6.85-31.33s-6.48-31.4-6.34-31.43,3.21,14,6.85,31.33S369.94,400.21,369.8,400.24Z" fill="#455a64"/>
      <path id="Trazado_25984" data-name="Trazado 25984" d="M398.05,388.83c.11.1-.6,1-1.57,2s-1.86,1.76-2,1.66a6.649,6.649,0,0,1,1.58-2A8.033,8.033,0,0,1,398.05,388.83Z" fill="#455a64"/>
      <path id="Trazado_25985" data-name="Trazado 25985" d="M357.08,229.6s-.15.23-.47.65l-1.42,1.86-5.47,7L329.9,264.42v.07h-.09l-47.62,7,.22-.29c.47,2.9,1,6,1.48,9.1.37,2.32.75,4.63,1.12,6.9l-.28-.22,50.43-3.13h0a27.41,27.41,0,0,0,8.69-3.61,28.7,28.7,0,0,0,6.44-5.53l9.1-10.48,5.85-6.7,1.55-1.75c.35-.39.55-.58.55-.58s-.16.22-.5.63l-1.5,1.79-5.76,6.77c-2.51,2.92-5.54,6.47-9,10.55a28.64,28.64,0,0,1-15.32,9.33h0l-50.42,3.22h-.24v-.24c-.37-2.27-.74-4.58-1.12-6.9-.5-3.12-1-6.2-1.48-9.1v-.26h.26l47.64-6.94-.14.08,20-25.17,5.56-7,1.47-1.82A1.614,1.614,0,0,1,357.08,229.6Z" fill="#263238"/>
      <path id="Trazado_25986" data-name="Trazado 25986" d="M363,283.39a5.319,5.319,0,0,1-.59,1.05,25.484,25.484,0,0,1-1.88,2.67,46,46,0,0,1-16.68,13.43,31.4,31.4,0,0,1-3,1.27,5.872,5.872,0,0,1-1.14.36c0-.09,1.55-.71,4-2a51.609,51.609,0,0,0,16.56-13.33C362,284.76,362.89,283.34,363,283.39Z" fill="#263238"/>
      <path id="Trazado_25987" data-name="Trazado 25987" d="M367.34,290.47c.07.12-4.17,2.66-9.46,5.67s-9.65,5.35-9.72,5.23,4.16-2.67,9.46-5.68S367.27,290.34,367.34,290.47Z" fill="#263238"/>
      <path id="Trazado_25988" data-name="Trazado 25988" d="M319.8,262.42a5,5,0,0,1-.34-1c-.22-.77-.49-1.69-.81-2.78-.69-2.47-1.58-5.66-2.57-9.18s-1.86-6.84-2.47-9.21l-.69-2.8a4.919,4.919,0,0,1-.19-1,3.74,3.74,0,0,1,.38,1c.22.65.51,1.59.86,2.76.69,2.34,1.62,5.58,2.61,9.18s1.84,6.85,2.43,9.22a20.88,20.88,0,0,1,.79,3.81Z" fill="#263238"/>
      <g id="Grupo_929" data-name="Grupo 929" opacity="0.3">
        <path id="Trazado_25989" data-name="Trazado 25989" d="M344.37,305.29c4.69-.49,9.47-.61,13.84-2.38s8.4-4.88,10.27-9.21a154,154,0,0,1-24.11,11.59Z"/>
      </g>
      <path id="Trazado_25990" data-name="Trazado 25990" d="M261.42,291.86c-.1.11-1,1-1.8,1.76a7.43,7.43,0,0,0-2,3.3c-.39,1.41-.64,2.51-.7,2.6L255,305.71l7.2,5.28,1.15-5.21a17.169,17.169,0,0,0,4.59-2.72c1.59-1.53,2.31-2.22,2.72-3.54a1.75,1.75,0,0,0-.2-1.48s-.09-2.84-1.12-2.93a3.84,3.84,0,0,0,.2-2.28c-.66-1.43-2.65-1.32-2.65-1.32a.67.67,0,0,0-.07-1.12,1,1,0,0,0-1.31.23l-4,3.57Z" fill="#ffbe9d"/>
      <path id="Trazado_25991" data-name="Trazado 25991" d="M203.77,309.86a11.14,11.14,0,0,0,2.08,14.36c9.49,8.28,35.2,22.68,39.06,22,5.57-.93,20.15-33.38,20.15-33.38l-10.85-8.94-13.56,22s-11.2-10.57-20-17.5c-5.32-4.21-13.28-4.3-16.93,1.43Z" fill="#344d84"/>
      <path id="Trazado_25992" data-name="Trazado 25992" d="M220.17,308a3.069,3.069,0,0,1,.39.3l1.08.91,4.13,3.55,15,13-.3.05,13.52-22,.15-.24.22.18,10.85,8.93.15.13-.08.18c-1.15,2.54-2.41,5.21-3.72,7.9-2.29,4.71-4.63,9.27-7.07,13.57-1.23,2.15-2.48,4.23-3.81,6.21a28.5,28.5,0,0,1-2.1,2.86,12.4,12.4,0,0,1-2.5,2.46,2.64,2.64,0,0,1-1.73.51,8.218,8.218,0,0,1-1.68-.37c-1.07-.33-2.09-.74-3.08-1.15-2-.86-3.86-1.77-5.66-2.69-3.6-1.84-6.88-3.7-9.84-5.44-5.91-3.5-10.53-6.6-13.62-8.88-1.54-1.14-2.71-2.07-3.48-2.72-.39-.32-.68-.59-.87-.76a2.29,2.29,0,0,1-.28-.27,1.833,1.833,0,0,1,.32.23l.89.72c.79.62,2,1.52,3.54,2.64,3.12,2.22,7.76,5.27,13.69,8.72,3,1.72,6.25,3.55,9.84,5.37,1.8.91,3.68,1.82,5.65,2.65,1,.41,2,.81,3,1.13a8,8,0,0,0,1.58.35,2.2,2.2,0,0,0,1.43-.44,12.14,12.14,0,0,0,2.38-2.37c.73-.89,1.4-1.85,2.07-2.82,1.31-2,2.56-4,3.78-6.19,2.43-4.29,4.75-8.84,7-13.54,1.31-2.69,2.57-5.36,3.72-7.89l.07.3-10.83-8.94.36-.06-13.6,22-.13.2-.18-.16-14.89-13.17-4.05-3.63a7.714,7.714,0,0,1-1-1,2.578,2.578,0,0,1-.31-.32Z" fill="#263238"/>
      <path id="Trazado_25993" data-name="Trazado 25993" d="M207.59,131.92a3.669,3.669,0,0,1-.47,1,6.35,6.35,0,0,0,.17,6.64l2.28,3.48.27,5.36,11.62,2.78-.54-9.44s1.92-4,1.94-6.68-.69-5.55-1.58-5.67l-1.15-.16a4,4,0,0,0-2.31-1.84s-.7-3.48-1.9-3.78a2.648,2.648,0,0,0-2.27.93s-1.49-2.84-2.75-2.65a3,3,0,0,0-2.58,3l-.77,7.36Z" fill="#ffd6bd"/>
      <path id="Trazado_25994" data-name="Trazado 25994" d="M180.48,21.82a2.95,2.95,0,1,0-5.631,1.76L315,470l6.13.25Z" fill="#e0e0e0"/>
      <path id="Trazado_25995" data-name="Trazado 25995" d="M184.1,27.73s-37.24,25.39-66,27.68S56.65,59.9,39.51,79.14c0,0,63.31,9.93,66.87,18.35,0,0-37.84,30.06-43.57,47.31,0,0,27.22-9.64,32.84-12,18.66-7.91,54.94-4.39,68.76-9.37,15.3-5.53,29.79-21.06,42.39-23.47Z" fill="#344d84"/>
      <path id="Trazado_25996" data-name="Trazado 25996" d="M141,60.12l11.77,11.83,16.42-2.98-7.62,14.85,7.91,14.69-16.47-2.65-11.54,12.06-2.56-16.49-15.04-7.24,14.89-7.53Z" fill="#fff" opacity="0.3"/>
      <path id="Trazado_25997" data-name="Trazado 25997" d="M172.66,53.67a4.442,4.442,0,0,1-.22.68l-.73,1.92c-.31.83-.72,1.85-1.24,3s-1.07,2.49-1.8,3.9-1.47,3-2.4,4.63-1.92,3.36-3,5.17a120.84,120.84,0,0,1-8,11.15A117.419,117.419,0,0,1,146,94.19c-1.55,1.43-3,2.81-4.44,4s-2.78,2.31-4,3.29-2.43,1.81-3.46,2.55-1.93,1.35-2.68,1.83l-1.73,1.1a4.5,4.5,0,0,1-.62.36,2.929,2.929,0,0,1,.56-.44l1.68-1.19c.73-.5,1.62-1.12,2.62-1.89s2.18-1.59,3.4-2.61,2.59-2.08,4-3.33,2.87-2.59,4.4-4a123.328,123.328,0,0,0,9.22-10.06,123.633,123.633,0,0,0,8-11.08c1.1-1.79,2.16-3.48,3.05-5.12s1.72-3.16,2.44-4.58,1.32-2.72,1.86-3.86,1-2.14,1.32-3l.82-1.88a3.709,3.709,0,0,1,.22-.61Z" fill="#263238"/>
      <path id="Trazado_25998" data-name="Trazado 25998" d="M193.75,92.36a2,2,0,0,1-.22-.55L193,90.23c-.46-1.46-1.09-3.45-1.87-5.88-1.55-5-3.66-11.84-5.94-19.44S180.9,50.4,179.5,45.38c-.7-2.5-1.24-4.54-1.59-6-.17-.71-.29-1.26-.35-1.64a2.339,2.339,0,0,1-.06-.44s0-.13.06-.1c-.08-.1,0,.1.08.47l.45,1.61,1.74,5.91c1.52,5,3.57,11.9,5.84,19.48l5.79,19.49c.71,2.44,1.29,4.45,1.72,5.92.18.65.32,1.19.44,1.61a3.9,3.9,0,0,1,.13.67Z" fill="#263238"/>
      <g id="Grupo_930" data-name="Grupo 930" opacity="0.3">
        <path id="Trazado_25999" data-name="Trazado 25999" d="M180.71,47.19c.42,9.15.85,18.35,2.9,27.28s5.81,17.64,12.14,24.26q-8.58-25.45-15.06-51.56"/>
      </g>
      <path id="Trazado_26000" data-name="Trazado 26000" d="M257.34,266.74h7.43a5.11,5.11,0,0,1,3.41,1.3l5.66,5.09,8.26-.94,2.3,13.65-11.4-.43a36,36,0,0,1-7.94,1.37c-3,0-6.26-.92-6.37-1.92s-.15-1.31-.15-1.31a4.52,4.52,0,0,1-2-2.65s-3.92-.88-4.23-2.25,1.11-2.54,1.11-2.54-3.15-1.74-2.93-3.17a3.48,3.48,0,0,1,1.61-2.2l6.19-.83Z" fill="#c78976"/>
      <path id="Trazado_26001" data-name="Trazado 26001" d="M239.05,261.24A14.13,14.13,0,0,1,241,274.16c-.74,2.08-2,4.34-1,6.33s3.62,2.65,4.48,4.66c1,2.35-1.06,4.89-1.16,7.46a5.07,5.07,0,0,0,4.22,5.05,19.79,19.79,0,0,1-10.6,1.55l-1.73-4.13a3.65,3.65,0,0,1-1.41,4.25,8.34,8.34,0,0,1-4.6,1.28,25.19,25.19,0,0,1-20.35-9.24" fill="#263238"/>
      <path id="Trazado_26002" data-name="Trazado 26002" d="M194.13,269.16a51.437,51.437,0,0,0,3.08-4.32c1.74-3.39,1.09-7.91,3.71-10.67,1.86-2,4.81-2.37,7.52-2.46s5.57,0,7.93-1.35c1.73-1,3-2.61,4.74-3.59,2.46-1.4,5.5-1.27,8.28-.7a16.92,16.92,0,0,1,7.85,3.56,9.3,9.3,0,0,1,3.35,7.7,27.488,27.488,0,0,0-.63,4.2c.08,1.56.9,3,1.23,4.5a7.46,7.46,0,0,1-4.14,8.14l-26,19.62c-4.45.43-13.74-4.08-16.05-7.91S191.67,272.9,194.13,269.16Z" fill="#263238"/>
      <path id="Trazado_26003" data-name="Trazado 26003" d="M237.4,270.87c.74-5.85-1.74-13.68-7.62-14.17l-18.87,1.12a3.45,3.45,0,0,0-3.69,2.86l-6.35,43.77h-.12s1.73,13,14.35,11.58c2.5-.29,3.33.77,4.31-1.79h0l.06-.31c.77-3.24,2.21-9.93,2.21-9.93h0c.7-3.5,1-4.94,1-4.9s7.63.18,11-9.17C235.32,285.29,236.58,277.38,237.4,270.87Z" fill="#ffbe9d"/>
      <path id="Trazado_26004" data-name="Trazado 26004" d="M221.34,276.68a1.26,1.26,0,0,1-1.43,1,1.2,1.2,0,0,1-1.06-1.36,1.26,1.26,0,0,1,1.43-1,1.2,1.2,0,0,1,1.06,1.36Z" fill="#263238"/>
      <path id="Trazado_26005" data-name="Trazado 26005" d="M234,278.57a1.27,1.27,0,0,1-1.43,1,1.21,1.21,0,0,1-1.07-1.36,1.27,1.27,0,0,1,1.43-1,1.21,1.21,0,0,1,1.07,1.36Z" fill="#263238"/>
      <path id="Trazado_26006" data-name="Trazado 26006" d="M235.39,274.9c-.19.18-1.13-.83-2.6-1s-2.63.54-2.77.31.15-.45.66-.79A3.33,3.33,0,0,1,235,274C235.37,274.42,235.48,274.82,235.39,274.9Z" fill="#263238"/>
      <path id="Trazado_26007" data-name="Trazado 26007" d="M221.88,272.86c-.22.15-1.11-.95-2.65-1.3s-2.84.22-3,0,.2-.43.77-.7a3.85,3.85,0,0,1,2.43-.23,3.71,3.71,0,0,1,2.05,1.28C221.91,272.39,222,272.79,221.88,272.86Z" fill="#263238"/>
      <path id="Trazado_26008" data-name="Trazado 26008" d="M224.73,283.18a9.648,9.648,0,0,1,2.24,0c.35,0,.68,0,.78-.19a1.72,1.72,0,0,0,0-1.05c-.16-.89-.33-1.81-.51-2.78a44.457,44.457,0,0,1-1-7.2,44.889,44.889,0,0,1,1.54,7.1c.17,1,.32,1.9.47,2.79a2,2,0,0,1-.08,1.37.89.89,0,0,1-.65.39,2.7,2.7,0,0,1-.59,0,8.92,8.92,0,0,1-2.2-.43Z" fill="#263238"/>
      <path id="Trazado_26009" data-name="Trazado 26009" d="M222.65,299.11a25,25,0,0,1-12.26-5.91s1.88,7.22,11.7,8.16Z" fill="#eb996e"/>
      <path id="Trazado_26010" data-name="Trazado 26010" d="M223.56,286.28a2.45,2.45,0,0,0-2-1.3,2.21,2.21,0,0,0-1.67.53,1.39,1.39,0,0,0-.4,1.56,1.64,1.64,0,0,0,1.66.78,5.1,5.1,0,0,0,1.89-.7,1.361,1.361,0,0,0,.46-.32.44.44,0,0,0,.09-.49" fill="#344d84"/>
      <path id="Trazado_26011" data-name="Trazado 26011" d="M220.64,283.36c.22,0,0,1.47,1,2.73s2.61,1.4,2.58,1.6-.39.22-1.05.11a3.68,3.68,0,0,1-2.17-1.25,3.2,3.2,0,0,1-.73-2.28C220.32,283.66,220.55,283.33,220.64,283.36Z" fill="#263238"/>
      <path id="Trazado_26012" data-name="Trazado 26012" d="M223,268.38c-.2.34-1.49-.09-3.09-.2s-2.94.08-3.09-.29c-.06-.17.22-.47.8-.72a5.38,5.38,0,0,1,4.71.37C222.82,267.88,223.05,268.22,223,268.38Z" fill="#263238"/>
      <path id="Trazado_26013" data-name="Trazado 26013" d="M235.15,270.69c-.32.25-1.31-.26-2.57-.52s-2.36-.24-2.55-.6c-.08-.17.15-.44.67-.64a4.24,4.24,0,0,1,4.13.9C235.21,270.23,235.3,270.57,235.15,270.69Z" fill="#263238"/>
      <path id="Trazado_26014" data-name="Trazado 26014" d="M206.72,258.14a8,8,0,0,1,4.64-1.54,90.209,90.209,0,0,1,21.41.33c.47,1.64-.84,3.34-2.4,4a16.29,16.29,0,0,1-5,.79c-1.69.16-3.51.62-4.56,2s-1.06,3.49-2.1,5c-1.78,2.55-6,2.39-7.75,5-1.34,1.93-.72,4.55-1,6.89a8.43,8.43,0,0,1-10.5,7.09q2.61-12.37,5.21-24.74C205,261.15,205.41,259.31,206.72,258.14Z" fill="#263238"/>
      <path id="Trazado_26015" data-name="Trazado 26015" d="M184.79,274.21c1.6-.8,3.47-1.35,4.43-2.86,1.4-2.19.24-5.53,2.07-7.38,1.67-1.68,5-.67,6.57-2.42,1.25-1.37.69-3,1.38-4.34a3.94,3.94,0,0,1,4.37-1.44l6.73,19.08c-.43,5.67-.17,8.82-2.19,11.66a26.571,26.571,0,0,0-3.13,4.78,5.41,5.41,0,0,0,.36,5.44c-6.77-1.28-12-6.44-16.88-11.35l-5.11-5.2a4.61,4.61,0,0,1-1.29-1.84C181.61,276.62,183.2,275,184.79,274.21Z" fill="#263238"/>
      <path id="Trazado_26016" data-name="Trazado 26016" d="M188.78,283.71a3.38,3.38,0,0,0,.67.33,6.29,6.29,0,0,0,2.11.41,6.61,6.61,0,0,0,6.72-6.73,11.131,11.131,0,0,0-.56-2.8,9.771,9.771,0,0,1-.58-2.9,3.4,3.4,0,0,1,1.12-2.71c.82-.65,2-.54,3.15-.68a2.77,2.77,0,0,0,2.62-2.28,19.582,19.582,0,0,0,.19-3.66,3.89,3.89,0,0,1,.44-1.69,2.44,2.44,0,0,1,1.33-1.09,6.84,6.84,0,0,1,3.59,0,7.55,7.55,0,0,0,3.69-.08,6.67,6.67,0,0,0,3-1.9A11.341,11.341,0,0,0,218,255a15.149,15.149,0,0,1,1.45-2.81,7,7,0,0,1,2.2-1.93,7.73,7.73,0,0,1,9,1.14,9.54,9.54,0,0,1,2,2.64,12.571,12.571,0,0,1,1,2.69,1.42,1.42,0,0,0,0-.19,1.325,1.325,0,0,0-.1-.55,8.65,8.65,0,0,0-.71-2,9.37,9.37,0,0,0-2-2.73,8.16,8.16,0,0,0-4-2.09,8.26,8.26,0,0,0-5.36.82,7.15,7.15,0,0,0-2.32,2,16.241,16.241,0,0,0-1.51,2.86,10.83,10.83,0,0,1-1.67,2.84,6.27,6.27,0,0,1-2.86,1.78,6.94,6.94,0,0,1-3.51.06,7.21,7.21,0,0,0-3.8,0,2.84,2.84,0,0,0-1.53,1.26,4.18,4.18,0,0,0-.5,1.87,19.921,19.921,0,0,1-.17,3.59,2.4,2.4,0,0,1-2.29,2c-.56.08-1.13.08-1.7.15a3.351,3.351,0,0,0-1.62.6,3.74,3.74,0,0,0-1.24,3,10.319,10.319,0,0,0,.61,3,10.942,10.942,0,0,1,.57,2.71,6.4,6.4,0,0,1-.43,2.49,6.31,6.31,0,0,1-2.79,3.27,6.57,6.57,0,0,1-3.19.81,7.369,7.369,0,0,1-2.75-.57Z" fill="#455a64"/>
      <path id="Trazado_26017" data-name="Trazado 26017" d="M183,269.88a1.481,1.481,0,0,0-.37.49,2.46,2.46,0,0,0-.16,1.72,2.54,2.54,0,0,0,1.92,1.88,3.42,3.42,0,0,0,3.4-1.05,4.54,4.54,0,0,0,1-1.9,6.36,6.36,0,0,0,.13-2.31c-.13-1.58-.71-3.24-.28-4.92a3.21,3.21,0,0,1,1.39-2.07,3.47,3.47,0,0,1,2.62-.1,8.27,8.27,0,0,0,2.95.48,2.59,2.59,0,0,0,1.45-.67,3.68,3.68,0,0,0,.88-1.33,12.22,12.22,0,0,0,.56-3,6.75,6.75,0,0,1,.9-2.69,7.13,7.13,0,0,1,4.18-3.21,10,10,0,0,1,4.88.2,14.15,14.15,0,0,0,4.38.48,9.2,9.2,0,0,0,3.48-1.07,8.79,8.79,0,0,0,2.19-1.65,6.49,6.49,0,0,0,1.36-1.89,12.131,12.131,0,0,1-1.47,1.78,8.9,8.9,0,0,1-2.19,1.56,8.71,8.71,0,0,1-3.39,1,13.85,13.85,0,0,1-4.29-.52,10.51,10.51,0,0,0-5.05-.23,7.51,7.51,0,0,0-4.42,3.37,7.08,7.08,0,0,0-1,2.84,12.261,12.261,0,0,1-.54,2.92,2.59,2.59,0,0,1-2,1.76,8.41,8.41,0,0,1-2.81-.47,3.84,3.84,0,0,0-2.9.15,3.52,3.52,0,0,0-1.55,2.31,6.73,6.73,0,0,0-.07,2.64c.12.83.29,1.63.37,2.4a6.18,6.18,0,0,1-.09,2.2,4.39,4.39,0,0,1-.94,1.79,3.2,3.2,0,0,1-3.14,1,2.59,2.59,0,0,1-1.23-.68,2.53,2.53,0,0,1-.51-2.68,5.342,5.342,0,0,1,.36-.53Z" fill="#263238"/>
      <path id="Trazado_26018" data-name="Trazado 26018" d="M251.84,292.81a2.78,2.78,0,0,1-.49,1.73,2.42,2.42,0,0,1-1.76,1,2.48,2.48,0,0,1-2.25-1.33,2.23,2.23,0,0,1-.2-1.54,4.87,4.87,0,0,1,.71-1.61c.66-1,1.71-2.05,2-3.54a5.58,5.58,0,0,0-1-4.38,6.489,6.489,0,0,0-1.77-1.65,9.5,9.5,0,0,0-2.27-1,12.608,12.608,0,0,1-2.23-.87,3.13,3.13,0,0,1-1.48-1.59,4,4,0,0,1-.12-2.14,7.529,7.529,0,0,1,.73-2,16.429,16.429,0,0,0,1.65-3.72,6.13,6.13,0,0,0-.31-3.54,7.94,7.94,0,0,0-1.67-2.42,13.738,13.738,0,0,1-1.4-1.66,4.84,4.84,0,0,1-.71-1.69s0,0,0,.12a2,2,0,0,0,0,.37,3.82,3.82,0,0,0,.54,1.29,13.271,13.271,0,0,0,1.37,1.72,7.87,7.87,0,0,1,1.56,2.37,5.76,5.76,0,0,1,.25,3.37,15.6,15.6,0,0,1-1.65,3.62,8,8,0,0,0-.77,2.09,4.29,4.29,0,0,0,.12,2.35,3.51,3.51,0,0,0,1.66,1.8,12.809,12.809,0,0,0,2.29.9,9.069,9.069,0,0,1,2.18.93,6,6,0,0,1,1.67,1.55,5.14,5.14,0,0,1,.93,4.07c-.24,1.37-1.22,2.36-1.91,3.44a5.119,5.119,0,0,0-.73,1.73,2.52,2.52,0,0,0,.25,1.74,2.69,2.69,0,0,0,2.51,1.41,2.47,2.47,0,0,0,1.87-1.16,2.39,2.39,0,0,0,.43-1.33,1.5,1.5,0,0,0,0-.43Z" fill="#263238"/>
      <path id="Trazado_26019" data-name="Trazado 26019" d="M121.8,440.41l19.46-4.13,3.24,16-14.3.32.14,12.9c6.42,1.81,7.32,5.06,7.32,5.06l-13.42-.31L112.56,446.5Z" fill="#344d84"/>
      <g id="Grupo_931" data-name="Grupo 931" opacity="0.6">
        <path id="Trazado_26020" data-name="Trazado 26020" d="M112.56,446.46l11.68,23.75,13.42.31-1.46-2.05-10.91-.85-10.77-22.45Z" fill="#fff"/>
      </g>
      <path id="Trazado_26021" data-name="Trazado 26021" d="M130.39,459.55c-.1.14-.87-.32-1.91-.31s-1.81.42-1.91.28.65-.89,1.92-.87S130.51,459.45,130.39,459.55Z" fill="#263238"/>
      <path id="Trazado_26022" data-name="Trazado 26022" d="M130.24,456.35c-.13.09-.71-.71-1.78-1s-1.93.24-2,.1.12-.28.5-.48a2.47,2.47,0,0,1,1.65-.19,2.5,2.5,0,0,1,1.41.87C130.26,456,130.31,456.31,130.24,456.35Z" fill="#263238"/>
      <path id="Trazado_26023" data-name="Trazado 26023" d="M130.42,452.24c-.15.08-.59-.71-1.51-1.06s-1.78-.05-1.84-.2.14-.26.51-.39a2.33,2.33,0,0,1,2.71,1C130.48,452,130.49,452.22,130.42,452.24Z" fill="#263238"/>
      <path id="Trazado_26024" data-name="Trazado 26024" d="M131.41,452.24c-.16,0-.06-.89-.47-1.8s-1.05-1.43-1-1.58,1,.23,1.52,1.35S131.55,452.31,131.41,452.24Z" fill="#263238"/>
      <path id="Trazado_26025" data-name="Trazado 26025" d="M133,450.72a5.6,5.6,0,0,1-.32-1.8c-.06-.64-.12-1.3-.18-2a4.4,4.4,0,0,1,0-1.26,1.11,1.11,0,0,1,.5-.66.83.83,0,0,1,.91,0,2.53,2.53,0,0,1,.77,1.19,4.54,4.54,0,0,1,.24,1.22,4.48,4.48,0,0,1-.35,2c-.48,1.09-1.16,1.49-1.18,1.44a16.579,16.579,0,0,0,.79-1.59,4.61,4.61,0,0,0,.2-1.84,4.081,4.081,0,0,0-.25-1.06,2.09,2.09,0,0,0-.55-.9.24.24,0,0,0-.28,0,.55.55,0,0,0-.22.31,4.219,4.219,0,0,0,0,1.07v2a5.83,5.83,0,0,1-.08,1.88Z" fill="#263238"/>
      <path id="Trazado_26026" data-name="Trazado 26026" d="M133.22,451.31c-.06,0,.34-.62,1.37-1a3.34,3.34,0,0,1,3.81,1.36.6.6,0,0,1-.06.52.68.68,0,0,1-.35.29,2,2,0,0,1-.63.12,5.93,5.93,0,0,1-2.87-.45c-1-.42-1.4-.91-1.36-1a14.5,14.5,0,0,1,1.51.57,6.839,6.839,0,0,0,1.67.3,6.633,6.633,0,0,0,1,0,1.7,1.7,0,0,0,.46-.09c.11-.07.08-.05.08-.09a1.151,1.151,0,0,0-.27-.32,2.312,2.312,0,0,0-.39-.31,3.111,3.111,0,0,0-.86-.42,3.26,3.26,0,0,0-1.62-.09A13.632,13.632,0,0,0,133.22,451.31Z" fill="#263238"/>
      <g id="Grupo_932" data-name="Grupo 932" opacity="0.6">
        <path id="Trazado_26027" data-name="Trazado 26027" d="M123.28,446.29a1.6,1.6,0,1,1-1.56-1.62,1.6,1.6,0,0,1,1.56,1.62Z" fill="#fff"/>
      </g>
      <path id="Trazado_26028" data-name="Trazado 26028" d="M269.49,442.16l-.19,17.58s18.72,7,19,10.21h-35l-.84-27.4Z" fill="#344d84"/>
      <g id="Grupo_933" data-name="Grupo 933" opacity="0.6">
        <path id="Trazado_26029" data-name="Trazado 26029" d="M258.72,458.53a1.4,1.4,0,0,0-.92,1.61,1.33,1.33,0,0,0,1.59.93,1.46,1.46,0,0,0,1-1.71,1.38,1.38,0,0,0-1.76-.78" fill="#fff"/>
      </g>
      <g id="Grupo_934" data-name="Grupo 934" opacity="0.6">
        <path id="Trazado_26030" data-name="Trazado 26030" d="M253.3,470v-2.77l32.68.2s2.45,1.5,2.3,2.57Z" fill="#fff"/>
      </g>
      <path id="Trazado_26031" data-name="Trazado 26031" d="M269.85,459.55c0,.17-.83.26-1.64.82s-1.22,1.27-1.37,1.2.06-1,1.05-1.68S269.88,459.4,269.85,459.55Z" fill="#263238"/>
      <path id="Trazado_26032" data-name="Trazado 26032" d="M273.47,460.94c0,.16-.68.46-1.22,1.18s-.69,1.47-.86,1.46-.3-.94.4-1.82S273.46,460.78,273.47,460.94Z" fill="#263238"/>
      <path id="Trazado_26033" data-name="Trazado 26033" d="M275.61,465.17c-.15,0-.41-.79,0-1.71s1.17-1.31,1.24-1.17-.39.63-.71,1.4S275.77,465.15,275.61,465.17Z" fill="#263238"/>
      <path id="Trazado_26034" data-name="Trazado 26034" d="M269.45,455.54c-.07.15-.84-.06-1.78,0s-1.66.4-1.75.26.6-.75,1.71-.84S269.53,455.41,269.45,455.54Z" fill="#263238"/>
      <g id="Grupo_935" data-name="Grupo 935" opacity="0.3">
        <path id="Trazado_26035" data-name="Trazado 26035" d="M269.45,445.64l-.03,3.13-16.76.28-.1-2.82Z"/>
      </g>
      <path id="Trazado_26036" data-name="Trazado 26036" d="M269.42,452a3.2,3.2,0,0,1-1.71,0,7.551,7.551,0,0,1-1.8-.51,8.246,8.246,0,0,1-1-.49,2.1,2.1,0,0,1-.53-.39.73.73,0,0,1-.1-.88.91.91,0,0,1,.72-.4,2.161,2.161,0,0,1,.65.07,5.817,5.817,0,0,1,1.07.34,6.18,6.18,0,0,1,1.6,1c.81.71,1.09,1.33,1,1.36s-.47-.45-1.3-1a6.691,6.691,0,0,0-1.54-.82,6,6,0,0,0-1-.27c-.36-.09-.67-.08-.76.08s0,.09,0,.19a1.872,1.872,0,0,0,.39.28c.31.19.62.35.92.5a9.882,9.882,0,0,0,1.66.59A11.077,11.077,0,0,1,269.42,452Z" fill="#263238"/>
      <path id="Trazado_26037" data-name="Trazado 26037" d="M269.21,452.24a2.76,2.76,0,0,1-.49-1.64,5.39,5.39,0,0,1,.59-2.92,1.39,1.39,0,0,1,1.07-.89.78.78,0,0,1,.72.45,2.129,2.129,0,0,1,.19.63,3.721,3.721,0,0,1,0,1.15,4,4,0,0,1-.69,1.78c-.64.9-1.33,1.12-1.35,1.06a7.282,7.282,0,0,0,1-1.28,3.82,3.82,0,0,0,.5-1.62,3.332,3.332,0,0,0-.05-1c-.07-.36-.21-.65-.34-.6a1.352,1.352,0,0,0-.59.57,7.571,7.571,0,0,0-.4.94,6.329,6.329,0,0,0-.28,1.71C269.11,451.59,269.3,452.21,269.21,452.24Z" fill="#263238"/>
      <path id="Trazado_26038" data-name="Trazado 26038" d="M176.63,405c1.2,0,6.94,23.41,6.94,23.41l-53.08,7.91,3.37,21.17s62.67-4.19,67-5.17c7.64-1.74,13.42-9.13,13.17-18.83-.29-11.17-6.82-37.48-6.82-37.48Z" fill="#263238"/>
      <path id="Trazado_26039" data-name="Trazado 26039" d="M210,408.82l-30.8,2.23s2.56,5.32,11.23,5.94,21.32,0,21.32,0Z" opacity="0.3"/>
      <path id="Trazado_26040" data-name="Trazado 26040" d="M275.71,387.09a18.49,18.49,0,0,0-18.55-16.91h-9.44l-51,2.64L169,364.39s-9.63,17.21-4.09,31.59a26.32,26.32,0,0,0,20.34,16.68c11.53,2,64.34-9.15,64.34-9.15v47l24-.62L275.76,388C275.75,387.7,275.73,387.4,275.71,387.09Z" fill="#263238"/>
      <path id="Trazado_26041" data-name="Trazado 26041" d="M249.61,403.51l-.31.08-.93.19-3.58.67-13.17,2.37-19.54,3.46-11.55,2a49.891,49.891,0,0,1-12.59.71,36.913,36.913,0,0,1-6.34-1,26,26,0,0,1-5.86-2.16,22.77,22.77,0,0,1-8.46-8.11,28.8,28.8,0,0,1-3.89-9.89,30.19,30.19,0,0,1-.34-9.26,57.3,57.3,0,0,1,3.47-12.93c.59-1.47,1.12-2.58,1.5-3.32.2-.37.35-.65.46-.83s.17-.28.18-.27a1.859,1.859,0,0,1-.13.29c-.11.22-.24.5-.41.86-.35.75-.85,1.87-1.41,3.34a59.512,59.512,0,0,0-3.29,12.9,30,30,0,0,0,.39,9.13,28.42,28.42,0,0,0,3.88,9.72A22.3,22.3,0,0,0,176,409.4a25.8,25.8,0,0,0,5.75,2.11,36.8,36.8,0,0,0,6.26,1,50.44,50.44,0,0,0,12.47-.7l11.55-2,19.56-3.34,13.2-2.21,3.59-.58.94-.13a1.29,1.29,0,0,1,.29-.04Z" fill="#455a64"/>
      <path id="Trazado_26042" data-name="Trazado 26042" d="M186.69,453.83h-.26l-.76.07-3,.25-11,.83-37.82,2.69h-.23v-.22c-.87-5.45-1.8-11.27-2.76-17.26l-.62-3.91v-.26h.26l53.1-7.8h0a37.071,37.071,0,0,1,7.9,5.19c.83.72,1.43,1.32,1.82,1.73l.44.48c.09.11.14.17.13.17s-.06,0-.16-.14l-.47-.45a22.033,22.033,0,0,0-1.86-1.67,38.811,38.811,0,0,0-7.93-5h.09l-53.06,8,.22-.3.62,3.91c.95,6,1.87,11.81,2.74,17.26l-.27-.22,37.83-2.5,11-.68,3-.16h.76Z" fill="#455a64"/>
      <path id="Trazado_26043" data-name="Trazado 26043" d="M254.93,397.76a16.332,16.332,0,0,0-3.25,2.36,16,16,0,0,0-2.15,3.38,2.81,2.81,0,0,1,.21-1.21,7.39,7.39,0,0,1,4-4.24C254.44,397.76,254.91,397.7,254.93,397.76Z" fill="#455a64"/>
      <path id="Trazado_26044" data-name="Trazado 26044" d="M212.06,372.18a7.258,7.258,0,0,1-1.43.21c-.92.11-2.25.21-3.9.3-3.3.19-7.87.28-12.91.33s-9.6.13-12.89.32c-1.65.08-3,.18-3.9.26a9,9,0,0,1-1.43.08,6.553,6.553,0,0,1,1.41-.28c.92-.14,2.25-.3,3.9-.43,3.29-.28,7.86-.41,12.91-.47s9.59-.08,12.89-.18l3.91-.13a8.432,8.432,0,0,1,1.44-.01Z" fill="#455a64"/>
      <path id="Trazado_26045" data-name="Trazado 26045" d="M201.85,297.75l-.53.63A19.43,19.43,0,0,0,186.6,312.2c-1.94,6.86-2.54,19.54-6.51,36.73,0,0-9.75,8.82-11.57,15.46l28.17,8.49,15.37-.86L218,353.58c5.75,0,8.2-2.88,10.27-7.6,2.75-6.28-6.32-35.09-6.32-35.09l.65,4.92Z" fill="#344d84"/>
      <path id="Trazado_26046" data-name="Trazado 26046" d="M226,322.05,232.87,336l-4.21.64S226.06,323.09,226,322.05Z" opacity="0.3"/>
      <path id="Trazado_26047" data-name="Trazado 26047" d="M220.77,353.58c0-.05.49-.16,1.32-.53a9.86,9.86,0,0,0,3.1-2.23,12.8,12.8,0,0,0,2.83-4.89,18.34,18.34,0,0,0,.65-6.93,49.529,49.529,0,0,0-1.15-7c-.47-2.12-.9-4.05-1.17-5.68a30.4,30.4,0,0,1-.4-3.9A5.779,5.779,0,0,1,226,321a11.438,11.438,0,0,1,.15,1.42,36.341,36.341,0,0,0,.57,3.85c.31,1.62.77,3.52,1.27,5.65a45.14,45.14,0,0,1,1.2,7,18.58,18.58,0,0,1-.71,7.12,12.82,12.82,0,0,1-3,5,9.42,9.42,0,0,1-3.29,2.17,6.079,6.079,0,0,1-1,.29C220.9,353.58,220.77,353.6,220.77,353.58Z" fill="#263238"/>
      <path id="Trazado_26048" data-name="Trazado 26048" d="M188.11,324.35s9.52,32.82,15.74,37.82a8.57,8.57,0,0,0,11.54-.09l1.15-5.65Z" opacity="0.3"/>
      <path id="Trazado_26049" data-name="Trazado 26049" d="M278,321.73c-1.09-1-1.72-.62-1.72-.62s.58-2.66-.81-3.59c-.42-.29-.66-.44-.78-.51-.14-.35-1-2.26-2.43-2.58,0,0-.19-2.5-1.24-2.73-2-.44-2.83,1.69-2.83,1.69l-3.59,6.86-1.71,7-29.4,13.65,3.14,13.48,33-17,5.88-5.64S279.08,322.7,278,321.73Z" fill="#ffbe9d"/>
      <path id="Trazado_26050" data-name="Trazado 26050" d="M190.29,314.46c0,1.05,16.59,44.35,24.44,47.37C217.72,363,263,346,263,346l-5.51-16.69s-31.66,10.64-32.72,10.6-10.95-27.43-10.95-27.43-6.21-13-15.54-8.95C192.3,306.14,190.29,314.46,190.29,314.46Z" fill="#344d84"/>
      <path id="Trazado_26051" data-name="Trazado 26051" d="M224.76,339.93l.59-.22,1.72-.59,6.59-2.2,23.75-7.79.21-.07.07.2c1.67,5.06,3.54,10.69,5.53,16.68l.07.22-.22.09c-7.1,2.73-14.88,5.66-23,8.56-5,1.77-9.87,3.45-14.63,4.93-2.39.72-4.73,1.44-7.09,2a15.322,15.322,0,0,1-1.77.33l-.9.13a2.63,2.63,0,0,1-1-.08,7.31,7.31,0,0,1-2.87-2.11,36.769,36.769,0,0,1-3.92-5.47c-1.12-1.87-2.13-3.72-3.07-5.53-1.88-3.62-3.48-7.07-4.89-10.23-2.82-6.33-4.89-11.54-6.29-15.15-.7-1.81-1.23-3.22-1.57-4.18-.17-.46-.3-.82-.39-1.09a3.775,3.775,0,0,1-.12-.38,1.929,1.929,0,0,1,.17.36l.43,1.08,1.67,4.13c1.46,3.59,3.58,8.78,6.44,15.08,1.43,3.15,3,6.58,4.93,10.18.94,1.8,2,3.64,3.08,5.49a36.572,36.572,0,0,0,3.88,5.38,6.88,6.88,0,0,0,2.66,2,4,4,0,0,0,1.65-.06,13.214,13.214,0,0,0,1.73-.34c2.33-.51,4.67-1.24,7-2,4.75-1.48,9.62-3.17,14.6-4.93,8.15-2.9,15.93-5.81,23-8.53l-.15.3c-2-6-3.81-11.63-5.48-16.69l.28.14-23.81,7.62-6.63,2.08-1.74.53A3.759,3.759,0,0,1,224.76,339.93Z" fill="#263238"/>
      <path id="Trazado_26052" data-name="Trazado 26052" d="M200.89,303.17a1.429,1.429,0,0,1,.46-.06,11.076,11.076,0,0,1,1.33,0,10.09,10.09,0,0,1,4.69,1.36,10.79,10.79,0,0,1,2.58,2.22,25.691,25.691,0,0,1,2.36,3.08,55.48,55.48,0,0,1,4,7.9c2.5,5.76,4.32,11.15,5.6,15,.64,2,1.13,3.54,1.46,4.64a10.7,10.7,0,0,1,.46,1.72,13.088,13.088,0,0,1-.65-1.66l-1.62-4.58c-1.37-3.87-3.24-9.23-5.73-15a57.271,57.271,0,0,0-4-7.84,26.167,26.167,0,0,0-2.28-3.06,9.817,9.817,0,0,0-6.96-3.67A14.755,14.755,0,0,1,200.89,303.17Z" fill="#263238"/>
      <path id="Trazado_26053" data-name="Trazado 26053" d="M272.25,314.52c.13.07-.24,1-.82,2s-1.16,1.79-1.28,1.72a4.55,4.55,0,0,1,.82-2C271.55,315.24,272.13,314.45,272.25,314.52Z" fill="#eb996e"/>
      <path id="Trazado_26054" data-name="Trazado 26054" d="M274.29,316.92c.12.08-.31.87-.87,1.82s-1,1.71-1.17,1.65.15-.94.72-1.91S274.18,316.83,274.29,316.92Z" fill="#eb996e"/>
      <path id="Trazado_26055" data-name="Trazado 26055" d="M276.28,321.09c.13.06,0,.68-.38,1.39s-.72,1.22-.85,1.15.05-.68.39-1.38S276.16,321,276.28,321.09Z" fill="#eb996e"/>
      <path id="Trazado_26056" data-name="Trazado 26056" d="M224.83,339.5c.13.09-.85,1.6-1.57,3.67s-.93,3.85-1.09,3.84a8.1,8.1,0,0,1,.6-4A8,8,0,0,1,224.83,339.5Z" fill="#263238"/>
      <path id="Trazado_26057" data-name="Trazado 26057" d="M234,188.62l-7.88-3.19a3,3,0,0,0,.81,3.89,19.619,19.619,0,0,0,4.68,3.07s.9,4,2.92,6,6.58-1.18,6.58-1.18S241.07,191.27,234,188.62Z" fill="#c78976"/>
      <path id="Trazado_26058" data-name="Trazado 26058" d="M245.79,214.25c-.94-1.32-1.88-.53-1.88-.53s1.12-2.8-.23-4.07c-.41-.39-.64-.6-.76-.7-.1-.41-.69-2.65-2.2-3.27,0,0,0-2.63-1.12-3.06-1.77-.67-3.75,1.35-3.75,1.35l-4.56,6.71-6.78,11.25,3.78,12,10.76-6.69,2.14-2.08S246.89,215.79,245.79,214.25Z" fill="#ffd6bd"/>
      <path id="Trazado_26059" data-name="Trazado 26059" d="M240.81,205.57c.12.08-.21.84-.74,1.7s-1.06,1.5-1.19,1.42.21-.83.75-1.69S240.69,205.49,240.81,205.57Z" fill="#ffb394"/>
      <path id="Trazado_26060" data-name="Trazado 26060" d="M242.9,208.66a4.21,4.21,0,0,1-1,2.61c-.9,1.3-2,1.95-2.1,1.83s.84-.91,1.67-2.13A25.328,25.328,0,0,1,242.9,208.66Z" fill="#ffb394"/>
      <path id="Trazado_26061" data-name="Trazado 26061" d="M243.86,213.28c.12.06-.1.84-.71,1.62s-1.31,1.18-1.39,1.07.42-.67,1-1.39S243.72,213.22,243.86,213.28Z" fill="#ffb394"/>
      <path id="Trazado_26062" data-name="Trazado 26062" d="M223.27,199.07a12.8,12.8,0,0,0,4.78,3.55,4,4,0,0,0,2.37.4,1.74,1.74,0,0,0,1.43-1.71,2.57,2.57,0,0,0-.95-1.48l-3.57-3.44a7.36,7.36,0,0,0,1.42,1.72,2.55,2.55,0,0,0,2.08.63,1.59,1.59,0,0,0,1.28-1.6,2.63,2.63,0,0,0-.64-1.21l-4.65-5.9" fill="#c78976"/>
      <path id="Trazado_26063" data-name="Trazado 26063" d="M231.82,201.7a.668.668,0,0,1-.06.45,2.08,2.08,0,0,1-.87.89,3.7,3.7,0,0,1-1.78.49,4.36,4.36,0,0,1-2.15-.65,8.9,8.9,0,0,1-3.8-4,21.341,21.341,0,0,0,4.06,3.56,4.17,4.17,0,0,0,1.9.62,3.63,3.63,0,0,0,1.59-.33,2.42,2.42,0,0,0,1.11-1.03Z" fill="#8b5d54"/>
      <path id="Trazado_26064" data-name="Trazado 26064" d="M232,197.74a.869.869,0,0,1-.16.42,1.65,1.65,0,0,1-1,.68,5,5,0,0,1-3.81-1.07,9,9,0,0,1-2.36-3.16,4.49,4.49,0,0,1-.58-1.51,6.463,6.463,0,0,1,.9,1.34,11.169,11.169,0,0,0,2.35,2.92,5.2,5.2,0,0,0,3.43,1.11A2.074,2.074,0,0,0,232,197.74Z" fill="#8b5d54"/>
      <path id="Trazado_26065" data-name="Trazado 26065" d="M230.67,203a.728.728,0,0,1,.45.24,2,2,0,0,1,.61,1.26,2.06,2.06,0,0,1-.95,1.85,2.84,2.84,0,0,1-2.53.06,8.68,8.68,0,0,1-3.61-2.55,3.84,3.84,0,0,1-.94-1.57c.07,0,.44.54,1.21,1.32a9.73,9.73,0,0,0,3.52,2.31,2.42,2.42,0,0,0,2.09,0,1.73,1.73,0,0,0,.84-1.43,1.93,1.93,0,0,0-.39-1.13C230.79,203.13,230.65,203,230.67,203Z" fill="#8b5d54"/>
      <path id="Trazado_26066" data-name="Trazado 26066" d="M236,199.06a3.52,3.52,0,0,1-2.4-1.26,6.56,6.56,0,0,1-1.49-2.58,10.284,10.284,0,0,1-.39-1.72,1.94,1.94,0,0,0-.22-.77,1.31,1.31,0,0,0-.63-.44,15.06,15.06,0,0,1-3.17-1.77,5.62,5.62,0,0,1-1.7-2.42,3.38,3.38,0,0,1-.22-2,1.27,1.27,0,0,1,.32-.67,4.865,4.865,0,0,0-.12.7,3.54,3.54,0,0,0,.36,1.83,5.53,5.53,0,0,0,1.72,2.18,16.179,16.179,0,0,0,3.08,1.68,1.73,1.73,0,0,1,.86.64,2.55,2.55,0,0,1,.29,1,10.131,10.131,0,0,0,.33,1.64,5.84,5.84,0,0,0,3.44,4Z" fill="#8b5d54"/>
      <path id="Trazado_26067" data-name="Trazado 26067" d="M260.91,292.08l6.13-4.75a2.69,2.69,0,0,1,.26,3.61,18.081,18.081,0,0,1-3.36,3.86s.2,3.73-1.07,6-6.07.6-6.07.6S255.32,296.16,260.91,292.08Z" fill="#ffbe9d"/>
      <path id="Trazado_26068" data-name="Trazado 26068" d="M270.33,298.26a9.43,9.43,0,0,1-3,3.07,3.4,3.4,0,0,1-1.9.17,1.26,1.26,0,0,1-1.13-1.15,2,2,0,0,1,.61-1.12l2.37-2.67a5.61,5.61,0,0,1-.93,1.32,1.88,1.88,0,0,1-1.46.57,1.14,1.14,0,0,1-1-1.08,2,2,0,0,1,.39-.91l3-4.5" fill="#ffbe9d"/>
      <path id="Trazado_26069" data-name="Trazado 26069" d="M270.33,300.37a6.72,6.72,0,0,1-2.95,3,2.28,2.28,0,0,1-1.62.29,1.4,1.4,0,0,1-.93-1.05,1.38,1.38,0,0,1,.52-1.3" fill="#ffbe9d"/>
      <path id="Trazado_26070" data-name="Trazado 26070" d="M265.35,301.28c.07.05-.4.4-.35,1.12a1.17,1.17,0,0,0,.66.92,1.67,1.67,0,0,0,1.44-.14,7.331,7.331,0,0,0,2.39-1.82,8.26,8.26,0,0,1,.84-1c.08,0-.08.52-.55,1.21a6.24,6.24,0,0,1-2.46,2.08,2.11,2.11,0,0,1-1.88.09,1.53,1.53,0,0,1-.81-1.34,1.38,1.38,0,0,1,.39-1C265.2,301.29,265.34,301.25,265.35,301.28Z" fill="#eb996e"/>
      <path id="Trazado_26071" data-name="Trazado 26071" d="M264.45,300.41a2.12,2.12,0,0,0,.88.62,2.42,2.42,0,0,0,1.13.13,3,3,0,0,0,1.3-.54,21.816,21.816,0,0,0,2.76-2.73,5.87,5.87,0,0,1-2.47,3.16,3.16,3.16,0,0,1-1.54.59,2.57,2.57,0,0,1-1.33-.27,1.44,1.44,0,0,1-.68-.62C264.4,300.55,264.42,300.42,264.45,300.41Z" fill="#eb996e"/>
      <path id="Trazado_26072" data-name="Trazado 26072" d="M264.08,297.86c.08-.06.31.39,1,.4a3.76,3.76,0,0,0,2.34-1,8.231,8.231,0,0,0,1.53-2.2,3.829,3.829,0,0,1,.61-1c.06,0,0,.46-.27,1.14a6.46,6.46,0,0,1-1.52,2.44,3.67,3.67,0,0,1-2.73,1,1.21,1.21,0,0,1-.81-.46C264.08,298,264.06,297.87,264.08,297.86Z" fill="#eb996e"/>
      <path id="Trazado_26073" data-name="Trazado 26073" d="M261.66,301.76a6.17,6.17,0,0,0,1.49-1.86,6.07,6.07,0,0,0,.53-2.49,11.729,11.729,0,0,0-.11-1.53,2.09,2.09,0,0,1,0-.93,1.65,1.65,0,0,1,.6-.79,15.2,15.2,0,0,0,2.29-2.22,5.09,5.09,0,0,0,1-2.33,3.36,3.36,0,0,0-.14-1.7c-.14-.37-.3-.55-.27-.58s.23.11.46.5a3.12,3.12,0,0,1,.31,1.82,5.16,5.16,0,0,1-.95,2.57,14,14,0,0,1-2.34,2.34,1.15,1.15,0,0,0-.45.54,1.869,1.869,0,0,0,0,.71,9.9,9.9,0,0,1,.09,1.61,6.08,6.08,0,0,1-.68,2.65,3.19,3.19,0,0,1-1.83,1.69Z" fill="#eb996e"/>
      <path id="Trazado_26074" data-name="Trazado 26074" d="M217.3,128.17a9.891,9.891,0,0,1,.34,2.67,9,9,0,0,1-.36,2.95,4.18,4.18,0,0,1-.86,1.6,1.91,1.91,0,0,1-.89.53,1.42,1.42,0,0,1-1.11-.17,2.91,2.91,0,0,1-1-1.73q-.21-.89-.33-1.71a17.889,17.889,0,0,1-.21-2.93,7.869,7.869,0,0,1,.31-2.68c.08,0,0,1,.06,2.67a24.257,24.257,0,0,0,.31,2.86c.1.54.21,1.09.36,1.66a2.4,2.4,0,0,0,.78,1.42,1.07,1.07,0,0,0,1.34-.28,3.65,3.65,0,0,0,.77-1.39,9.68,9.68,0,0,0,.45-2.8,23.9,23.9,0,0,1,.04-2.67Z" fill="#ffb394"/>
      <path id="Trazado_26075" data-name="Trazado 26075" d="M220.9,130.67a3.78,3.78,0,0,1,.12,1.46,7.4,7.4,0,0,1-.83,3.47,3.839,3.839,0,0,1-.65.85,1.43,1.43,0,0,1-1,.43,1.56,1.56,0,0,1-1.36-1.06,2.15,2.15,0,0,1-.07-1.49c.1,0,.09.58.41,1.34a1.21,1.21,0,0,0,1,.73c.45,0,.88-.5,1.2-1.06a8.74,8.74,0,0,0,.91-3.23,4.741,4.741,0,0,1,.27-1.44Z" fill="#ffb394"/>
      <path id="Trazado_26076" data-name="Trazado 26076" d="M210,146.78c3.18-2,.52-12.81-1.46-15.35,2.17-2.2,3.16-4.67,1.62-7.35-2,2-5.41,4.49-6,10l.62,4.21Z" fill="#ffd6bd"/>
      <path id="Trazado_26077" data-name="Trazado 26077" d="M210.8,142.29a26.9,26.9,0,0,0,.33-2.87,10.17,10.17,0,0,0-2.19-6.38,9,9,0,0,0-1.07-1.15l-.23-.22.26-.18a6.19,6.19,0,0,0,2.61-4.88,12.92,12.92,0,0,0-.27-2.35,1.54,1.54,0,0,1,.29.58,5.78,5.78,0,0,1,.32,1.77,6.26,6.26,0,0,1-.52,2.66,6.52,6.52,0,0,1-2.13,2.64v-.4a9.388,9.388,0,0,1,1.13,1.21,9.88,9.88,0,0,1,2.14,6.72,8.452,8.452,0,0,1-.38,2.13,1.92,1.92,0,0,1-.29.72Z" fill="#ffb394"/>
    </g>
  </g>
</svg>
