<svg xmlns="http://www.w3.org/2000/svg" width="207.632" height="169.721" viewBox="0 0 207.632 169.721">
  <g id="Grupo_961" data-name="Grupo 961" transform="translate(-234.79 -748.799)">
    <path id="Trazado_13858" data-name="Trazado 13858" d="M338.17,542.684a34.523,34.523,0,0,0,15.078-57.193,26.621,26.621,0,0,0-34.212-30.728,42.167,42.167,0,0,0-61.977,37.591,66.4,66.4,0,1,0,8.111,113.294,40.141,40.141,0,0,1,11.907-7.019c7.227-1.976,14.714,1.56,21.785,4.108a60.99,60.99,0,0,0,43.1.884,37.643,37.643,0,0,0,24.333-33.64C366.247,555.006,352.78,541.02,338.17,542.684Z" transform="translate(75.325 299.894)" fill="#f5f5f5"/>
    <path id="Trazado_13859" data-name="Trazado 13859" d="M338.936,543.423a19.024,19.024,0,0,1,6.707,0,26.466,26.466,0,0,1,16.118,10.4,28.076,28.076,0,0,1,5.719,12.842A29.739,29.739,0,0,1,365.4,583.25a41.6,41.6,0,0,1-31.2,24.385,61.824,61.824,0,0,1-23.709-.312,78.848,78.848,0,0,1-12.166-3.484,78.593,78.593,0,0,0-12.167-3.848A17,17,0,0,0,274,602.072c-3.744,2.184-7.279,5.2-11.439,7.747a69.256,69.256,0,0,1-58.233,5.563,64.579,64.579,0,0,1-26.465-17.938,70.09,70.09,0,0,1-15.6-29.117,65.669,65.669,0,0,1,.468-34.16,70.869,70.869,0,0,1,14.87-27.349A65.145,65.145,0,0,1,202.4,489.3a69.619,69.619,0,0,1,56.309,2.444l-1.82,1.092a43.362,43.362,0,0,1,63.328-38.319h-.832a27.556,27.556,0,0,1,35.356,31.872v-.728a36.083,36.083,0,0,1,9.567,28.181,33.849,33.849,0,0,1-9.359,20.122,34.524,34.524,0,0,1-11.387,8.059,25.451,25.451,0,0,1-4.523,1.456s1.56-.572,4.367-1.872a37.59,37.59,0,0,0,10.919-8.215,33.535,33.535,0,0,0,8.683-19.706,34.731,34.731,0,0,0-9.463-26.881l-.312-.312v-.416a26.465,26.465,0,0,0-7.019-23.137,26,26,0,0,0-26-6.447h-.78a42.167,42.167,0,0,0-38.527.312,41.6,41.6,0,0,0-21.577,36.135v2.08l-1.82-.936a67.019,67.019,0,0,0-54.229-2.183,62.389,62.389,0,0,0-23.709,16.794,68.159,68.159,0,0,0-14.3,26.36,61.822,61.822,0,0,0-.416,32.7,67.227,67.227,0,0,0,15.13,28.025,63.12,63.12,0,0,0,25.373,17.314,67.592,67.592,0,0,0,56.153-5.2c3.951-2.34,7.383-5.2,11.491-7.747a18.98,18.98,0,0,1,13.674-2.236,75.215,75.215,0,0,1,12.531,4,78.27,78.27,0,0,0,11.854,3.431,58.9,58.9,0,0,0,22.929.468,40.139,40.139,0,0,0,30.1-23.033,29.116,29.116,0,0,0,2.236-15.6,28.234,28.234,0,0,0-5.2-12.427,26.412,26.412,0,0,0-15.6-10.4,35.456,35.456,0,0,0-6.6-.936Z" transform="translate(74.561 299.155)" fill="#263238"/>
    <g id="Grupo_578" data-name="Grupo 578" transform="translate(318.878 806.702)" opacity="0.3">
      <path id="Trazado_13860" data-name="Trazado 13860" d="M184.4,504.663a112.882,112.882,0,0,1,5.2-43.883c-10.4,12.115-15.026,24.125-12.53,46.171a42.9,42.9,0,0,0,29.168,35.928C196.459,533.415,186.268,519.117,184.4,504.663Z" transform="translate(-176.402 -460.78)"/>
    </g>
    <path id="Trazado_13861" data-name="Trazado 13861" d="M240.884,504.076s-1.248,3.692-6.967,6.083a15.13,15.13,0,0,1-10.659,0,16.275,16.275,0,0,1-9.723-9.567l1.092.832a42.576,42.576,0,0,1-14.09-3.432,33.43,33.43,0,0,1-14.454-11.646,27.819,27.819,0,0,1-4.628-14.454,17.314,17.314,0,0,1,4.107-13.1,31.2,31.2,0,0,0-2.184,13,26.828,26.828,0,0,0,4.783,13.154,32.339,32.339,0,0,0,13.466,10.4,45.556,45.556,0,0,0,13.258,3.328h.832l.26.728a14.246,14.246,0,0,0,8.059,8.371,13.935,13.935,0,0,0,9.359.364A23.6,23.6,0,0,0,240.884,504.076Z" transform="translate(163.304 337.566)" fill="#263238"/>
    <path id="Trazado_13862" data-name="Trazado 13862" d="M203.559,550.421a49.552,49.552,0,0,1-10.4-10.4A63.535,63.535,0,0,1,178.342,508.1a79.448,79.448,0,0,1,2.7-35.148,71,71,0,0,1,4-9.983,10.761,10.761,0,0,1,2.08-3.328c.416,0-2.028,5.2-4.211,13.83a87.4,87.4,0,0,0-1.924,34.212,67.592,67.592,0,0,0,13.674,31.2C200.023,546.106,203.87,549.9,203.559,550.421Z" transform="translate(147.024 341.136)" fill="#263238"/>
    <path id="Trazado_13863" data-name="Trazado 13863" d="M230.289,488.361a16.486,16.486,0,0,1-6.6,1.456,42.945,42.945,0,0,1-16.274-1.248,26.358,26.358,0,0,1-13.726-9.1c-2.6-3.432-3.016-6.187-2.7-6.24s1.4,2.184,4.159,5.2a29.221,29.221,0,0,0,13,7.7,60.829,60.829,0,0,0,15.6,1.924C227.846,487.945,230.237,487.945,230.289,488.361Z" transform="translate(203.328 398.204)" fill="#263238"/>
  </g>
</svg>
