<svg xmlns="http://www.w3.org/2000/svg" width="257.645" height="182.76" viewBox="0 0 257.645 182.76">
  <g id="Grupo_955" data-name="Grupo 955" transform="translate(-470.104 -697.093)">
    <path id="Trazado_13843" data-name="Trazado 13843" d="M549.64,489.1a66.148,66.148,0,0,0-73.6-8.379,107.863,107.863,0,0,0-37.881-32.81c-15.214-7.188-33.824-8.82-48.773-.882s-24.784,25.93-20.2,42.114a23.769,23.769,0,0,0,1.764,42.335c-20.109-8.246-35.279,2.469-45.642,14.993a43.57,43.57,0,0,0-4.719,46.3,55.257,55.257,0,0,0,37.881,28.444,76.159,76.159,0,0,0,47.759-6.395c16.14-7.541,30.56-20.506,35.764-37.572a74.7,74.7,0,0,0,68.53,30.869,71.616,71.616,0,0,0,58.122-47.009A68.706,68.706,0,0,0,549.64,489.1Z" transform="translate(155.107 256.16)" fill="#f5f5f5"/>
    <path id="Trazado_13844" data-name="Trazado 13844" d="M550.435,489.73s.309,0,.882.705l2.47,2.205a61.755,61.755,0,0,1,8.2,10.055,69.854,69.854,0,0,1,10.936,46.744,64.734,64.734,0,0,1-13.009,31.8,73.686,73.686,0,0,1-32.06,24.166,69.807,69.807,0,0,1-45.2,1.72,76.026,76.026,0,0,1-40.615-28.664l1.852-.265a58.562,58.562,0,0,1-20.638,28.62,84.809,84.809,0,0,1-33.471,15.655,68.925,68.925,0,0,1-38.1-1.808,55.83,55.83,0,0,1-30.208-24.96,44.628,44.628,0,0,1,4.807-50.537A50.444,50.444,0,0,1,347.1,529.948a35.28,35.28,0,0,1,25.092,1.146l-.882,2.028a24.828,24.828,0,0,1-1.808-44.1l-.529,1.19a34.838,34.838,0,0,1,1.764-22.535,42.6,42.6,0,0,1,13.23-17.2,50.052,50.052,0,0,1,38.983-7.806A73.2,73.2,0,0,1,455.491,458.2a135.164,135.164,0,0,1,21.829,22.887h-.882a63.852,63.852,0,0,1,32.368-7.409,68,68,0,0,1,23.99,5.072,67.241,67.241,0,0,1,13.23,7.629c1.367,1.1,2.381,1.985,3.043,2.558s1.014.882.97.926l-1.1-.794-3.131-2.381A65.531,65.531,0,0,0,508.63,474.56a63.636,63.636,0,0,0-31.663,7.541l-.529.309-.353-.485a134.161,134.161,0,0,0-21.7-22.446A71.4,71.4,0,0,0,422.5,444.441a48.2,48.2,0,0,0-37.484,7.629,40.223,40.223,0,0,0-12.612,16.405,32.544,32.544,0,0,0-1.632,21.167v.794l-.706.4a22.667,22.667,0,0,0,1.72,40.395l-.882,2.029a32.72,32.72,0,0,0-23.5-1.014,47.849,47.849,0,0,0-19.844,14.553,42.334,42.334,0,0,0-4.41,47.935,53.624,53.624,0,0,0,28.929,23.9,66.943,66.943,0,0,0,36.867,1.764,82.073,82.073,0,0,0,32.589-15.17,56.579,56.579,0,0,0,19.977-27.561l.661-2.029,1.235,1.764a74.35,74.35,0,0,0,39.468,27.958,67.868,67.868,0,0,0,44.1-1.455,72.369,72.369,0,0,0,31.486-23.5,63.942,63.942,0,0,0,13.009-30.869,69.453,69.453,0,0,0-1.984-27.429,70.244,70.244,0,0,0-8.291-18.786,72.3,72.3,0,0,0-10.76-13.582Z" transform="translate(154.313 255.524)" fill="#263238"/>
    <path id="Trazado_13845" data-name="Trazado 13845" d="M365.966,479.895c-4.63-4.719-9.7-6.879-9.658-13.494-8.423-1.632-16.361,4.013-22.623,9.834A51.466,51.466,0,0,0,322.132,490.7a22.049,22.049,0,0,0-1.147,18.036c1.235,2.778,4.057,5.512,6.968,4.63,1.587-.485,2.866-2.029,4.41-1.985,2.514,0,3.44,3.263,4.763,5.424a8.247,8.247,0,0,0,14.685-7.321c4.41,4.013,11.907,1.455,16.449-2.557a16.979,16.979,0,0,0,6.042-9.834C375.359,490.523,370.6,484.657,365.966,479.895Z" transform="translate(167.238 339.225)" fill="#596d9e"/>
    <path id="Trazado_13846" data-name="Trazado 13846" d="M369.968,450.31a9.612,9.612,0,0,1,1.014,3.528,33.117,33.117,0,0,1,0,10.054,87.929,87.929,0,0,1-11.73,30.869,101.162,101.162,0,0,0-12.215,29.855,67.4,67.4,0,0,0-.441,13.23,8.818,8.818,0,0,1-1.014-3.528,34.922,34.922,0,0,1,0-10.055,88.682,88.682,0,0,1,11.774-30.869,98.116,98.116,0,0,0,12.171-29.855A73.78,73.78,0,0,0,369.968,450.31Z" transform="translate(254.653 285.331)" fill="#263238"/>
    <path id="Trazado_13847" data-name="Trazado 13847" d="M385.479,465.047c-1.014-4.41,2.6-12.436,2.646-13.8,0-3.4-6.35-2.337-9.217-.485s-4.895,4.675-7.673,6.615c-7.5,5.16-18.3,2.381-26.151,6.968A31.445,31.445,0,0,0,333.972,480c-.97,2.337-1.9,5.336,0,7.144s1.94-.441,3.572-1.1,3.792-2.161,5.38-2.911c10.848-5.115,21.432-4.63,34.529,2.646,2.646-6,9.878-11.466,16.317-10.187A21.389,21.389,0,0,1,385.479,465.047Z" transform="translate(212.551 280.957)" fill="#596d9e"/>
    <path id="Trazado_13848" data-name="Trazado 13848" d="M404.622,481.087a59.771,59.771,0,0,0-9.525-12.215,41.326,41.326,0,0,0-14.244-8.423,35.72,35.72,0,0,0-37.66,8.114,41.27,41.27,0,0,0-9.526,13.538,57.774,57.774,0,0,0-3.616,15.038,11.16,11.16,0,0,1-.309-4.41,34.581,34.581,0,0,1,2.425-11.422,40.964,40.964,0,0,1,9.57-14.464,36.866,36.866,0,0,1,39.689-8.555,41.143,41.143,0,0,1,14.685,9.216,35.278,35.278,0,0,1,6.879,9.393,14.149,14.149,0,0,1,1.632,4.189Z" transform="translate(201.566 303.988)" fill="#263238"/>
    <path id="Trazado_13849" data-name="Trazado 13849" d="M356.515,448.049c0,.353-1.94,1.367-4.41,4.1a23.459,23.459,0,0,0-5.248,12.744,12,12,0,0,0,1.411,7.1,17.637,17.637,0,0,0,4.145,4.63c2.866,2.249,4.851,3.572,4.674,3.881a13.23,13.23,0,0,1-5.645-2.6,16.892,16.892,0,0,1-4.983-4.807,13.23,13.23,0,0,1-1.852-8.423A21.655,21.655,0,0,1,350.958,451C353.957,448.269,356.471,447.784,356.515,448.049Z" transform="translate(252.276 277.405)" fill="#263238"/>
    <path id="Trazado_13850" data-name="Trazado 13850" d="M327,517.889a22.053,22.053,0,0,0,10.628-.838,14.82,14.82,0,0,0,8.07-7.541,15.346,15.346,0,0,0,0-13.229,52.2,52.2,0,0,0-9.129-11.069,24.523,24.523,0,0,1-6.438-10.584,12.127,12.127,0,0,1,.794-8.379c.926-1.808,1.94-2.381,2.029-2.293s-.617.926-1.235,2.646a12.437,12.437,0,0,0,0,7.585,24.737,24.737,0,0,0,6.438,9.569,49.222,49.222,0,0,1,9.57,11.289,17.154,17.154,0,0,1,0,15.258,16.228,16.228,0,0,1-17.64,8.82C327.97,518.6,327,518.022,327,517.889Z" transform="translate(192.533 331.836)" fill="#263238"/>
    <g id="Grupo_576" data-name="Grupo 576" transform="translate(600.285 742.212)" opacity="0.3">
      <path id="Trazado_13851" data-name="Trazado 13851" d="M370.4,451.8a77,77,0,0,1-8.82,28.576A191.287,191.287,0,0,0,348.568,507.5c-2.954,9.613-4.41,15.479-2.161,25.269a54.371,54.371,0,0,1,2.337-17.86,51.342,51.342,0,0,1,8.246-13.23c8.82-11.6,10.8-14.156,14.288-23.593C374.057,470.674,372.646,463.222,370.4,451.8Z" transform="translate(-345.311 -451.8)"/>
    </g>
  </g>
</svg>
