<svg xmlns="http://www.w3.org/2000/svg" width="223.889" height="204.143" viewBox="0 0 223.889 204.143">
  <g id="Grupo_623" data-name="Grupo 623" transform="translate(-96.689 -15.998)">
    <path id="Trazado_13676" data-name="Trazado 13676" d="M96.951,80.056a54.127,54.127,0,0,0,34.587,14.073,47.144,47.144,0,0,0,32.476-11.313,23.112,23.112,0,0,0-6.17-25.223,37.022,37.022,0,0,0-25.494-8.985,99.862,99.862,0,0,0-27.063,4.763C99.008,55.1,91.755,57.81,89.969,64.2a16.833,16.833,0,0,0,6.982,15.859Z" transform="translate(50.948 68.023)" fill="#e0e0e0"/>
    <path id="Trazado_13677" data-name="Trazado 13677" d="M98.908,134.8c22.408,20.514,57.32,17.808,86.6,9.743l5.846-2a61,61,0,0,1,10.5,28.2c0,10.068-6.333,21.109-16.238,22.084-8.5.812-17.158-5.413-25.277-2.706a15.155,15.155,0,0,0-8.39,17.537A29.553,29.553,0,0,0,164.4,224.379a58.782,58.782,0,0,0,78.1-12.016,34.154,34.154,0,0,0,46.17-49.526A50.5,50.5,0,0,0,303.615,111.2,52.936,52.936,0,0,0,218.04,61.674,91.528,91.528,0,0,0,151.681,30.01a71.555,71.555,0,0,0-62.9,35.074C76.607,87.33,80.18,117.749,98.908,134.8Z" transform="translate(15 -14)" fill="#ebebeb"/>
    <path id="Trazado_13678" data-name="Trazado 13678" d="M102.74,50.52c.433,0,2.923,5.413,9.31,12.612A60.676,60.676,0,0,0,180.2,79.748c8.985-3.464,13.748-7.361,14.073-6.928s-.974,1.245-3.193,2.923a49.2,49.2,0,0,1-10.122,5.846,59.539,59.539,0,0,1-70.365-17.158,54.125,54.125,0,0,1-6.441-9.851,10.5,10.5,0,0,1-1.407-4.06Z" transform="translate(107.892 76.558)" fill="#e0e0e0"/>
    <path id="Trazado_13679" data-name="Trazado 13679" d="M109.35,56.44a15.343,15.343,0,0,1,5.413,3.843,32.476,32.476,0,0,1,7.524,30.257c-1.137,4.005-2.706,6.116-2.977,5.954a53.423,53.423,0,0,0,.379-21.651,53.045,53.045,0,0,0-10.338-18.4Z" transform="translate(137.06 102.681)" fill="#e0e0e0"/>
    <path id="Trazado_13680" data-name="Trazado 13680" d="M122.4,36.85a27.714,27.714,0,0,1,1.949,10.825A78.7,78.7,0,0,1,109.9,97.2a29.608,29.608,0,0,1-7.361,8.011,132.176,132.176,0,0,0,16.238-32.476A131.8,131.8,0,0,0,122.4,36.85Z" transform="translate(107.009 16.237)" fill="#e0e0e0"/>
    <path id="Trazado_13681" data-name="Trazado 13681" d="M115.58,44.974c0-.325,2.165-1.353,6.008-1.949a37.51,37.51,0,0,1,28.687,8.336c2.977,2.6,4.276,4.655,4.005,4.871a82.7,82.7,0,0,0-18.241-9.31A84.654,84.654,0,0,0,115.58,44.974Z" transform="translate(164.551 42.158)" fill="#e0e0e0"/>
  </g>
</svg>
