<svg xmlns="http://www.w3.org/2000/svg" width="177.607" height="177.203" viewBox="0 0 177.607 177.203">
  <g id="Grupo_962" data-name="Grupo 962" transform="translate(-404.013 -329.984)">
    <path id="Trazado_13836" data-name="Trazado 13836" d="M472.8,351.234a54.744,54.744,0,0,0-58.622,19.345c-13.528,17.5-12.22,40.584-3.517,60.651a72.556,72.556,0,0,0-34.992,69.85,28.138,28.138,0,0,0,4.915,14.2,13.168,13.168,0,0,0,13.528,5.231c8.7-2.435,9.966-14.024,9.56-23.088a58.078,58.078,0,0,0,16.1,21.059,27.823,27.823,0,0,0,25.207,4.96,18.488,18.488,0,0,0,12.085-21.1c9.019,14.114,29.266,18.579,45.094,12.536,20.292-7.8,31.926-28.635,41.892-47.935,4.194-8.072,8.342-18.038,3.833-25.7,7.035-9.56,1.488-24.035-8.3-30.709s-22.322-7.531-34.136-8.207A48.07,48.07,0,0,0,472.8,351.234Z" transform="translate(29.91 -18.609)" fill="#f5f5f5"/>
    <path id="Trazado_13837" data-name="Trazado 13837" d="M473.709,351.625a4.055,4.055,0,0,1,1.082.316c.721.226,1.759.541,3.157,1.082a49.606,49.606,0,0,1,11,6.674,50.913,50.913,0,0,1,13.032,15.963,45.092,45.092,0,0,1,4.825,27.056l-.676-.812c9.65.631,21.1.857,31.926,6.674a28.092,28.092,0,0,1,12.581,13.8,20.157,20.157,0,0,1-1.308,19.751v-1.037a19.886,19.886,0,0,1,.767,15.963,88.913,88.913,0,0,1-6.854,15.106,138.437,138.437,0,0,1-19.12,29.13,49.874,49.874,0,0,1-32.422,17.5,41.3,41.3,0,0,1-19.3-2.976,34.045,34.045,0,0,1-15.6-12.491l2.119-.992a18.263,18.263,0,0,1-4.78,17.091,21.24,21.24,0,0,1-17,6.719,32.648,32.648,0,0,1-20.924-9.47,65.477,65.477,0,0,1-12.852-18.4l2.164-.586a33.143,33.143,0,0,1-3.743,19.39,11.95,11.95,0,0,1-8.7,5.231,14.3,14.3,0,0,1-9.515-3.066,24.667,24.667,0,0,1-7.981-17,71.346,71.346,0,0,1,0-18.037,73.728,73.728,0,0,1,35.443-53.437l-.406,1.218a78.232,78.232,0,0,1-6.448-27.552,51.767,51.767,0,0,1,34.767-51.858,52.351,52.351,0,0,1,25.749-3.157,37.918,37.918,0,0,1,9.019,2.21A53.546,53.546,0,0,0,464.69,350a54.653,54.653,0,0,0-54.112,30.123,52.578,52.578,0,0,0-4.51,24.215,76.662,76.662,0,0,0,6.494,27.056l.316.767-.722.451a71.834,71.834,0,0,0-34.181,52.128,70.879,70.879,0,0,0,0,17.5,22.547,22.547,0,0,0,7.215,15.467,11.679,11.679,0,0,0,7.937,2.57,9.65,9.65,0,0,0,6.989-4.239A31.161,31.161,0,0,0,403.453,498v-5.321l2.39,4.735A63.581,63.581,0,0,0,418.2,515.135a30.348,30.348,0,0,0,19.435,9.019,18.9,18.9,0,0,0,15.2-6,15.873,15.873,0,0,0,4.239-14.79l-2.074-7.305,4.149,6.313a35.759,35.759,0,0,0,32.783,14.475,47.393,47.393,0,0,0,30.979-16.685,139.38,139.38,0,0,0,18.939-28.635,89.238,89.238,0,0,0,6.764-14.7,18.036,18.036,0,0,0-.541-14.43l-.316-.541.361-.541a18.263,18.263,0,0,0,1.217-18.037,26.426,26.426,0,0,0-11.724-12.987c-10.281-5.637-21.555-6-31.2-6.719h-.767v-.767a43.919,43.919,0,0,0-4.509-26.425,51.228,51.228,0,0,0-12.536-15.873,53.756,53.756,0,0,0-14.881-8.883Z" transform="translate(29 -19)" fill="#263238"/>
    <path id="Trazado_13838" data-name="Trazado 13838" d="M461.556,364.428a20.374,20.374,0,0,1-2.21,2.435,48.014,48.014,0,0,1-7.125,5.456,71.383,71.383,0,0,1-57.134,8.748A51.052,51.052,0,0,1,386.655,378c-1.894-.947-2.931-1.533-2.841-1.668s4.509,1.488,11.679,3.157a78.147,78.147,0,0,0,55.871-8.568C457.768,367.088,461.33,364.112,461.556,364.428Z" transform="translate(59.867 35.116)" fill="#263238"/>
    <path id="Trazado_13839" data-name="Trazado 13839" d="M438.224,401.485a55.081,55.081,0,0,1-3.562-7.17,54.97,54.97,0,0,0-27.056-25.3,64.846,64.846,0,0,1-7.4-3.021,18.04,18.04,0,0,1,7.982,1.443,47.124,47.124,0,0,1,28.138,26.2,19.071,19.071,0,0,1,1.894,7.846Z" transform="translate(117.425 40.628)" fill="#263238"/>
    <g id="Grupo_575" data-name="Grupo 575" transform="translate(445.575 412.08)" opacity="0.3">
      <path id="Trazado_13840" data-name="Trazado 13840" d="M384.456,367.37a50.551,50.551,0,0,0,24.306,9.019,62.681,62.681,0,0,0,9.515,38.194,56.187,56.187,0,0,1-5.141-27.913,10.914,10.914,0,0,1,1.984-6.268,11.811,11.811,0,0,1,4.149-2.705c6.719-3.2,14.61-7.351,21.329-10.507a177.946,177.946,0,0,1-27.056,5.817,72.514,72.514,0,0,1-29.311-5.772" transform="translate(-384.23 -367.19)"/>
    </g>
    <path id="Trazado_13841" data-name="Trazado 13841" d="M385.41,374.41c.676,0-1.4,7.937-1.759,17.677s.992,17.587.316,17.767a36.076,36.076,0,0,1-2.66-18.038A36.7,36.7,0,0,1,385.41,374.41Z" transform="translate(50.334 70.228)" fill="#263238"/>
    <path id="Trazado_13842" data-name="Trazado 13842" d="M391.83,378.72a24.981,24.981,0,0,1,4.78,9.47,24.122,24.122,0,0,1,2.615,10.326,24.982,24.982,0,0,1-4.78-9.515,23.857,23.857,0,0,1-2.615-10.281Z" transform="translate(88.016 85.353)" fill="#263238"/>
  </g>
</svg>
