<svg xmlns="http://www.w3.org/2000/svg" width="201.018" height="213.203" viewBox="0 0 201.018 213.203">
  <g id="Grupo_959" data-name="Grupo 959" transform="translate(-138.702 -700.563)">
    <path id="Trazado_13852" data-name="Trazado 13852" d="M209.659,464.555c-8.557-24.344-44.665-15.872-60.452-2.053a45.435,45.435,0,0,0-14.931,23.873,35.51,35.51,0,0,0,37.564,42.783c-2.61,7.7,3.979,16.557,12.022,17.8A20.75,20.75,0,0,0,204.1,535.917a41.114,41.114,0,0,0,18.225,27.124,23.916,23.916,0,0,0,19.466,41.328,25.285,25.285,0,0,0,19.937,22.418,40.687,40.687,0,0,0,46.548-36.836c0-15.958-12.535-28.793-24.172-39.745a65.8,65.8,0,0,0,24.857-17.584,91.8,91.8,0,0,0,9.327-13.091c1.669-2.781,3.294-5.647,4.749-8.557,9.583-18.653,14.461-42.526,2.61-59.9a69.908,69.908,0,0,0-19.809-17.456c-16.814-11.252-37.221-22.076-56.3-15.487a66.828,66.828,0,0,0-29.606,20.835,48.474,48.474,0,0,0-10.268,25.413" transform="translate(6.154 284.909)" fill="#fff"/>
    <path id="Trazado_13853" data-name="Trazado 13853" d="M210.387,464.921a31.745,31.745,0,0,1,.513-5.22,45.093,45.093,0,0,1,5.391-14.161,54.646,54.646,0,0,1,6.289-9.113,59.115,59.115,0,0,1,9.84-8.9,75.08,75.08,0,0,1,13.22-7.7A39.187,39.187,0,0,1,262.5,416.02c12.407,0,25.2,5.476,37.435,12.835a167.771,167.771,0,0,1,18.439,12.835,48.128,48.128,0,0,1,8.214,8.557,41.413,41.413,0,0,1,5.519,11,53.521,53.521,0,0,1,1.2,25.413,89.843,89.843,0,0,1-8.556,25.285,108.068,108.068,0,0,1-15.488,23.188A66.7,66.7,0,0,1,285.342,551.6l.342-1.8a127.655,127.655,0,0,1,15.188,16.215,42.441,42.441,0,0,1,9.2,21.092,33.8,33.8,0,0,1-6.246,22.718,45.733,45.733,0,0,1-18.568,15.744,34.227,34.227,0,0,1-27.894,1.284A25.67,25.67,0,0,1,241.4,604.992l1.241,1.069a24.985,24.985,0,0,1-20.279-43.168v1.669a42.269,42.269,0,0,1-18.653-27.852l1.882.342a21.648,21.648,0,0,1-21.776,11.38,16.343,16.343,0,0,1-10.311-7.016,13.69,13.69,0,0,1-1.968-11.937l.984,1.2a36.365,36.365,0,0,1-38.034-45.564A47.061,47.061,0,0,1,150.276,461.8a58.441,58.441,0,0,1,21.391-10.653,47.7,47.7,0,0,1,19.21-1.583,25.67,25.67,0,0,1,12.835,5.647c.685.685,1.369,1.283,2.011,1.882a23.715,23.715,0,0,1,1.369,1.968l1.2,1.669.642,1.54c.813,1.84,1.112,2.781,1.112,2.781s-.513-.9-1.369-2.652l-.727-1.5-1.2-1.626c-.428-.556-.856-1.241-1.412-1.84l-2.011-1.8a24.688,24.688,0,0,0-12.835-5.22,47.668,47.668,0,0,0-18.824,1.754,57.492,57.492,0,0,0-20.921,10.653A45.6,45.6,0,0,0,135.6,485.5a34.74,34.74,0,0,0,36.408,43.339h1.412l-.428,1.369a13.691,13.691,0,0,0,10.824,16.429,19.594,19.594,0,0,0,19.637-10.482l1.369-2.439.513,2.781a40.088,40.088,0,0,0,17.841,26.4l1.155.727-1.027.941a22.846,22.846,0,0,0,18.568,39.446h1.2v1.241a23.616,23.616,0,0,0,14.674,19.894,32.043,32.043,0,0,0,26.1-1.326,43.591,43.591,0,0,0,17.5-14.675,31.829,31.829,0,0,0,5.9-21.391,40.3,40.3,0,0,0-8.557-20.022,129.2,129.2,0,0,0-14.931-15.958l-1.241-1.155,1.583-.642A65.376,65.376,0,0,0,307.247,534.1a104.525,104.525,0,0,0,15.231-22.718,89.845,89.845,0,0,0,8.557-24.686,51.339,51.339,0,0,0-1.027-24.515,40.343,40.343,0,0,0-13.134-18.867,164.332,164.332,0,0,0-18.14-12.835c-12.065-7.444-24.6-12.835-36.579-12.835a37.947,37.947,0,0,0-16.343,3.551,73.3,73.3,0,0,0-13.092,7.444,57.833,57.833,0,0,0-9.8,8.557,59.9,59.9,0,0,0-6.375,8.856,47.062,47.062,0,0,0-5.6,13.9c-.342,1.669-.556,2.952-.685,3.85A4.279,4.279,0,0,1,210.387,464.921Z" transform="translate(5.426 284.543)" fill="#263238"/>
    <path id="Trazado_13854" data-name="Trazado 13854" d="M222.414,486.856a1.684,1.684,0,0,1-.556.984,11.418,11.418,0,0,1-2.4,2.182A18.908,18.908,0,0,1,208,492.675a35.251,35.251,0,0,1-17.113-5.219,20.236,20.236,0,0,1-9.626-19.21l1.455,1.2a19.413,19.413,0,0,1-4.535.984,39.321,39.321,0,0,1-12.193-1.069,20.366,20.366,0,0,1-10.439-4.878,20.75,20.75,0,0,1-5.006-18.268,38.5,38.5,0,0,1,4.621-11.979,18.652,18.652,0,0,1,2.61-3.893,21.1,21.1,0,0,1-1.84,4.278,43.727,43.727,0,0,0-3.808,11.851A19.123,19.123,0,0,0,157,462.983a18.054,18.054,0,0,0,9.455,4.278,35.634,35.634,0,0,0,11.466.984,17.1,17.1,0,0,0,4.278-.856l1.711-.6-.257,1.84a18.4,18.4,0,0,0,8.557,17.113,34.479,34.479,0,0,0,15.83,5.348,19.211,19.211,0,0,0,10.952-1.84A34.171,34.171,0,0,0,222.414,486.856Z" transform="translate(60.568 331.488)" fill="#263238"/>
    <path id="Trazado_13855" data-name="Trazado 13855" d="M184.946,448.862a40.94,40.94,0,0,1-5.22,0,28.064,28.064,0,0,0-11.594,3.465,57.363,57.363,0,0,0-10.011,7.316c-2.439,2.139-3.936,3.508-4.278,3.294s.9-1.925,3.08-4.278a38.509,38.509,0,0,1,10.054-8.172,24,24,0,0,1,12.835-3.08C183.149,447.578,185.032,448.6,184.946,448.862Z" transform="translate(72.665 387.366)" fill="#263238"/>
    <path id="Trazado_13856" data-name="Trazado 13856" d="M153.564,438c.642,0-1.241,6.845-1.583,15.188s.9,15.145.257,15.274a28.535,28.535,0,0,1-2.481-15.359,28.877,28.877,0,0,1,3.808-15.1Z" transform="translate(58.825 356.6)" fill="#263238"/>
    <g id="Grupo_577" data-name="Grupo 577" transform="translate(214.314 792.889)" opacity="0.3">
      <path id="Trazado_13857" data-name="Trazado 13857" d="M211.06,467.8a28.751,28.751,0,0,1-21.391-4.492,22.376,22.376,0,0,1-10.353-18.7c-10.311,2.225-21.392.9-28.365-7.016A22.589,22.589,0,0,0,174.4,449.109a18.4,18.4,0,0,0,7.7,14.418,38.164,38.164,0,0,0,15.53,6.332,25.029,25.029,0,0,0,17.584-1.2,27.852,27.852,0,0,0,10.739-12.835C221.542,461.3,217.606,466.735,211.06,467.8Z" transform="translate(-150.95 -437.6)"/>
    </g>
  </g>
</svg>
