<svg xmlns="http://www.w3.org/2000/svg" width="180.811" height="169.561" viewBox="0 0 180.811 169.561">
  <g id="Grupo_625" data-name="Grupo 625" transform="translate(-278.549 -36.356)">
    <path id="Trazado_13794" data-name="Trazado 13794" d="M386.844,53.18a32.671,32.671,0,0,0-54.865,5.809c-2.681,5.412-4.121,11.966-9.037,15.541A31.181,31.181,0,0,1,311.92,78.5,34.756,34.756,0,0,0,286.4,101.938c-2.929,11.817,4.965,26.017,16.981,27.259a37.288,37.288,0,0,0,3.575,33.366,41.707,41.707,0,0,0,28.9,17.08A53.325,53.325,0,0,0,401.442,193.5a55.808,55.808,0,0,0,26.018-63.6,34.309,34.309,0,0,0,15.789-65.937,28.748,28.748,0,0,0-56.4-10.675Z" transform="translate(-6.058 5.391)" fill="#fff"/>
    <path id="Trazado_13795" data-name="Trazado 13795" d="M387.786,53.571a20.749,20.749,0,0,1,1.887-5.66,31.132,31.132,0,0,1,23.684-16.385A26.464,26.464,0,0,1,428,34.058a31.034,31.034,0,0,1,12.711,11.569,29.79,29.79,0,0,1,4.419,18.719l-.546-.993A35.4,35.4,0,0,1,428.3,131.326l1.241-1.589a56.7,56.7,0,0,1-7.7,47.566,53.673,53.673,0,0,1-19.165,17.626,52.332,52.332,0,0,1-26.067,5.958,57.547,57.547,0,0,1-22.889-5.809,56.8,56.8,0,0,1-18.024-14.4l.794.447a52.184,52.184,0,0,1-17.378-6.107,36.445,36.445,0,0,1-12.959-12.512,38.48,38.48,0,0,1-3.029-33.465l.944,1.589a20.457,20.457,0,0,1-15.193-10.725,24.827,24.827,0,0,1-2.78-17.626,29.791,29.791,0,0,1,8.639-14.9,41.11,41.11,0,0,1,13.7-8.143A110.131,110.131,0,0,0,322.4,74.772a20.555,20.555,0,0,0,7.5-10.625A39.718,39.718,0,0,1,336.2,52.876a33.612,33.612,0,0,1,9.086-7.646,31.877,31.877,0,0,1,19.364-4.419A33.912,33.912,0,0,1,378.7,45.379a32.473,32.473,0,0,1,7.15,5.809,25.358,25.358,0,0,1,1.937,2.483,40.018,40.018,0,0,0-9.483-7.646A34.111,34.111,0,0,0,364.549,41.9a31.379,31.379,0,0,0-18.569,4.518,33.813,33.813,0,0,0-14.5,18.421,22.443,22.443,0,0,1-8.143,11.519,121.6,121.6,0,0,1-14.151,4.965,32.572,32.572,0,0,0-20.854,21.747,22.741,22.741,0,0,0,2.632,15.988,18.173,18.173,0,0,0,13.455,9.533h1.539l-.546,1.44a36.3,36.3,0,0,0,2.929,31.33,40.367,40.367,0,0,0,28.649,17.378h.5l.3.348A52.631,52.631,0,0,0,376.813,198.4a49.651,49.651,0,0,0,24.826-5.611,50.645,50.645,0,0,0,18.222-16.782,53.97,53.97,0,0,0,7.4-45.382l-.447-1.738h1.738a34.111,34.111,0,0,0,35.4-28.6,34.756,34.756,0,0,0-19.861-35.2l-.646-.3v-.7a28.052,28.052,0,0,0-4.022-17.626,29.79,29.79,0,0,0-11.916-11.122,26.812,26.812,0,0,0-25.372,1.092,29.791,29.791,0,0,0-11.817,11.718A50.775,50.775,0,0,0,387.786,53.571Z" transform="translate(-7 5)" fill="#263238"/>
    <path id="Trazado_13796" data-name="Trazado 13796" d="M339.15,68.288c0,.3-2.334.745-6.107.3a32.324,32.324,0,0,1-13.7-5.263,31.529,31.529,0,0,1-9.93-10.923c-1.787-3.327-2.185-5.71-1.887-5.76a59.88,59.88,0,0,0,13.257,14.548,59.582,59.582,0,0,0,18.371,7.1Z" transform="translate(79.769 65.605)" fill="#263238"/>
    <path id="Trazado_13797" data-name="Trazado 13797" d="M295,102.021a70.2,70.2,0,0,0,17.13.6,53.078,53.078,0,0,0,17.527-5.462,46.026,46.026,0,0,0,16.931-14.449c2.383-2.979,3.525-7.348,7.746-9.93s8.391,0,11.569,0a23.088,23.088,0,0,0,16.037-7.1A26.364,26.364,0,0,0,388.3,55.2c.894-2.83.943-4.518,1.192-4.469a9.384,9.384,0,0,1,0,4.965,25.074,25.074,0,0,1-6.206,11.271,24.528,24.528,0,0,1-17.328,8.242c-3.823,0-7.6-1.341-10.476,0s-4.22,5.462-6.753,8.888a47.22,47.22,0,0,1-17.974,14.9,50.2,50.2,0,0,1-18.47,4.965,39.721,39.721,0,0,1-12.81-.844A13.6,13.6,0,0,1,295,102.021Z" transform="translate(30.474 81.821)" fill="#263238"/>
    <path id="Trazado_13798" data-name="Trazado 13798" d="M326.327,49.073c-1.738,1.738-3.029,3.922-4.667,5.71-6.7,7.448-18.669,8.639-24.826,16.484a19.265,19.265,0,0,0,2.582,25.322,23.287,23.287,0,0,0,26.167,2.582,29.393,29.393,0,0,0,14.449-22.74c.943-9.285,1.738-17.13-3.525-24.826a4.27,4.27,0,0,0-3.625-5.313,7.944,7.944,0,0,0-6.554,2.78Z" transform="translate(23.526 64.164)" fill="#596d9e"/>
    <path id="Trazado_13799" data-name="Trazado 13799" d="M303.467,44.253A22.144,22.144,0,0,0,290.806,56.07a8.441,8.441,0,0,0,.546,8.59,7.448,7.448,0,0,0,6.554,1.936,24.828,24.828,0,0,0,6.7-2.284,73.931,73.931,0,0,1,38.579-5.263l1.887-3.774c-4.171-8.59-14.548-12.314-24.081-13.058a40.317,40.317,0,0,0-17.527,2.036Z" transform="translate(10.191 47.188)" fill="#596d9e"/>
    <path id="Trazado_13800" data-name="Trazado 13800" d="M339.31,37.6a25.77,25.77,0,0,0-4.568,16.633,52.931,52.931,0,0,1-1.688,17.477c-1.39,3.873-4.965,7.746-9.037,6.9a19.514,19.514,0,0,1-5.611-3.128,12.363,12.363,0,0,0-13.207.745c-3.774,2.78-2.284,9.93-1.241,14.9h0a12.91,12.91,0,0,0,7.7,9.93,13.108,13.108,0,0,0,16.484-7.895,4.369,4.369,0,0,0,6.206,2.135,11.27,11.27,0,0,0,4.568-5.76,17.777,17.777,0,0,1,3.923-6.355c4.22-3.525,10.476-1.489,15.789,0a22.144,22.144,0,0,0,14.548,0,9.93,9.93,0,0,0,5.958-12.016c-2.979-7.646-15.442-6.355-19.861-13.158s.6-16.037-4.369-21.7A10.725,10.725,0,0,0,339.31,37.6Z" transform="translate(61.288 13.672)" fill="#596d9e"/>
    <path id="Trazado_13801" data-name="Trazado 13801" d="M310.151,35.76c.7.3-1.489,6.6-2.185,14.9s0,14.647-.546,14.9a25.075,25.075,0,0,1-2.036-14.9,25.324,25.324,0,0,1,4.766-14.9Z" transform="translate(70.238 22.464)" fill="#263238"/>
    <path id="Trazado_13802" data-name="Trazado 13802" d="M342.912,47.26A133.563,133.563,0,0,0,315.951,49.4a204.618,204.618,0,0,0-25.521,9.136,54.617,54.617,0,0,1,24.826-11.668,48.509,48.509,0,0,1,27.656.4Z" transform="translate(12.354 59.275)" fill="#263238"/>
    <g id="Grupo_566" data-name="Grupo 566" transform="translate(325.475 132.552)" opacity="0.3">
      <path id="Trazado_13803" data-name="Trazado 13803" d="M389.338,50.73a24.826,24.826,0,0,1-25.521,23.187,16.981,16.981,0,0,0-8.788,0,15.691,15.691,0,0,0-5.908,7.051A49.652,49.652,0,0,1,295,102.02a45.381,45.381,0,0,0,27.209,4.171C346.191,103.808,352,80.223,359.8,78.932s17.527-1.043,24.379-6.057S389.338,50.73,389.338,50.73Z" transform="translate(-295 -50.73)"/>
    </g>
    <g id="Grupo_567" data-name="Grupo 567" transform="translate(302.434 99.226)" opacity="0.3">
      <path id="Trazado_13804" data-name="Trazado 13804" d="M314.691,44.227a34.756,34.756,0,0,0-23.684,13.555c-.5.645-.944,1.589-.4,2.234s1.638.348,2.433,0A81.628,81.628,0,0,1,341.9,51.178l-.4-.6a42.254,42.254,0,0,0-26.812-6.355Z" transform="translate(-290.36 -44.018)"/>
    </g>
  </g>
</svg>
