<svg xmlns="http://www.w3.org/2000/svg" width="181.237" height="147.441" viewBox="0 0 181.237 147.441">
  <g id="Grupo_957" data-name="Grupo 957" transform="translate(-186.646 -145.28)">
    <path id="Trazado_13656" data-name="Trazado 13656" d="M325.2,225.758a30.417,30.417,0,0,0,13.312-50.308,23.451,23.451,0,0,0-30.108-27.089,37.073,37.073,0,0,0-54.178,32.894A58.4,58.4,0,1,0,261.31,280.9a35.021,35.021,0,0,1,10.449-6.192c6.385-1.7,12.925,1.355,19.349,3.6a53.636,53.636,0,0,0,37.925.813c12-4.837,21.594-16.64,21.4-29.566S338.049,224.288,325.2,225.758Z" transform="translate(17.448 1.101)" fill="#ebebeb"/>
    <path id="Trazado_13657" data-name="Trazado 13657" d="M245.867,194.581a5.952,5.952,0,0,1-1.161,1.819,12.461,12.461,0,0,1-4.992,3.406,13.08,13.08,0,0,1-9.288,0,14.28,14.28,0,0,1-8.436-8.32l.813.619a37.924,37.924,0,0,1-12.306-3.019,29.372,29.372,0,0,1-12.616-10.178,24.38,24.38,0,0,1-3.87-12.654,19.349,19.349,0,0,1,1.7-8.746,7.158,7.158,0,0,1,1.78-2.748,26.392,26.392,0,0,0-2.051,11.416,23.994,23.994,0,0,0,4.18,11.61,27.979,27.979,0,0,0,11.958,9.365,37.964,37.964,0,0,0,11.609,2.98h.619v.58a12.654,12.654,0,0,0,7.2,7.43,12.151,12.151,0,0,0,8.32.271,18.731,18.731,0,0,0,6.54-3.831Z" transform="translate(88.616 31.465)" fill="#e0e0e0"/>
    <path id="Trazado_13658" data-name="Trazado 13658" d="M212.086,235.541a19.375,19.375,0,0,1-2.67-2.206,84.062,84.062,0,0,1-6.385-6.888,56,56,0,0,1-12.925-28.018,70.471,70.471,0,0,1,2.322-30.959,55.375,55.375,0,0,1,3.444-8.746c.967-1.974,1.664-3.018,1.78-2.941s-1.858,4.528-3.87,12.074a77.4,77.4,0,0,0-1.7,30.185,58.86,58.86,0,0,0,12.074,27.437C208.913,231.787,212.318,235.308,212.086,235.541Z" transform="translate(75.263 34.39)" fill="#e0e0e0"/>
    <path id="Trazado_13659" data-name="Trazado 13659" d="M239.747,184.979a14.743,14.743,0,0,1-5.8,1.161,39.163,39.163,0,0,1-14.28-1.122,23.993,23.993,0,0,1-12.035-7.74,9.365,9.365,0,0,1-2.477-5.418c.31,0,1.2,1.935,3.56,4.489a26.237,26.237,0,0,0,11.61,6.888,50.308,50.308,0,0,0,13.622,1.625,23.218,23.218,0,0,1,5.8.116Z" transform="translate(120.626 80.54)" fill="#e0e0e0"/>
  </g>
</svg>
