<svg xmlns="http://www.w3.org/2000/svg" width="175.15" height="187.333" viewBox="0 0 175.15 187.333">
  <g id="Grupo_956" data-name="Grupo 956" transform="translate(-246.126 -104.336)">
    <path id="Trazado_13814" data-name="Trazado 13814" d="M278.265,157.571a76.264,76.264,0,0,0-55.128,40.456c-5.084,10.132-7.808,22.08-4.322,32.866a62.283,62.283,0,0,0,14.272,21.426c10.6,11.912,23.061,24.695,38.967,25.058a37.042,37.042,0,0,0,22.443-7.844A74.632,74.632,0,0,0,310.8,251.739a49.172,49.172,0,0,0,47.211,7.99c11.222-4.14,21.535-14.527,20.373-26.366a25.6,25.6,0,0,0-10.277-17,73.577,73.577,0,0,0-18.158-9.478,77.935,77.935,0,0,0,29.271-14.744c8.171-7.263,13.473-18.884,10.895-29.561-1.38-5.556-4.757-10.423-6.1-15.979-.98-4.067-.872-8.353-2.106-12.348a25.421,25.421,0,0,0-16.923-15.471,76.264,76.264,0,0,0-23.678-2.47,38.5,38.5,0,1,0-63.7,40.384" transform="translate(29.322 13.383)" fill="#fff"/>
    <path id="Trazado_13815" data-name="Trazado 13815" d="M277.933,157.046s-.617-.581-1.707-1.78a34.065,34.065,0,0,1-4.176-5.883,40.238,40.238,0,0,1-4.54-26.583,37.151,37.151,0,0,1,8.607-17.722,40.674,40.674,0,0,1,19.72-12.384,37.224,37.224,0,0,1,26.329,2.433,39.949,39.949,0,0,1,20.192,21.463l-.727-.508a112.266,112.266,0,0,1,15.87.654,37.586,37.586,0,0,1,15.8,5.484A23.06,23.06,0,0,1,383.612,136.2c.654,2.942.8,5.92,1.271,8.752a31.623,31.623,0,0,0,2.724,8.28,77.645,77.645,0,0,1,3.632,8.534,26.044,26.044,0,0,1,.944,9.479,33.448,33.448,0,0,1-7.445,17.613,47.574,47.574,0,0,1-15.325,12.13,110.216,110.216,0,0,1-18.485,7.263v-1.779a85.016,85.016,0,0,1,16.342,8.207,29.634,29.634,0,0,1,11.73,15,19.936,19.936,0,0,1,0,12.093,26.221,26.221,0,0,1-6.174,10.2,38.894,38.894,0,0,1-20.264,10.895,50.443,50.443,0,0,1-41.836-9.951l1.307-.182a75.535,75.535,0,0,1-16.488,17.94,37.987,37.987,0,0,1-22.044,7.99,37.006,37.006,0,0,1-21.209-7.263A93.551,93.551,0,0,1,236.5,257.1a144.358,144.358,0,0,1-12.82-15.434,35.409,35.409,0,0,1-6.464-17.65,44.56,44.56,0,0,1,2.361-17.323,63.594,63.594,0,0,1,6.936-14.527,76.99,76.99,0,0,1,35.844-29.924,73.581,73.581,0,0,1,12.093-3.632l3.232-.545h1.089a4,4,0,0,1-1.089.291l-3.16.69a80.988,80.988,0,0,0-12.093,3.7,77.2,77.2,0,0,0-17.25,10.168,75.5,75.5,0,0,0-17.9,19.792,64.757,64.757,0,0,0-6.682,14.2,43.582,43.582,0,0,0-2.215,16.814,34.464,34.464,0,0,0,6.319,16.96,143.125,143.125,0,0,0,12.783,15.18,92.755,92.755,0,0,0,15.543,14.018,35.59,35.59,0,0,0,20.264,6.864,36.317,36.317,0,0,0,21.027-7.7,74.484,74.484,0,0,0,16.052-17.577l.581-.8.763.617a48.591,48.591,0,0,0,40.275,9.551,37.042,37.042,0,0,0,19.284-10.386,20.736,20.736,0,0,0,5.847-20.446,27.527,27.527,0,0,0-10.895-13.982A82.3,82.3,0,0,0,350.238,208l-2.4-.981,2.469-.763a112.356,112.356,0,0,0,18.158-7.263,46.2,46.2,0,0,0,14.781-11.658,32.1,32.1,0,0,0,7.082-16.633,24.661,24.661,0,0,0-.872-8.789,67.9,67.9,0,0,0-3.414-8.316,34.425,34.425,0,0,1-2.8-8.716c-.509-2.978-.618-5.919-1.271-8.68a21.282,21.282,0,0,0-9.515-12.965,35.843,35.843,0,0,0-15.107-5.266,113.889,113.889,0,0,0-15.652-.69h-.545v-.472A38.75,38.75,0,0,0,321.8,96.071a36.062,36.062,0,0,0-25.421-2.506,39.947,39.947,0,0,0-19.248,11.875,36.316,36.316,0,0,0-8.534,17.178,40.237,40.237,0,0,0,4.068,26.4A52.574,52.574,0,0,0,277.933,157.046Z" transform="translate(29 13)" fill="#263238"/>
    <path id="Trazado_13816" data-name="Trazado 13816" d="M236.545,109.49a15.435,15.435,0,0,1,3.632,2.106,63.443,63.443,0,0,1,8.9,7.263,73.394,73.394,0,0,1,18.884,32.685,71.652,71.652,0,0,1-.472,37.841,64.48,64.48,0,0,1-4.14,10.895,14.232,14.232,0,0,1-2.179,3.632,154.511,154.511,0,0,0,5.012-14.744,74.7,74.7,0,0,0,0-36.97,75.938,75.938,0,0,0-18.158-32.321C241.52,112.94,236.327,109.781,236.545,109.49Z" transform="translate(80.084 60.774)" fill="#263238"/>
    <path id="Trazado_13817" data-name="Trazado 13817" d="M241.865,102.961a30.506,30.506,0,0,0-4.249,16.161,28,28,0,0,0,1.307,10.278,12.674,12.674,0,0,0,6.791,7.481l2,1.126c1.38-12.82,8.825-21.209,18.775-27.564A33.627,33.627,0,0,1,256.21,95.915a14.889,14.889,0,0,0-14.345,7.045Z" transform="translate(82.79 24.813)" fill="#596d9e"/>
    <path id="Trazado_13818" data-name="Trazado 13818" d="M279.621,99.535c0,.363-3.632-.254-9.442.763a34.21,34.21,0,0,0-28.581,30.76c-.617,5.811.254,9.442,0,9.479a6.428,6.428,0,0,1-.8-2.469,29.532,29.532,0,0,1-.472-7.263,33.7,33.7,0,0,1,29.707-31.958,29.054,29.054,0,0,1,7.263,0,6.683,6.683,0,0,1,2.324.69Z" transform="translate(89.921 32.161)" fill="#263238"/>
    <path id="Trazado_13819" data-name="Trazado 13819" d="M247.77,122.22a74.674,74.674,0,0,1,10.895,2.215,76.268,76.268,0,0,1,10.895,1.925,31.123,31.123,0,0,1-21.79-4.14Z" transform="translate(109.642 94.275)" fill="#263238"/>
    <path id="Trazado_13820" data-name="Trazado 13820" d="M287.448,108.721a144.787,144.787,0,0,0-16.814.872,158.545,158.545,0,0,0-16.233,4.5,39.584,39.584,0,0,1,33.048-5.375Z" transform="translate(127.09 54.824)" fill="#263238"/>
    <g id="Grupo_570" data-name="Grupo 570" transform="translate(319.861 172.988)" opacity="0.3">
      <path id="Trazado_13821" data-name="Trazado 13821" d="M262.416,195.147a69.218,69.218,0,0,0,7.7-49.027,49.5,49.5,0,0,0-32.684-35.88C263.251,130.178,274.291,160.756,262.416,195.147Z" transform="translate(-237.43 -110.24)"/>
    </g>
    <g id="Grupo_571" data-name="Grupo 571" transform="translate(329.808 134.587)" opacity="0.3">
      <path id="Trazado_13822" data-name="Trazado 13822" d="M243.7,109.922a25.422,25.422,0,0,0-2.942,18.34h.29c.654-13.146,8.28-22.371,19.938-28.508C254.409,98.918,247,104.184,243.7,109.922Z" transform="translate(-240.169 -99.666)"/>
    </g>
  </g>
</svg>
