<svg xmlns="http://www.w3.org/2000/svg" width="223.405" height="187.45" viewBox="0 0 223.405 187.45">
  <g id="Grupo_953" data-name="Grupo 953" transform="translate(-113.984 -722.421)">
    <path id="Trazado_13864" data-name="Trazado 13864" d="M200.631,456.917a51.581,51.581,0,0,0-35.2-5.68,44.7,44.7,0,0,0-27.988,17.539,21.893,21.893,0,0,0,11.112,22.1,35.327,35.327,0,0,0,25.625,2.9,96.412,96.412,0,0,0,24.256-10.242c5.515-2.985,11.651-7.09,11.983-13.351S205.648,459.736,200.631,456.917Z" transform="translate(72.228 321.173)" fill="#596d9e"/>
    <g id="Grupo_579" data-name="Grupo 579" transform="translate(216.758 786.584)" opacity="0.3">
      <path id="Trazado_13865" data-name="Trazado 13865" d="M139,471.6l.456,3.815a8.915,8.915,0,0,0,6.468,5.515,23.643,23.643,0,0,0,8.707,0A106.019,106.019,0,0,0,182.786,474a48.182,48.182,0,0,0,22.266-18.327A78.449,78.449,0,0,0,139,471.6Z" transform="translate(-139 -453.929)"/>
    </g>
    <path id="Trazado_13866" data-name="Trazado 13866" d="M309.382,511.317c-25.251-14.222-57.137-4.146-82.637,9.537L221.727,524c-6.551-7.049-13.351-14.512-15.756-23.8s1.368-20.981,10.49-24.049c7.754-2.612,17.166,1.493,24.09-2.9a14.554,14.554,0,0,0,4.146-18.161,28.071,28.071,0,0,0-15.217-12.812,55.976,55.976,0,0,0-69.949,27.946,32.59,32.59,0,0,0-32.3,55.934,48.18,48.18,0,0,0-3.027,50.876,50.5,50.5,0,0,0,90.184,27.656,87.363,87.363,0,0,0,68.54,15.632c23.593-5.183,44.573-23.1,51.042-46.4S330.4,523.175,309.382,511.317Z" transform="translate(0.919 284.809)" fill="#fff"/>
    <path id="Trazado_13867" data-name="Trazado 13867" d="M310.53,512.16l.912.456,2.571,1.576c1.12.7,2.405,1.742,4.146,2.9a63.8,63.8,0,0,1,4.893,4.768,55.19,55.19,0,0,1,10.076,15.963,58.923,58.923,0,0,1,4.437,25.086,57.178,57.178,0,0,1-10.034,29.812,70.818,70.818,0,0,1-28.112,24.008,74.634,74.634,0,0,1-41.464,6.468,93.3,93.3,0,0,1-43.122-16.876l1.327-.207a51.539,51.539,0,0,1-92.008-28.154v.415a49.217,49.217,0,0,1,2.861-51.705l.207-.29v1.493a33.627,33.627,0,0,1,33.171-57.759l-1.368.539a55.062,55.062,0,0,1,8.293-13.02,61.281,61.281,0,0,1,12.356-9.868,59.377,59.377,0,0,1,27.947-9.163,50.667,50.667,0,0,1,27.573,5.722,27.157,27.157,0,0,1,10.241,9.246,17.373,17.373,0,0,1,2.156,13.393,13.726,13.726,0,0,1-3.234,6.012,12.855,12.855,0,0,1-5.8,3.441,43.624,43.624,0,0,1-12.646.5,19.2,19.2,0,0,0-11.112,2.322,16.584,16.584,0,0,0-6.427,8.79,23.056,23.056,0,0,0-1,10.7,30.269,30.269,0,0,0,3.566,9.868,82.391,82.391,0,0,0,12.439,15.756H222.5c24.878-15.217,48.8-20.732,64.725-19.2a55.734,55.734,0,0,1,17.7,4.146,52.615,52.615,0,0,1,5.6,2.9,6.214,6.214,0,0,1-1.493-.622c-.954-.415-2.322-1.2-4.146-1.907a56.8,56.8,0,0,0-17.622-3.815c-15.715-1.2-39.183,4.4-63.937,19.612l-.5.29-.373-.415a85.3,85.3,0,0,1-12.688-15.964A32.3,32.3,0,0,1,206,499.016a24.172,24.172,0,0,1,1-11.485,18.493,18.493,0,0,1,7.049-9.661,20.193,20.193,0,0,1,12.066-2.612,43.529,43.529,0,0,0,12.107-.539,10.864,10.864,0,0,0,7.754-8.293,15.424,15.424,0,0,0-1.949-11.941,25.747,25.747,0,0,0-9.62-8.583,48.884,48.884,0,0,0-26.5-5.391,57.3,57.3,0,0,0-26.951,8.915,59.587,59.587,0,0,0-11.237,9.5,54.15,54.15,0,0,0-8.293,12.439l-.456.954-.912-.415a31.512,31.512,0,0,0-31.222,54.11l.788.622-.581.871v.29a47.351,47.351,0,0,0-2.861,49.756V578A49.466,49.466,0,0,0,214.5,605.122l.58-.7.746.539a92.005,92.005,0,0,0,42.21,16.585,73.389,73.389,0,0,0,40.427-6.178,69.325,69.325,0,0,0,27.615-23.344,56.263,56.263,0,0,0,10.034-29.024,58.047,58.047,0,0,0-4.146-24.671,55.893,55.893,0,0,0-9.7-15.922A54.939,54.939,0,0,0,310.53,512.16Z" transform="translate(-0.229 283.967)" fill="#263238"/>
    <path id="Trazado_13868" data-name="Trazado 13868" d="M207.732,477.389a131.5,131.5,0,0,0-11.237-9.827,57.842,57.842,0,0,0-67.13-.829,122.012,122.012,0,0,0-11.486,9.62,11.323,11.323,0,0,1,2.363-3.317,51.413,51.413,0,0,1,8.293-7.547,56.847,56.847,0,0,1,68.954.829,51.69,51.69,0,0,1,7.961,7.629,15.343,15.343,0,0,1,2.281,3.441Z" transform="translate(11.306 333.665)" fill="#263238"/>
    <path id="Trazado_13869" data-name="Trazado 13869" d="M144.458,481.128a12.436,12.436,0,0,1-5.763-2.571,31.222,31.222,0,0,1-13.434-26.371,11.279,11.279,0,0,1,1.327-6.137,40.341,40.341,0,0,1,0,6.137,35.907,35.907,0,0,0,3.815,13.89,35.079,35.079,0,0,0,9,11.237C142.509,479.677,144.583,480.8,144.458,481.128Z" transform="translate(34.443 307.867)" fill="#263238"/>
    <g id="Grupo_580" data-name="Grupo 580" transform="translate(206.76 816.07)" opacity="0.3">
      <path id="Trazado_13870" data-name="Trazado 13870" d="M147.293,528.875a81.227,81.227,0,0,1,3.815-67.835s-16.129,19.529-14.388,38.727a53.156,53.156,0,0,0,10.573,29.108Z" transform="translate(-136.588 -461.04)"/>
    </g>
    <path id="Trazado_13871" data-name="Trazado 13871" d="M144.262,528.874a31.968,31.968,0,0,1-3.9-9.578,76.541,76.541,0,0,1,2.737-49.176,31.1,31.1,0,0,1,4.976-9.08A94,94,0,0,0,144.262,528.874Z" transform="translate(73.201 355.03)" fill="#263238"/>
    <path id="Trazado_13872" data-name="Trazado 13872" d="M155.172,474.026c0,.249-1.741,1.617-5.224,2.944a35.7,35.7,0,0,1-14.346,2.073,35.241,35.241,0,0,1-13.973-3.69c-3.317-1.7-5.017-3.276-4.893-3.483a65.026,65.026,0,0,0,18.99,5.017,64.638,64.638,0,0,0,19.446-2.861Z" transform="translate(7.684 389.104)" fill="#263238"/>
  </g>
</svg>
