<svg xmlns="http://www.w3.org/2000/svg" width="461.342" height="569.643" viewBox="0 0 461.342 569.643">
  <g id="To_the_stars-rafiki" data-name="To the stars-rafiki" transform="translate(0 203.709)">
    <g id="freepik--background-complete--inject-3" transform="translate(0 55)">
      <rect id="Rectángulo_2911" data-name="Rectángulo 2911" width="417.293" height="0.209" transform="translate(0 273.244)" fill="#3c4e64"/>
      <rect id="Rectángulo_2912" data-name="Rectángulo 2912" width="27.641" height="0.209" transform="translate(347.839 286.672)" fill="#3c4e64"/>
      <rect id="Rectángulo_2913" data-name="Rectángulo 2913" width="7.253" height="0.209" transform="translate(269.179 288.942)" fill="#3c4e64"/>
      <rect id="Rectángulo_2914" data-name="Rectángulo 2914" width="16.016" height="0.209" transform="translate(330.989 278.927)" fill="#3c4e64"/>
      <rect id="Rectángulo_2915" data-name="Rectángulo 2915" width="36.046" height="0.209" transform="translate(43.782 280.329)" fill="#3c4e64"/>
      <rect id="Rectángulo_2916" data-name="Rectángulo 2916" width="5.283" height="0.209" transform="translate(87.264 280.329)" fill="#3c4e64"/>
      <rect id="Rectángulo_2917" data-name="Rectángulo 2917" width="78.184" height="0.209" transform="translate(109.723 283.851)" fill="#3c4e64"/>
      <path id="Trazado_26798" data-name="Trazado 26798" d="M214.529,75.274l.7,1.427a.559.559,0,0,0,.434.309l1.577.234a.568.568,0,0,1,.309.968l-1.135,1.118a.559.559,0,0,0-.167.5l.267,1.569a.568.568,0,0,1-.835.6l-1.41-.743a.584.584,0,0,0-.526,0L212.326,82a.568.568,0,0,1-.835-.6l.275-1.569a.584.584,0,0,0-.167-.5l-1.143-1.118a.568.568,0,0,1,.317-.968l1.577-.234a.576.576,0,0,0,.434-.309l.7-1.427a.576.576,0,0,1,1.043,0Z" transform="translate(-34.784 -58.299)" fill="#3c4e64"/>
      <path id="Trazado_26861" data-name="Trazado 26861" d="M214.529,75.274l.7,1.427a.559.559,0,0,0,.434.309l1.577.234a.568.568,0,0,1,.309.968l-1.135,1.118a.559.559,0,0,0-.167.5l.267,1.569a.568.568,0,0,1-.835.6l-1.41-.743a.584.584,0,0,0-.526,0L212.326,82a.568.568,0,0,1-.835-.6l.275-1.569a.584.584,0,0,0-.167-.5l-1.143-1.118a.568.568,0,0,1,.317-.968l1.577-.234a.576.576,0,0,0,.434-.309l.7-1.427a.576.576,0,0,1,1.043,0Z" transform="translate(480.589 -28.997) rotate(167)" fill="#3c4e64"/>
      <path id="Trazado_26799" data-name="Trazado 26799" d="M90.022,216.126l.709,1.435a.568.568,0,0,0,.426.309l1.577.234a.568.568,0,0,1,.317.968l-1.143,1.11a.576.576,0,0,0-.159.509l.267,1.569a.568.568,0,0,1-.835.6l-1.41-.743a.6.6,0,0,0-.534,0l-1.41.743a.568.568,0,0,1-.835-.6l.267-1.569a.576.576,0,0,0-.159-.509l-1.135-1.11a.568.568,0,0,1,.317-.968l1.577-.234a.568.568,0,0,0,.426-.309L89,216.126a.568.568,0,0,1,1.027,0Z" transform="translate(-14.192 -81.599)" fill="#3c4e64"/>
      <path id="Trazado_26875" data-name="Trazado 26875" d="M90.022,216.126l.709,1.435a.568.568,0,0,0,.426.309l1.577.234a.568.568,0,0,1,.317.968l-1.143,1.11a.576.576,0,0,0-.159.509l.267,1.569a.568.568,0,0,1-.835.6l-1.41-.743a.6.6,0,0,0-.534,0l-1.41.743a.568.568,0,0,1-.835-.6l.267-1.569a.576.576,0,0,0-.159-.509l-1.135-1.11a.568.568,0,0,1,.317-.968l1.577-.234a.568.568,0,0,0,.426-.309L89,216.126a.568.568,0,0,1,1.027,0Z" transform="translate(-62.535 36.805)" fill="#3c4e64"/>
      <path id="Trazado_26865" data-name="Trazado 26865" d="M90.022,216.126l.709,1.435a.568.568,0,0,0,.426.309l1.577.234a.568.568,0,0,1,.317.968l-1.143,1.11a.576.576,0,0,0-.159.509l.267,1.569a.568.568,0,0,1-.835.6l-1.41-.743a.6.6,0,0,0-.534,0l-1.41.743a.568.568,0,0,1-.835-.6l.267-1.569a.576.576,0,0,0-.159-.509l-1.135-1.11a.568.568,0,0,1,.317-.968l1.577-.234a.568.568,0,0,0,.426-.309L89,216.126a.568.568,0,0,1,1.027,0Z" transform="translate(304.814 -13.718)" fill="#3c4e64"/>
      <path id="Trazado_26869" data-name="Trazado 26869" d="M90.022,216.126l.709,1.435a.568.568,0,0,0,.426.309l1.577.234a.568.568,0,0,1,.317.968l-1.143,1.11a.576.576,0,0,0-.159.509l.267,1.569a.568.568,0,0,1-.835.6l-1.41-.743a.6.6,0,0,0-.534,0l-1.41.743a.568.568,0,0,1-.835-.6l.267-1.569a.576.576,0,0,0-.159-.509l-1.135-1.11a.568.568,0,0,1,.317-.968l1.577-.234a.568.568,0,0,0,.426-.309L89,216.126a.568.568,0,0,1,1.027,0Z" transform="matrix(0.788, 0.616, -0.616, 0.788, 122.652, -324.929)" fill="#3c4e64"/>
      <path id="Trazado_26872" data-name="Trazado 26872" d="M90.022,216.126l.709,1.435a.568.568,0,0,0,.426.309l1.577.234a.568.568,0,0,1,.317.968l-1.143,1.11a.576.576,0,0,0-.159.509l.267,1.569a.568.568,0,0,1-.835.6l-1.41-.743a.6.6,0,0,0-.534,0l-1.41.743a.568.568,0,0,1-.835-.6l.267-1.569a.576.576,0,0,0-.159-.509l-1.135-1.11a.568.568,0,0,1,.317-.968l1.577-.234a.568.568,0,0,0,.426-.309L89,216.126a.568.568,0,0,1,1.027,0Z" transform="matrix(0.788, 0.616, -0.616, 0.788, 74.308, -206.526)" fill="#3c4e64"/>
      <path id="Trazado_26860" data-name="Trazado 26860" d="M90.022,216.126l.709,1.435a.568.568,0,0,0,.426.309l1.577.234a.568.568,0,0,1,.317.968l-1.143,1.11a.576.576,0,0,0-.159.509l.267,1.569a.568.568,0,0,1-.835.6l-1.41-.743a.6.6,0,0,0-.534,0l-1.41.743a.568.568,0,0,1-.835-.6l.267-1.569a.576.576,0,0,0-.159-.509l-1.135-1.11a.568.568,0,0,1,.317-.968l1.577-.234a.568.568,0,0,0,.426-.309L89,216.126a.568.568,0,0,1,1.027,0Z" transform="translate(465.765 -1.66) rotate(167)" fill="#3c4e64"/>
      <path id="Trazado_26800" data-name="Trazado 26800" d="M74.317,121.622l.7,1.427a.576.576,0,0,0,.426.317l1.577.225a.576.576,0,0,1,.317.976l-1.143,1.11a.592.592,0,0,0-.167.5l.275,1.577a.568.568,0,0,1-.835.6l-1.41-.743a.551.551,0,0,0-.534,0l-1.41.743a.568.568,0,0,1-.835-.6l.267-1.577a.543.543,0,0,0-.167-.5l-1.135-1.11a.568.568,0,0,1,.309-.976l1.577-.225a.593.593,0,0,0,.434-.317l.7-1.427a.576.576,0,0,1,1.052,0Z" transform="translate(-11.59 -65.964)" fill="#3c4e64"/>
      <path id="Trazado_26874" data-name="Trazado 26874" d="M74.317,121.622l.7,1.427a.576.576,0,0,0,.426.317l1.577.225a.576.576,0,0,1,.317.976l-1.143,1.11a.592.592,0,0,0-.167.5l.275,1.577a.568.568,0,0,1-.835.6l-1.41-.743a.551.551,0,0,0-.534,0l-1.41.743a.568.568,0,0,1-.835-.6l.267-1.577a.543.543,0,0,0-.167-.5l-1.135-1.11a.568.568,0,0,1,.309-.976l1.577-.225a.593.593,0,0,0,.434-.317l.7-1.427a.576.576,0,0,1,1.052,0Z" transform="translate(-59.933 52.439)" fill="#3c4e64"/>
      <path id="Trazado_26862" data-name="Trazado 26862" d="M74.317,121.622l.7,1.427a.576.576,0,0,0,.426.317l1.577.225a.576.576,0,0,1,.317.976l-1.143,1.11a.592.592,0,0,0-.167.5l.275,1.577a.568.568,0,0,1-.835.6l-1.41-.743a.551.551,0,0,0-.534,0l-1.41.743a.568.568,0,0,1-.835-.6l.267-1.577a.543.543,0,0,0-.167-.5l-1.135-1.11a.568.568,0,0,1,.309-.976l1.577-.225a.593.593,0,0,0,.434-.317l.7-1.427a.576.576,0,0,1,1.052,0Z" transform="translate(307.416 1.917)" fill="#3c4e64"/>
      <path id="Trazado_26866" data-name="Trazado 26866" d="M74.317,121.622l.7,1.427a.576.576,0,0,0,.426.317l1.577.225a.576.576,0,0,1,.317.976l-1.143,1.11a.592.592,0,0,0-.167.5l.275,1.577a.568.568,0,0,1-.835.6l-1.41-.743a.551.551,0,0,0-.534,0l-1.41.743a.568.568,0,0,1-.835-.6l.267-1.577a.543.543,0,0,0-.167-.5l-1.135-1.11a.568.568,0,0,1,.309-.976l1.577-.225a.593.593,0,0,0,.434-.317l.7-1.427a.576.576,0,0,1,1.052,0Z" transform="matrix(0.788, 0.616, -0.616, 0.788, 115.076, -311.008)" fill="#3c4e64"/>
      <path id="Trazado_26859" data-name="Trazado 26859" d="M74.317,121.622l.7,1.427a.576.576,0,0,0,.426.317l1.577.225a.576.576,0,0,1,.317.976l-1.143,1.11a.592.592,0,0,0-.167.5l.275,1.577a.568.568,0,0,1-.835.6l-1.41-.743a.551.551,0,0,0-.534,0l-1.41.743a.568.568,0,0,1-.835-.6l.267-1.577a.543.543,0,0,0-.167-.5l-1.135-1.11a.568.568,0,0,1,.309-.976l1.577-.225a.593.593,0,0,0,.434-.317l.7-1.427a.576.576,0,0,1,1.052,0Z" transform="translate(459.714 -16.309) rotate(167)" fill="#3c4e64"/>
      <path id="Trazado_26801" data-name="Trazado 26801" d="M150.431,164.636l.417.835a.35.35,0,0,0,.259.184l.943.134a.342.342,0,0,1,.184.584l-.676.668a.334.334,0,0,0-.1.3l.159.935a.334.334,0,0,1-.492.359l-.835-.442a.351.351,0,0,0-.317,0l-.835.442a.334.334,0,0,1-.492-.359l.159-.935a.334.334,0,0,0-.1-.3l-.684-.668a.342.342,0,0,1,.192-.584l.943-.134a.35.35,0,0,0,.259-.184l.417-.835a.351.351,0,0,1,.6,0Z" transform="translate(-24.467 -73.107)" fill="#3c4e64"/>
      <path id="Trazado_26858" data-name="Trazado 26858" d="M150.431,164.636l.417.835a.35.35,0,0,0,.259.184l.943.134a.342.342,0,0,1,.184.584l-.676.668a.334.334,0,0,0-.1.3l.159.935a.334.334,0,0,1-.492.359l-.835-.442a.351.351,0,0,0-.317,0l-.835.442a.334.334,0,0,1-.492-.359l.159-.935a.334.334,0,0,0-.1-.3l-.684-.668a.342.342,0,0,1,.192-.584l.943-.134a.35.35,0,0,0,.259-.184l.417-.835a.351.351,0,0,1,.6,0Z" transform="translate(473.867 -12.247) rotate(167)" fill="#3c4e64"/>
      <path id="Trazado_26802" data-name="Trazado 26802" d="M119.783,295.666l.417.835a.359.359,0,0,0,.259.192l.943.134a.342.342,0,0,1,.192.584l-.684.659a.35.35,0,0,0-.1.309l.167.935a.342.342,0,0,1-.5.359l-.835-.442a.351.351,0,0,0-.317,0l-.835.442a.342.342,0,0,1-.492-.359l.159-.935a.351.351,0,0,0-.092-.309l-.684-.659a.342.342,0,0,1,.184-.584l.943-.134a.342.342,0,0,0,.259-.192l.426-.835a.342.342,0,0,1,.593,0Z" transform="translate(-19.399 -94.781)" fill="#3c4e64"/>
      <path id="Trazado_26857" data-name="Trazado 26857" d="M119.783,295.666l.417.835a.359.359,0,0,0,.259.192l.943.134a.342.342,0,0,1,.192.584l-.684.659a.35.35,0,0,0-.1.309l.167.935a.342.342,0,0,1-.5.359l-.835-.442a.351.351,0,0,0-.317,0l-.835.442a.342.342,0,0,1-.492-.359l.159-.935a.351.351,0,0,0-.092-.309l-.684-.659a.342.342,0,0,1,.184-.584l.943-.134a.342.342,0,0,0,.259-.192l.426-.835a.342.342,0,0,1,.593,0Z" transform="translate(473.804 10.012) rotate(167)" fill="#3c4e64"/>
      <path id="Trazado_26803" data-name="Trazado 26803" d="M433.9,76.862l.417.835a.325.325,0,0,0,.259.184l.943.142a.342.342,0,0,1,.192.584l-.684.659a.342.342,0,0,0-.1.3l.167.943a.342.342,0,0,1-.5.359l-.835-.442a.351.351,0,0,0-.317,0l-.835.442a.342.342,0,0,1-.492-.359l.159-.943a.342.342,0,0,0-.092-.3l-.7-.651a.342.342,0,0,1,.184-.584l.943-.142a.317.317,0,0,0,.259-.184l.426-.835a.334.334,0,0,1,.609-.008Z" transform="translate(-71.355 -58.584)" fill="#3c4e64"/>
      <path id="Trazado_26856" data-name="Trazado 26856" d="M433.9,76.862l.417.835a.325.325,0,0,0,.259.184l.943.142a.342.342,0,0,1,.192.584l-.684.659a.342.342,0,0,0-.1.3l.167.943a.342.342,0,0,1-.5.359l-.835-.442a.351.351,0,0,0-.317,0l-.835.442a.342.342,0,0,1-.492-.359l.159-.943a.342.342,0,0,0-.092-.3l-.7-.651a.342.342,0,0,1,.184-.584l.943-.142a.317.317,0,0,0,.259-.184l.426-.835a.334.334,0,0,1,.609-.008Z" transform="translate(516.287 -36.944) rotate(167)" fill="#3c4e64"/>
      <path id="Trazado_26873" data-name="Trazado 26873" d="M433.9,76.862l.417.835a.325.325,0,0,0,.259.184l.943.142a.342.342,0,0,1,.192.584l-.684.659a.342.342,0,0,0-.1.3l.167.943a.342.342,0,0,1-.5.359l-.835-.442a.351.351,0,0,0-.317,0l-.835.442a.342.342,0,0,1-.492-.359l.159-.943a.342.342,0,0,0-.092-.3l-.7-.651a.342.342,0,0,1,.184-.584l.943-.142a.317.317,0,0,0,.259-.184l.426-.835a.334.334,0,0,1,.609-.008Z" transform="translate(467.944 81.459) rotate(167)" fill="#3c4e64"/>
      <path id="Trazado_26864" data-name="Trazado 26864" d="M433.9,76.862l.417.835a.325.325,0,0,0,.259.184l.943.142a.342.342,0,0,1,.192.584l-.684.659a.342.342,0,0,0-.1.3l.167.943a.342.342,0,0,1-.5.359l-.835-.442a.351.351,0,0,0-.317,0l-.835.442a.342.342,0,0,1-.492-.359l.159-.943a.342.342,0,0,0-.092-.3l-.7-.651a.342.342,0,0,1,.184-.584l.943-.142a.317.317,0,0,0,.259-.184l.426-.835a.334.334,0,0,1,.609-.008Z" transform="translate(835.293 30.936) rotate(167)" fill="#3c4e64"/>
      <path id="Trazado_26868" data-name="Trazado 26868" d="M433.9,76.862l.417.835a.325.325,0,0,0,.259.184l.943.142a.342.342,0,0,1,.192.584l-.684.659a.342.342,0,0,0-.1.3l.167.943a.342.342,0,0,1-.5.359l-.835-.442a.351.351,0,0,0-.317,0l-.835.442a.342.342,0,0,1-.492-.359l.159-.943a.342.342,0,0,0-.092-.3l-.7-.651a.342.342,0,0,1,.184-.584l.943-.142a.317.317,0,0,0,.259-.184l.426-.835a.334.334,0,0,1,.609-.008Z" transform="translate(513.183 36.854) rotate(-155)" fill="#3c4e64"/>
      <path id="Trazado_26804" data-name="Trazado 26804" d="M424.849,265.568l.726,1.477a.567.567,0,0,0,.442.317l1.669.242a.584.584,0,0,1,.326,1l-1.252,1.152a.609.609,0,0,0-.167.526l.284,1.669a.593.593,0,0,1-.835.618l-1.461-.768a.584.584,0,0,0-.551,0l-1.444.751a.584.584,0,0,1-.835-.618l.275-1.669a.584.584,0,0,0-.167-.526l-1.185-1.152a.593.593,0,0,1,.334-1l1.627-.242a.568.568,0,0,0,.442-.317l.734-1.477a.593.593,0,0,1,1.035.017Z" transform="translate(-69.557 -89.779)" fill="#3c4e64"/>
      <path id="Trazado_26855" data-name="Trazado 26855" d="M424.849,265.568l.726,1.477a.567.567,0,0,0,.442.317l1.669.242a.584.584,0,0,1,.326,1l-1.252,1.152a.609.609,0,0,0-.167.526l.284,1.669a.593.593,0,0,1-.835.618l-1.461-.768a.584.584,0,0,0-.551,0l-1.444.751a.584.584,0,0,1-.835-.618l.275-1.669a.584.584,0,0,0-.167-.526l-1.185-1.152a.593.593,0,0,1,.334-1l1.627-.242a.568.568,0,0,0,.442-.317l.734-1.477a.593.593,0,0,1,1.035.017Z" transform="translate(521.553 -6.145) rotate(167)" fill="#3c4e64"/>
      <path id="Trazado_26805" data-name="Trazado 26805" d="M318.15,99.67a1.11,1.11,0,1,1-1.11-1.11A1.11,1.11,0,0,1,318.15,99.67Z" transform="translate(-52.259 -62.205)" fill="#3c4e64"/>
      <path id="Trazado_26854" data-name="Trazado 26854" d="M318.15,99.67a1.11,1.11,0,1,1-1.11-1.11A1.11,1.11,0,0,1,318.15,99.67Z" transform="translate(498.494 -29.12) rotate(167)" fill="#3c4e64"/>
      <path id="Trazado_26806" data-name="Trazado 26806" d="M356.32,357.45a1.1,1.1,0,1,1-.323-.787A1.11,1.11,0,0,1,356.32,357.45Z" transform="translate(-58.573 -104.846)" fill="#3c4e64"/>
      <path id="Trazado_26853" data-name="Trazado 26853" d="M356.32,357.45a1.1,1.1,0,1,1-.323-.787A1.11,1.11,0,0,1,356.32,357.45Z" transform="translate(514.239 11.006) rotate(167)" fill="#3c4e64"/>
      <path id="Trazado_26807" data-name="Trazado 26807" d="M130.868,82.369a4.749,4.749,0,1,1-4.749-4.749,4.749,4.749,0,0,1,4.749,4.749Z" transform="translate(-20.076 -58.742)" fill="#3c4e64"/>
      <path id="Trazado_26870" data-name="Trazado 26870" d="M130.868,82.369a4.749,4.749,0,1,1-4.749-4.749,4.749,4.749,0,0,1,4.749,4.749Z" transform="translate(-68.42 59.662)" fill="#3c4e64"/>
      <path id="Trazado_26863" data-name="Trazado 26863" d="M130.868,82.369a4.749,4.749,0,1,1-4.749-4.749,4.749,4.749,0,0,1,4.749,4.749Z" transform="translate(298.93 9.139)" fill="#3c4e64"/>
      <path id="Trazado_26867" data-name="Trazado 26867" d="M130.868,82.369a4.749,4.749,0,1,1-4.749-4.749,4.749,4.749,0,0,1,4.749,4.749Z" transform="matrix(0.788, 0.616, -0.616, 0.788, 103.943, -310.541)" fill="#3c4e64"/>
      <path id="Trazado_26871" data-name="Trazado 26871" d="M130.868,82.369a4.749,4.749,0,1,1-4.749-4.749,4.749,4.749,0,0,1,4.749,4.749Z" transform="matrix(0.788, 0.616, -0.616, 0.788, 55.599, -192.138)" fill="#3c4e64"/>
      <path id="Trazado_26852" data-name="Trazado 26852" d="M130.868,82.369a4.749,4.749,0,1,1-4.749-4.749,4.749,4.749,0,0,1,4.749,4.749Z" transform="translate(466.357 -25.256) rotate(167)" fill="#3c4e64"/>
      <g id="Grupo_1061" data-name="Grupo 1061">
        <path id="Trazado_26808" data-name="Trazado 26808" d="M184.911,120.482a49.24,49.24,0,0,0,8.68.743,10.14,10.14,0,0,1-17.151-2.9,50.152,50.152,0,0,0,8.471,2.162Z" transform="translate(-29.186 -65.474)" fill="#37474f"/>
        <path id="Trazado_26809" data-name="Trazado 26809" d="M186.375,108.975a46.862,46.862,0,0,0-10.015-.7,10.149,10.149,0,0,1,19.629,3.338,46.687,46.687,0,0,0-9.614-2.637Z" transform="translate(-29.172 -62.73)" fill="#37474f"/>
        <ellipse id="Elipse_808" data-name="Elipse 808" cx="3.505" cy="15.966" rx="3.505" ry="15.966" transform="translate(140.385 49.935) rotate(-80.41)" fill="#37474f"/>
      </g>
      <g id="Grupo_1060" data-name="Grupo 1060">
        <path id="Trazado_26851" data-name="Trazado 26851" d="M184.911,120.482a49.24,49.24,0,0,0,8.68.743,10.14,10.14,0,0,1-17.151-2.9,50.152,50.152,0,0,0,8.471,2.162Z" transform="translate(476.748 -20.745) rotate(167)" fill="#37474f"/>
        <path id="Trazado_26850" data-name="Trazado 26850" d="M186.375,108.975a46.862,46.862,0,0,0-10.015-.7,10.149,10.149,0,0,1,19.629,3.338,46.687,46.687,0,0,0-9.614-2.637Z" transform="translate(476.117 -23.416) rotate(167)" fill="#37474f"/>
        <ellipse id="Elipse_812" data-name="Elipse 812" cx="3.505" cy="15.966" rx="3.505" ry="15.966" transform="matrix(0.052, 0.999, -0.999, 0.052, 285.82, -94.231)" fill="#37474f"/>
      </g>
      <g id="Grupo_1062" data-name="Grupo 1062">
        <path id="Trazado_26810" data-name="Trazado 26810" d="M415.261,183.849a66.191,66.191,0,0,1-88.817,29.628c-1.352-.668-2.662-1.377-3.914-2.128A81.789,81.789,0,0,0,361.422,88.23a66.241,66.241,0,0,1,53.839,95.619Z" transform="matrix(0.719, -0.695, 0.695, 0.719, 4.449, 56.251)" fill="#4e6f97"/>
      </g>
    </g>
    <g id="freepik--Shadow--inject-3" transform="translate(46.829 347.038)">
      <ellipse id="freepik--path--inject-3" cx="161.818" cy="9.448" rx="161.818" ry="9.448" fill="#f5f5f5"/>
    </g>
    <g id="freepik--Rocket--inject-3" transform="translate(89.492 88.382)">
      <path id="Trazado_26815" data-name="Trazado 26815" d="M254.234,130.873l-.584-.459c2.629-3.338,5.391-6.476,8.212-9.414l.526.517C259.584,124.43,256.838,127.585,254.234,130.873Z" transform="translate(-131.45 -99.3)" fill="#4e6fb8"/>
      <rect id="Rectángulo_2918" data-name="Rectángulo 2918" width="4.332" height="0.734" transform="translate(116.976 37.708) rotate(-51.58)" fill="#4e6fb8"/>
      <path id="Trazado_26816" data-name="Trazado 26816" d="M297.338,165.289c18.136-29.152,20.606-57.879,7.4-67.176s-39.418,2.7-60.758,29.6L183,204.639l62.527,44.033Z" transform="translate(-119.763 -94.999)" fill="#4e6fb8"/>
      <path id="Trazado_26817" data-name="Trazado 26817" d="M299.643,161.775l-53.08,82.516-6.493-12.41,52.721-75.28c14.906-21.29,23.26-40.744,23.293-51.577a.885.885,0,0,1,1.719-.3C321.559,115.531,315.049,137.831,299.643,161.775Z" transform="translate(-129.203 -96.509)" fill="#fff" opacity="0.1"/>
      <ellipse id="Elipse_809" data-name="Elipse 809" cx="26.548" cy="38.241" rx="26.548" ry="38.241" transform="matrix(0.576, -0.818, 0.818, 0.576, 47.908, 131.329)" fill="#4e6fb8"/>
      <ellipse id="Elipse_810" data-name="Elipse 810" cx="26.548" cy="38.241" rx="26.548" ry="38.241" transform="matrix(0.576, -0.818, 0.818, 0.576, 47.908, 131.329)" fill="#fff" opacity="0.5"/>
      <path id="Trazado_26818" data-name="Trazado 26818" d="M239.257,208.453c-13.721-9.665-29.286-12.427-39.226-7.912L184.55,220.054c9.18-10.249,28.8-9.548,45.21,2s23.694,29.82,17.117,41.9l12.995-20.865C260.99,232.13,253.128,218.218,239.257,208.453Z" transform="translate(-120.02 -112.108)" opacity="0.1"/>
      <path id="Trazado_26819" data-name="Trazado 26819" d="M275.762,135.06c-3.806,6.026-6.677,17.3,4.632,25.255s20.956,1.469,25.338-4.173Z" transform="translate(-134.55 -101.625)" opacity="0.2"/>
      <path id="Trazado_26820" data-name="Trazado 26820" d="M308.513,147.916c-1.294,10.766-13.737,18.62-26.8,9.422s-9.865-23.56-.167-28.376c5.976-2.988,13.587-1.669,18.795,1.953S309.314,141.24,308.513,147.916Z" transform="translate(-134.66 -100.344)" fill="#37474f"/>
      <path id="Trazado_26821" data-name="Trazado 26821" d="M284.1,155.39c-5.083-3.572-7.687-8.246-7.319-13.136a12.269,12.269,0,0,1,6.76-10.015c4.54-2.27,10.966-1.561,15.632,1.719s7.511,9.105,6.885,14.146a12.252,12.252,0,0,1-7.119,9.723C294.485,159.846,289.185,158.97,284.1,155.39Z" transform="translate(-135.271 -100.94)" fill="#4e6fb8"/>
      <path id="Trazado_26822" data-name="Trazado 26822" d="M284.1,155.39c-5.083-3.572-7.687-8.246-7.319-13.136a12.269,12.269,0,0,1,6.76-10.015c4.54-2.27,10.966-1.561,15.632,1.719s7.511,9.105,6.885,14.146a12.252,12.252,0,0,1-7.119,9.723C294.485,159.846,289.185,158.97,284.1,155.39Z" transform="translate(-135.271 -100.94)" opacity="0.3"/>
      <path id="Trazado_26823" data-name="Trazado 26823" d="M284.056,155.65c-5.083-3.572-7.778-8.112-7.578-12.769a10.758,10.758,0,0,1,6.276-9.314c4.365-2.02,10.666-1.135,15.331,2.153s7.62,8.922,7.186,13.712a10.741,10.741,0,0,1-6.677,9.047C294.313,160.24,289.139,159.23,284.056,155.65Z" transform="translate(-135.224 -101.201)" fill="#4e6fb8"/>
      <path id="Trazado_26824" data-name="Trazado 26824" d="M284.056,155.65c-5.083-3.572-7.778-8.112-7.578-12.769a10.758,10.758,0,0,1,6.276-9.314c4.365-2.02,10.666-1.135,15.331,2.153s7.62,8.922,7.186,13.712a10.741,10.741,0,0,1-6.677,9.047C294.313,160.24,289.139,159.23,284.056,155.65Z" transform="translate(-135.224 -101.201)" fill="#fff" opacity="0.2"/>
      <path id="Trazado_26825" data-name="Trazado 26825" d="M301.621,139.129l-23.494,10.366a11.969,11.969,0,0,1-1.669-6.5,10.393,10.393,0,0,1,.626-3.146l15.164-6.677a17.635,17.635,0,0,1,9.356,5.976Z" transform="translate(-135.221 -101.313)" fill="#fff" opacity="0.3"/>
      <path id="Trazado_26826" data-name="Trazado 26826" d="M305.679,147.5,284.122,157a20.815,20.815,0,0,1-3.522-3.272l23.452-10.349a15.858,15.858,0,0,1,1.627,4.123Z" transform="translate(-135.908 -103.002)" fill="#fff" opacity="0.3"/>
      <path id="Trazado_26827" data-name="Trazado 26827" d="M332.359,120.914c-.718-5.759-5.141-12.419-12.135-17.343s-14.747-6.844-20.414-5.583c9.639-3.931,18.277-4.081,24.253.125S332.81,110.515,332.359,120.914Z" transform="translate(-139.085 -94.999)" opacity="0.1"/>
      <ellipse id="Elipse_811" data-name="Elipse 811" cx="8.271" cy="11.642" rx="8.271" ry="11.642" transform="matrix(0.576, -0.818, 0.818, 0.576, 85.93, 123.535)" fill="#4e6fb8" opacity="0.5"/>
      <path id="Trazado_26828" data-name="Trazado 26828" d="M205,243.565c-2.629,3.731-9.022,3.764-14.28.058s-7.394-9.731-4.765-13.462,9.03-3.764,14.288-.058S207.6,239.834,205,243.565Z" transform="translate(-120.066 -116.89)" fill="#4e6fb8" opacity="0.5"/>
      <path id="Trazado_26829" data-name="Trazado 26829" d="M248.714,274.375c-2.629,3.739-9.022,3.764-14.28.058s-7.386-9.731-4.757-13.462,9.022-3.764,14.28-.058S251.343,270.644,248.714,274.375Z" transform="translate(-127.298 -121.987)" fill="#4e6fb8" opacity="0.5"/>
      <path id="Trazado_26830" data-name="Trazado 26830" d="M219,270.163c-2.629,3.731-9.022,3.756-14.28.058s-7.386-9.731-4.757-13.47,9.022-3.756,14.28-.058S221.6,266.424,219,270.163Z" transform="translate(-122.383 -121.289)" fill="#4e6fb8" opacity="0.5"/>
      <path id="Trazado_26831" data-name="Trazado 26831" d="M234.811,247.785a5.927,5.927,0,0,1-.968,1.068c1.461-3.722-.743-8.888-5.442-12.193s-10.3-3.639-13.312-1.018a6.333,6.333,0,0,1,.676-1.26c2.629-3.731,9.03-3.764,14.288-.058S237.432,244.046,234.811,247.785Z" transform="translate(-125.071 -117.588)" fill="#4e6fb8" opacity="0.5"/>
      <path id="Trazado_26832" data-name="Trazado 26832" d="M205.093,243.564a6.142,6.142,0,0,1-.96,1.068c1.461-3.731-.734-8.888-5.442-12.2s-10.3-3.639-13.312-1.01a6.109,6.109,0,0,1,.676-1.26c2.629-3.739,9.022-3.764,14.28-.058S207.688,239.825,205.093,243.564Z" transform="translate(-120.157 -116.89)" fill="#4e6fb8" opacity="0.5"/>
      <path id="Trazado_26833" data-name="Trazado 26833" d="M248.8,274.383a6.092,6.092,0,0,1-.96,1.06c1.461-3.731-.743-8.888-5.441-12.193s-10.3-3.647-13.312-1.01a5.969,5.969,0,0,1,.676-1.269c2.629-3.739,9.022-3.764,14.28-.058S251.44,270.644,248.8,274.383Z" transform="translate(-127.387 -121.986)" fill="#4e6fb8" opacity="0.5"/>
      <path id="Trazado_26834" data-name="Trazado 26834" d="M219.093,270.163a5.516,5.516,0,0,1-.96,1.06c1.461-3.722-.743-8.888-5.442-12.193s-10.3-3.639-13.312-1.01a5.792,5.792,0,0,1,.676-1.269c2.629-3.739,9.022-3.756,14.28-.058S221.688,266.424,219.093,270.163Z" transform="translate(-122.473 -121.289)" fill="#4e6fb8" opacity="0.5"/>
      <path id="Trazado_26835" data-name="Trazado 26835" d="M221.585,168.1s-11.267,14.622-21.082,27.208a12.919,12.919,0,0,1-11.859,4.765c-8.571-1.06-22.534,5.007-22.534,5.007S192.525,161.692,221.585,168.1Z" transform="translate(-116.969 -106.984)" fill="#4e6fb8"/>
      <path id="Trazado_26836" data-name="Trazado 26836" d="M221.585,168.1s-11.267,14.622-21.082,27.208a12.919,12.919,0,0,1-11.859,4.765c-8.571-1.06-22.534,5.007-22.534,5.007S192.525,161.692,221.585,168.1Z" transform="translate(-116.969 -106.984)" opacity="0.3"/>
      <path id="Trazado_26837" data-name="Trazado 26837" d="M291.836,212.82s-9.923,15.532-18.511,29.01a12.911,12.911,0,0,0-.484,12.769c3.889,7.72,2.871,22.943,2.871,22.943S307.668,238.008,291.836,212.82Z" transform="translate(-134.383 -114.488)" fill="#4e6fb8"/>
      <path id="Trazado_26838" data-name="Trazado 26838" d="M291.836,212.82s-9.923,15.532-18.511,29.01a12.911,12.911,0,0,0-.484,12.769c3.889,7.72,2.871,22.943,2.871,22.943S307.668,238.008,291.836,212.82Z" transform="translate(-134.383 -114.488)" opacity="0.3"/>
      <path id="Trazado_26839" data-name="Trazado 26839" d="M311.383,333.836c10.424-25.5-34.644-32.732-52.479-26.331s-36.021,11.158-36.722-5.909,13.036-27.65,6.485-31.589c-3.63-2.187-4.665,1.669-6.46,7.294-5.492,17.234-36.6,21.34-22.283,46.286s6.677,19.529-17.4,29.536-11.684,38.825,11.609,38.825H334.409C398.706,391.948,337.831,268.88,311.383,333.836Z" transform="translate(-117.525 -123.845)" fill="#4e6fb8"/>
      <path id="Trazado_26840" data-name="Trazado 26840" d="M311.383,333.836c10.424-25.5-34.644-32.732-52.479-26.331s-36.021,11.158-36.722-5.909,13.036-27.65,6.485-31.589c-3.63-2.187-4.665,1.669-6.46,7.294-5.492,17.234-36.6,21.34-22.283,46.286s6.677,19.529-17.4,29.536-11.684,38.825,11.609,38.825H334.409C398.706,391.948,337.831,268.88,311.383,333.836Z" transform="translate(-117.525 -123.845)" fill="#b8c5e2" opacity="0.6"/>
      <path id="Trazado_26841" data-name="Trazado 26841" d="M182.61,239.629c-1.869-6.493-11.985,1.669-21.95,11.559s-14.881,32.465-24.52,44.233-37.239,22.4-26.448,40.11c15.916,26.1-20.664,51.135,22.659,51.135h88.858c16.249,0,33.868-19.871,8.563-33.383s-63.212,17.994-73.444-12.06c-5.074-14.914,13.353-8.07,4.816-32.49s-7.97-31.072-3.622-41.955C168.1,240.255,185.489,249.494,182.61,239.629Z" transform="translate(-107.23 -118.538)" fill="#4e6fb8"/>
      <path id="Trazado_26842" data-name="Trazado 26842" d="M182.61,239.629c-1.869-6.493-11.985,1.669-21.95,11.559s-14.881,32.465-24.52,44.233-37.239,22.4-26.448,40.11c15.916,26.1-20.664,51.135,22.659,51.135h88.858c16.249,0,33.868-19.871,8.563-33.383s-63.212,17.994-73.444-12.06c-5.074-14.914,13.353-8.07,4.816-32.49s-7.97-31.072-3.622-41.955C168.1,240.255,185.489,249.494,182.61,239.629Z" transform="translate(-107.23 -118.538)" fill="#b8c5e2" opacity="0.6"/>
      <path id="Trazado_26843" data-name="Trazado 26843" d="M207.756,243.281c2.2-4.023,9.765-1.611,9.6,3.656S197.608,259.1,201.247,277.29s38.591,19.488,46.8,37.707-23.577,20.773-14.1,32.165,38.741-14.772,59.589-8.045,41.679,48.181,3.438,48.181H179.138c-25.622,0-44.333-52.9-19.713-74.67s4.757-14.7,13.946-28.643S199.3,258.7,207.756,243.281Z" transform="translate(-113.957 -119.194)" fill="#4e6fb8"/>
      <path id="Trazado_26844" data-name="Trazado 26844" d="M207.756,243.281c2.2-4.023,9.765-1.611,9.6,3.656S197.608,259.1,201.247,277.29s38.591,19.488,46.8,37.707-23.577,20.773-14.1,32.165,38.741-14.772,59.589-8.045,41.679,48.181,3.438,48.181H179.138c-25.622,0-44.333-52.9-19.713-74.67s4.757-14.7,13.946-28.643S199.3,258.7,207.756,243.281Z" transform="translate(-113.957 -119.194)" fill="#dce2f1" opacity="0.8"/>
    </g>
  </g>
</svg>
