<svg width="995" height="698" viewBox="0 0 995 698" fill="none" xmlns="http://www.w3.org/2000/svg">
<g clip-path="url(#clip0_1529_153)">
<path d="M812.689 437.548H171.85C167.476 437.543 163.282 435.803 160.188 432.71C157.095 429.616 155.355 425.422 155.35 421.048V25.894C155.354 22.6892 156.628 19.6166 158.895 17.3504C161.161 15.0841 164.233 13.8094 167.438 13.8057H816.891C820.152 13.8094 823.278 15.1062 825.583 17.4116C827.888 19.717 829.185 22.8427 829.189 26.103V421.048C829.184 425.422 827.444 429.616 824.35 432.71C821.257 435.803 817.063 437.543 812.689 437.548Z" fill="#37474F"/>
<path d="M789.311 414.181H192.067C183.312 414.181 176.189 407.511 176.189 399.313V55.2078C176.189 49.1277 181.467 44.1809 187.955 44.1809H793.228C799.823 44.1809 805.189 49.2092 805.189 55.3894V399.313C805.189 407.511 798.066 414.181 789.311 414.181Z" fill="#1E282E"/>
<path d="M828.959 24.9502H155.119V16.5498C155.125 12.1607 156.872 7.95332 159.977 4.85071C163.081 1.7481 167.29 0.00362614 171.679 0H812.399C816.788 0.00360501 820.997 1.74807 824.101 4.85069C827.206 7.9533 828.953 12.1607 828.959 16.5498V24.9502Z" fill="#1E282E"/>
<path d="M185.214 16.7834C187.58 16.7834 189.497 14.8656 189.497 12.5C189.497 10.1343 187.58 8.21655 185.214 8.21655C182.848 8.21655 180.931 10.1343 180.931 12.5C180.931 14.8656 182.848 16.7834 185.214 16.7834Z" fill="white"/>
<path d="M201.473 16.7834C203.839 16.7834 205.756 14.8656 205.756 12.5C205.756 10.1343 203.839 8.21655 201.473 8.21655C199.107 8.21655 197.189 10.1343 197.189 12.5C197.189 14.8656 199.107 16.7834 201.473 16.7834Z" fill="white"/>
<path d="M217.732 16.7834C220.097 16.7834 222.015 14.8656 222.015 12.5C222.015 10.1343 220.097 8.21655 217.732 8.21655C215.366 8.21655 213.448 10.1343 213.448 12.5C213.448 14.8656 215.366 16.7834 217.732 16.7834Z" fill="white"/>
<path d="M723.573 356.469H260.734C256.095 356.464 251.647 354.618 248.366 351.338C245.085 348.057 243.24 343.609 243.234 338.969V115.815C243.238 112.345 244.618 109.018 247.072 106.565C249.526 104.111 252.852 102.731 256.322 102.727H727.776C731.301 102.731 734.681 104.133 737.174 106.626C739.667 109.119 741.069 112.499 741.073 116.024V338.969C741.068 343.609 739.222 348.057 735.941 351.338C732.661 354.618 728.213 356.464 723.573 356.469ZM256.322 104.727C253.383 104.73 250.564 105.899 248.486 107.978C246.407 110.057 245.238 112.875 245.234 115.815V338.969C245.239 343.078 246.874 347.018 249.779 349.924C252.685 352.83 256.625 354.464 260.734 354.469H723.573C727.682 354.464 731.622 352.83 734.528 349.924C737.434 347.018 739.068 343.078 739.073 338.969V116.024C739.07 113.029 737.878 110.157 735.76 108.04C733.642 105.922 730.771 104.73 727.776 104.727H256.322Z" fill="#181F23"/>
<path d="M276.734 338.969H707.573C711.816 338.969 715.886 337.283 718.887 334.283C721.887 331.282 723.573 327.212 723.573 322.969V136.421C723.573 132.178 721.887 128.108 718.887 125.107C715.886 122.107 711.816 120.421 707.573 120.421H276.734C272.491 120.421 268.421 122.107 265.421 125.107C262.42 128.108 260.734 132.178 260.734 136.421V322.969C260.734 327.212 262.42 331.282 265.421 334.283C268.421 337.283 272.491 338.969 276.734 338.969Z" fill="#181F23"/>
<path d="M325.653 174.695C330.624 174.695 334.653 170.666 334.653 165.695C334.653 160.725 330.624 156.695 325.653 156.695C320.683 156.695 316.653 160.725 316.653 165.695C316.653 170.666 320.683 174.695 325.653 174.695Z" fill="#CCCCCC"/>
<path d="M325.653 208.695C330.624 208.695 334.653 204.666 334.653 199.695C334.653 194.725 330.624 190.695 325.653 190.695C320.683 190.695 316.653 194.725 316.653 199.695C316.653 204.666 320.683 208.695 325.653 208.695Z" fill="#CCCCCC"/>
<path d="M325.653 242.695C330.624 242.695 334.653 238.666 334.653 233.695C334.653 228.725 330.624 224.695 325.653 224.695C320.683 224.695 316.653 228.725 316.653 233.695C316.653 238.666 320.683 242.695 325.653 242.695Z" fill="#CCCCCC"/>
<path d="M325.653 276.695C330.624 276.695 334.653 272.666 334.653 267.695C334.653 262.725 330.624 258.695 325.653 258.695C320.683 258.695 316.653 262.725 316.653 267.695C316.653 272.666 320.683 276.695 325.653 276.695Z" fill="#CCCCCC"/>
<path d="M666.653 166.695H370.653C370.388 166.695 370.134 166.59 369.946 166.402C369.759 166.215 369.653 165.961 369.653 165.695C369.653 165.43 369.759 165.176 369.946 164.988C370.134 164.801 370.388 164.695 370.653 164.695H666.653C666.919 164.695 667.173 164.801 667.36 164.988C667.548 165.176 667.653 165.43 667.653 165.695C667.653 165.961 667.548 166.215 667.36 166.402C667.173 166.59 666.919 166.695 666.653 166.695Z" fill="#CCCCCC"/>
<path d="M666.653 200.695H370.653C370.388 200.695 370.134 200.59 369.946 200.402C369.759 200.215 369.653 199.961 369.653 199.695C369.653 199.43 369.759 199.176 369.946 198.988C370.134 198.801 370.388 198.695 370.653 198.695H666.653C666.919 198.695 667.173 198.801 667.36 198.988C667.548 199.176 667.653 199.43 667.653 199.695C667.653 199.961 667.548 200.215 667.36 200.402C667.173 200.59 666.919 200.695 666.653 200.695Z" fill="#CCCCCC"/>
<path d="M666.653 234.695H370.653C370.388 234.695 370.134 234.59 369.946 234.402C369.759 234.215 369.653 233.961 369.653 233.695C369.653 233.43 369.759 233.176 369.946 232.988C370.134 232.801 370.388 232.695 370.653 232.695H666.653C666.919 232.695 667.173 232.801 667.36 232.988C667.548 233.176 667.653 233.43 667.653 233.695C667.653 233.961 667.548 234.215 667.36 234.402C667.173 234.59 666.919 234.695 666.653 234.695Z" fill="#CCCCCC"/>
<path d="M666.653 268.695H370.653C370.388 268.695 370.134 268.59 369.946 268.402C369.759 268.215 369.653 267.961 369.653 267.695C369.653 267.43 369.759 267.176 369.946 266.988C370.134 266.801 370.388 266.695 370.653 266.695H666.653C666.919 266.695 667.173 266.801 667.36 266.988C667.548 267.176 667.653 267.43 667.653 267.695C667.653 267.961 667.548 268.215 667.36 268.402C667.173 268.59 666.919 268.695 666.653 268.695Z" fill="#CCCCCC"/>
<path d="M426.653 302.695H397.653C396.328 302.694 395.057 302.167 394.12 301.229C393.182 300.292 392.655 299.021 392.653 297.695V270.695C392.655 269.37 393.182 268.099 394.119 267.161C395.057 266.224 396.328 265.697 397.653 265.695H426.653C427.979 265.697 429.25 266.224 430.187 267.161C431.125 268.099 431.652 269.37 431.653 270.695V297.695C431.652 299.021 431.125 300.292 430.187 301.229C429.25 302.167 427.979 302.694 426.653 302.695Z" fill="#344D84"/>
<path d="M491.653 302.695H462.653C461.328 302.694 460.057 302.167 459.119 301.229C458.182 300.292 457.655 299.021 457.653 297.695V236.695C457.655 235.37 458.182 234.099 459.119 233.161C460.057 232.224 461.328 231.697 462.653 231.695H491.653C492.979 231.697 494.25 232.224 495.187 233.161C496.124 234.099 496.652 235.37 496.653 236.695V297.695C496.652 299.021 496.124 300.292 495.187 301.229C494.25 302.167 492.979 302.694 491.653 302.695Z" fill="#344D84"/>
<path d="M557.653 302.695H528.653C527.328 302.694 526.057 302.167 525.119 301.229C524.182 300.292 523.655 299.021 523.653 297.695V202.695C523.655 201.37 524.182 200.099 525.119 199.161C526.057 198.224 527.328 197.697 528.653 197.695H557.653C558.979 197.697 560.25 198.224 561.187 199.161C562.124 200.099 562.652 201.37 562.653 202.695V297.695C562.652 299.021 562.124 300.292 561.187 301.229C560.25 302.167 558.979 302.694 557.653 302.695Z" fill="#344D84"/>
<path d="M625.653 302.695H596.653C595.328 302.694 594.057 302.167 593.119 301.229C592.182 300.292 591.655 299.021 591.653 297.695V169.695C591.655 168.37 592.182 167.099 593.119 166.161C594.057 165.224 595.328 164.697 596.653 164.695H625.653C626.979 164.697 628.25 165.224 629.187 166.161C630.124 167.099 630.652 168.37 630.653 169.695V297.695C630.652 299.021 630.124 300.292 629.187 301.229C628.25 302.167 626.979 302.694 625.653 302.695Z" fill="#344D84"/>
<path d="M666.653 302.695H370.653C370.388 302.695 370.134 302.59 369.946 302.402C369.759 302.215 369.653 301.961 369.653 301.695C369.653 301.43 369.759 301.176 369.946 300.988C370.134 300.801 370.388 300.695 370.653 300.695H666.653C666.919 300.695 667.173 300.801 667.36 300.988C667.548 301.176 667.653 301.43 667.653 301.695C667.653 301.961 667.548 302.215 667.36 302.402C667.173 302.59 666.919 302.695 666.653 302.695Z" fill="#3F3D56"/>
<path d="M796.701 489.243C797.511 488.016 798.581 486.982 799.834 486.214C801.087 485.445 802.494 484.961 803.954 484.794C805.415 484.628 806.894 484.784 808.288 485.252C809.682 485.719 810.956 486.486 812.022 487.5L843.777 471.111L841.802 489.575L811.949 502.307C810.129 503.984 807.756 504.935 805.282 504.979C802.807 505.023 800.402 504.158 798.522 502.548C796.643 500.938 795.419 498.694 795.084 496.241C794.748 493.789 795.324 491.299 796.701 489.243Z" fill="#FFB8B8"/>
<path d="M824.024 496.129C823.304 495.564 822.772 494.792 822.501 493.918L819.975 485.758C819.704 484.874 819.71 483.928 819.994 483.048C820.278 482.168 820.825 481.396 821.562 480.837L847.3 461.397L875.175 409.684C876.342 408.18 877.795 406.921 879.449 405.979C881.103 405.036 882.926 404.429 884.815 404.191C886.704 403.954 888.621 404.09 890.457 404.594C892.293 405.097 894.012 405.957 895.516 407.124C897.02 408.292 898.279 409.744 899.221 411.399C900.164 413.053 900.771 414.876 901.008 416.765C901.246 418.654 901.109 420.571 900.606 422.407C900.102 424.243 899.242 425.962 898.075 427.466L882.216 460.936C877.405 471.095 869.067 479.161 858.753 483.633L828.59 496.715C828.01 496.967 827.384 497.093 826.752 497.086C826.12 497.08 825.496 496.94 824.921 496.676C824.602 496.53 824.301 496.346 824.024 496.129Z" fill="#3F3D56"/>
<path d="M898.775 388.102C912.34 388.102 923.336 377.106 923.336 363.541C923.336 349.977 912.34 338.98 898.775 338.98C885.21 338.98 874.214 349.977 874.214 363.541C874.214 377.106 885.21 388.102 898.775 388.102Z" fill="#FFB8B8"/>
<path d="M888.812 685.737L876.553 685.736L870.722 638.448L888.817 638.449L888.812 685.737Z" fill="#FFB8B8"/>
<path d="M867.795 682.233H891.439V697.12H852.908C852.908 695.165 853.293 693.229 854.041 691.423C854.79 689.616 855.886 687.975 857.268 686.593C858.651 685.211 860.292 684.114 862.098 683.366C863.904 682.618 865.84 682.233 867.795 682.233Z" fill="#2F2E41"/>
<path d="M928.812 685.739L916.553 685.738L910.722 638.449L928.817 638.451L928.812 685.739Z" fill="#FFB8B8"/>
<path d="M907.795 682.234H931.439V697.121H892.908C892.908 695.166 893.293 693.23 894.041 691.424C894.79 689.618 895.886 687.977 897.268 686.595C898.651 685.212 900.292 684.116 902.098 683.368C903.904 682.619 905.84 682.234 907.795 682.234Z" fill="#2F2E41"/>
<path d="M929.708 673.74L915.341 673.739C914.352 673.737 913.391 673.411 912.606 672.809C911.82 672.208 911.255 671.364 910.996 670.41L890.317 593.708C890.285 593.589 890.209 593.486 890.105 593.419C890.001 593.351 889.876 593.325 889.754 593.345C889.631 593.365 889.521 593.43 889.444 593.526C889.366 593.623 889.328 593.745 889.335 593.869L893.512 666.611C893.549 667.254 893.448 667.898 893.214 668.498C892.981 669.099 892.622 669.642 892.16 670.092C891.699 670.541 891.146 670.887 890.54 671.104C889.934 671.322 889.288 671.407 888.646 671.353L872.498 670.006C871.463 669.918 870.491 669.475 869.745 668.753C868.999 668.031 868.524 667.074 868.402 666.042L853.691 513.298L859.383 516.713L912.712 507.659L934.169 668.645C934.254 669.281 934.201 669.927 934.016 670.541C933.831 671.154 933.516 671.721 933.094 672.204C932.671 672.686 932.151 673.073 931.567 673.338C930.983 673.602 930.349 673.739 929.708 673.74Z" fill="#2F2E41"/>
<path d="M871.527 529.42C865.644 529.372 859.88 527.75 854.836 524.722C854.058 524.261 853.438 523.577 853.057 522.758C852.676 521.939 852.551 521.024 852.699 520.133C854.575 508.646 864.383 449.725 873.307 417.603C876.942 404.52 884.979 397.474 897.194 396.66C915.062 395.488 930.944 409.467 932.598 427.86C935.515 460.308 923.665 506.41 918.434 524.725C918.231 525.433 917.858 526.08 917.347 526.609C916.836 527.138 916.203 527.534 915.503 527.762C914.803 527.99 914.059 528.042 913.334 527.915C912.609 527.788 911.927 527.484 911.346 527.032L900.685 518.738C900.029 518.237 899.218 517.981 898.393 518.016C897.568 518.05 896.781 518.372 896.169 518.926C887.183 526.942 878.646 529.42 871.527 529.42Z" fill="#3F3D56"/>
<path opacity="0.2" d="M906.787 443.738L915.786 481.739L902.784 513.738L911.786 482.739L906.787 443.738Z" fill="black"/>
<path d="M912.79 383.739C914.975 383.779 917.146 383.387 919.178 382.583C920.072 382.239 921.001 381.956 921.893 381.611C929.775 378.566 934.967 370.172 935.154 361.725C935.34 353.277 930.966 345.078 924.47 339.675C917.974 334.271 909.56 331.496 901.135 330.855C892.06 330.163 881.841 332.464 876.77 340.022C875.42 342.033 874.476 344.474 875.275 346.903C875.515 347.636 875.943 348.294 876.516 348.809C878.781 350.824 881.038 349.309 883.347 349.176C886.52 348.992 889.37 351.56 890.395 354.569C891.419 357.579 890.968 360.891 890.141 363.96C889.51 365.807 889.113 367.725 888.958 369.67C888.891 370.646 889.074 371.622 889.491 372.506C889.907 373.391 890.542 374.155 891.336 374.725C893.319 375.924 895.923 375.23 897.907 374.034C899.891 372.837 901.606 371.173 903.749 370.293C905.892 369.412 908.771 369.608 910.019 371.56C910.415 372.271 910.683 373.045 910.811 373.849C911.929 378.944 911.672 378.644 912.79 383.739Z" fill="#2F2E41"/>
<path d="M874.722 651.432L720.926 597.871C718.287 596.948 716.121 595.017 714.905 592.5C713.688 589.983 713.519 587.086 714.436 584.445L754.402 469.687C755.077 467.753 756.492 466.167 758.336 465.276C760.18 464.384 762.302 464.261 764.237 464.932L923.232 520.303C925.199 520.991 926.813 522.43 927.72 524.306C928.627 526.182 928.752 528.341 928.069 530.309L888.147 644.942C887.225 647.581 885.293 649.746 882.777 650.963C880.26 652.18 877.363 652.348 874.722 651.432Z" fill="#37474F"/>
<path d="M734.05 591.276L868.533 638.111C871.094 639.003 873.905 638.841 876.346 637.661C878.788 636.481 880.66 634.379 881.552 631.818L913.824 539.151C914.716 536.59 914.554 533.78 913.374 531.338C912.194 528.897 910.092 527.024 907.531 526.132L773.047 479.297C770.486 478.405 767.676 478.567 765.234 479.747C762.793 480.928 760.92 483.029 760.028 485.59L727.756 578.257C727.315 579.525 727.127 580.868 727.204 582.208C727.282 583.549 727.622 584.861 728.207 586.07C728.791 587.279 729.608 588.361 730.61 589.254C731.613 590.147 732.781 590.834 734.05 591.276Z" fill="#1E282E"/>
<path d="M767.82 526.169L761.16 523.85C760.799 523.724 760.503 523.459 760.336 523.115C760.17 522.771 760.147 522.374 760.272 522.013L762.592 515.353C762.718 514.992 762.982 514.695 763.326 514.529C763.671 514.363 764.067 514.339 764.428 514.465L771.089 516.784C771.45 516.911 771.746 517.175 771.913 517.519C772.079 517.863 772.102 518.26 771.977 518.621L769.657 525.281C769.531 525.642 769.267 525.939 768.922 526.105C768.578 526.272 768.182 526.295 767.82 526.169Z" fill="#344D84"/>
<path d="M761.811 543.425L755.15 541.106C754.789 540.98 754.493 540.715 754.327 540.371C754.16 540.027 754.137 539.63 754.262 539.269L756.582 532.609C756.708 532.248 756.972 531.952 757.317 531.785C757.661 531.619 758.057 531.596 758.419 531.721L765.079 534.04C765.44 534.167 765.736 534.431 765.903 534.775C766.069 535.12 766.092 535.516 765.967 535.877L763.647 542.537C763.521 542.898 763.257 543.195 762.913 543.361C762.568 543.528 762.172 543.551 761.811 543.425Z" fill="#3F3D56"/>
<path d="M755.801 560.682L749.141 558.362C748.779 558.236 748.483 557.972 748.317 557.627C748.15 557.283 748.127 556.887 748.253 556.525L750.572 549.865C750.698 549.504 750.963 549.208 751.307 549.041C751.651 548.875 752.048 548.852 752.409 548.977L759.069 551.297C759.43 551.423 759.727 551.687 759.893 552.032C760.059 552.376 760.082 552.772 759.957 553.134L757.638 559.794C757.511 560.155 757.247 560.451 756.903 560.618C756.558 560.784 756.162 560.807 755.801 560.682Z" fill="#CCCCCC"/>
<path d="M812.574 538.022L780.483 526.846C780.304 526.784 780.139 526.687 779.997 526.561C779.855 526.435 779.739 526.282 779.656 526.112C779.574 525.941 779.525 525.756 779.514 525.566C779.503 525.377 779.53 525.187 779.592 525.008C779.654 524.829 779.752 524.663 779.878 524.522C780.004 524.38 780.157 524.265 780.328 524.183C780.499 524.1 780.685 524.052 780.874 524.042C781.064 524.031 781.253 524.058 781.432 524.121L813.523 535.297C813.702 535.359 813.867 535.455 814.009 535.581C814.151 535.707 814.267 535.86 814.35 536.031C814.433 536.202 814.481 536.387 814.492 536.576C814.503 536.766 814.477 536.956 814.414 537.135C814.352 537.314 814.255 537.479 814.128 537.621C814.002 537.762 813.849 537.878 813.678 537.96C813.507 538.042 813.321 538.09 813.132 538.101C812.943 538.111 812.753 538.084 812.574 538.022Z" fill="#CCCCCC"/>
<path d="M806.564 555.278L774.474 544.102C774.113 543.976 773.816 543.712 773.65 543.367C773.483 543.023 773.46 542.626 773.586 542.265C773.712 541.904 773.976 541.607 774.321 541.441C774.665 541.274 775.062 541.251 775.423 541.377L807.513 552.553C807.693 552.615 807.858 552.712 808 552.838C808.142 552.964 808.257 553.116 808.34 553.287C808.423 553.458 808.471 553.643 808.482 553.832C808.493 554.022 808.466 554.212 808.404 554.391C808.342 554.57 808.245 554.735 808.118 554.877C807.992 555.018 807.839 555.133 807.668 555.216C807.497 555.298 807.312 555.346 807.122 555.357C806.933 555.367 806.743 555.34 806.564 555.278Z" fill="#CCCCCC"/>
<path d="M800.555 572.534L768.464 561.358C768.103 561.232 767.806 560.968 767.64 560.623C767.473 560.279 767.451 559.882 767.576 559.521C767.702 559.16 767.966 558.863 768.311 558.697C768.655 558.53 769.052 558.507 769.413 558.633L801.504 569.809C801.865 569.935 802.161 570.199 802.328 570.544C802.494 570.888 802.517 571.284 802.391 571.646C802.266 572.007 802.001 572.304 801.657 572.47C801.312 572.637 800.916 572.66 800.555 572.534Z" fill="#CCCCCC"/>
<path d="M885.954 581.883C886.188 581.322 886.408 580.752 886.61 580.171C889.248 572.598 888.769 564.286 885.279 557.066C881.788 549.845 875.573 544.307 867.999 541.67L857.451 571.957L885.954 581.883Z" fill="#344D84"/>
<path d="M854.383 573.799L864.931 543.512C859.357 541.571 853.336 541.303 847.612 542.742C841.887 544.181 836.709 547.265 832.716 551.611C828.723 555.958 826.089 561.379 825.14 567.205C824.19 573.03 824.967 579.007 827.373 584.396C829.78 589.786 833.711 594.354 838.683 597.536C843.654 600.718 849.448 602.376 855.35 602.305C861.252 602.233 867.004 600.436 871.897 597.135C876.79 593.833 880.61 589.172 882.886 583.726L854.383 573.799Z" fill="#3F3D56"/>
<path d="M892.145 530.353C892.025 528.888 892.229 527.414 892.74 526.036C893.252 524.658 894.06 523.409 895.107 522.376C896.153 521.344 897.414 520.554 898.799 520.062C900.184 519.569 901.66 519.387 903.124 519.526L917.997 487.034L927.838 502.782L912.205 531.223C911.807 533.666 910.527 535.878 908.607 537.44C906.687 539.002 904.261 539.805 901.788 539.698C899.316 539.591 896.968 538.58 895.191 536.858C893.413 535.136 892.329 532.821 892.145 530.353Z" fill="#FFB8B8"/>
<path d="M917.895 518.91C916.979 518.91 916.084 518.631 915.331 518.11L908.308 513.248C907.549 512.72 906.97 511.971 906.651 511.104C906.331 510.236 906.285 509.291 906.52 508.396L914.775 477.216L904.796 419.323C904.785 417.418 905.149 415.529 905.868 413.765C906.587 412.001 907.646 410.396 908.986 409.041C910.326 407.687 911.92 406.61 913.676 405.871C915.432 405.133 917.317 404.749 919.222 404.739C921.127 404.73 923.016 405.097 924.779 405.818C926.543 406.539 928.147 407.6 929.499 408.942C930.852 410.283 931.927 411.878 932.663 413.635C933.399 415.393 933.782 417.278 933.789 419.183L941.966 455.306C944.449 466.27 942.866 477.762 937.51 487.645L921.849 516.553C921.548 517.109 921.133 517.595 920.631 517.98C920.13 518.365 919.553 518.64 918.938 518.787C918.596 518.869 918.246 518.91 917.895 518.91Z" fill="#3F3D56"/>
<path d="M994 697.681H804C803.735 697.681 803.48 697.576 803.293 697.388C803.105 697.201 803 696.946 803 696.681C803 696.416 803.105 696.162 803.293 695.974C803.48 695.787 803.735 695.681 804 695.681H994C994.265 695.681 994.52 695.787 994.707 695.974C994.895 696.162 995 696.416 995 696.681C995 696.946 994.895 697.201 994.707 697.388C994.52 697.576 994.265 697.681 994 697.681Z" fill="#1E282E"/>
<path d="M490.541 685.239L502.801 685.238L508.633 637.951H490.539L490.541 685.239Z" fill="#A0616A"/>
<path d="M487.414 681.236L511.558 681.235C513.578 681.235 515.58 681.633 517.447 682.406C519.314 683.18 521.01 684.313 522.439 685.742C523.868 687.17 525.001 688.867 525.774 690.733C526.547 692.6 526.945 694.601 526.945 696.622V697.122L487.415 697.123L487.414 681.236Z" fill="#2F2E41"/>
<path d="M441.541 685.239L453.801 685.238L459.633 637.951H441.539L441.541 685.239Z" fill="#A0616A"/>
<path d="M438.414 681.236L462.558 681.235C464.578 681.235 466.58 681.633 468.447 682.406C470.314 683.18 472.01 684.313 473.439 685.742C474.868 687.17 476.001 688.867 476.774 690.733C477.547 692.6 477.945 694.601 477.945 696.622V697.122L438.415 697.123L438.414 681.236Z" fill="#2F2E41"/>
<path d="M492.988 357.858C506.552 357.858 517.549 346.862 517.549 333.297C517.549 319.732 506.552 308.736 492.988 308.736C479.423 308.736 468.427 319.732 468.427 333.297C468.427 346.862 479.423 357.858 492.988 357.858Z" fill="#A0616A"/>
<path d="M509.504 675.033H486.754C486.158 675.033 485.569 674.915 485.019 674.685C484.47 674.455 483.971 674.119 483.553 673.695C483.134 673.272 482.804 672.769 482.581 672.217C482.358 671.665 482.247 671.074 482.254 670.478L483.576 562.447C483.581 562.063 483.439 561.692 483.178 561.41C482.918 561.129 482.559 560.957 482.176 560.931C481.794 560.906 481.415 561.028 481.12 561.273C480.824 561.517 480.634 561.866 480.587 562.247L467.346 671.077C467.213 672.168 466.685 673.172 465.862 673.901C465.039 674.629 463.978 675.032 462.879 675.033H439.91C439.29 675.033 438.676 674.905 438.107 674.656C437.539 674.408 437.028 674.044 436.606 673.589C436.185 673.133 435.863 672.595 435.659 672.009C435.456 671.423 435.375 670.801 435.424 670.182L450.591 476.107L451.004 476.062L523.633 468.219L514 670.747C513.946 671.902 513.449 672.993 512.611 673.791C511.774 674.59 510.661 675.034 509.504 675.033Z" fill="#2F2E41"/>
<path d="M451.475 488.021C450.308 488.019 449.188 487.562 448.352 486.749C447.515 485.936 447.027 484.829 446.991 483.663C446.595 471.391 445.915 428.93 453.813 397.758C455.969 389.242 460.807 381.646 467.613 376.092C474.419 370.539 482.831 367.322 491.606 366.919C500.243 366.447 508.809 368.707 516.089 373.378C523.37 378.049 528.994 384.894 532.165 392.942C545.44 426.645 557.983 468.188 542.346 474.704C521.851 483.243 467.822 487.05 451.751 488.012C451.659 488.018 451.567 488.021 451.475 488.021Z" fill="#3F3D56"/>
<path d="M545.347 308.473C545.732 308.869 546.149 309.235 546.593 309.566L544.014 359.092L533.29 364.583L539.461 381.85L559.391 373.976C561.001 373.339 562.361 372.198 563.267 370.723C564.173 369.248 564.577 367.519 564.416 365.795L559.195 309.616C560.904 308.341 562.184 306.576 562.865 304.556C563.546 302.536 563.596 300.357 563.008 298.308C562.42 296.259 561.223 294.437 559.575 293.086C557.926 291.734 555.906 290.916 553.781 290.741C551.657 290.565 549.529 291.041 547.682 292.104C545.834 293.168 544.354 294.768 543.439 296.693C542.523 298.618 542.215 300.776 542.556 302.881C542.897 304.985 543.87 306.935 545.347 308.473Z" fill="#A0616A"/>
<path d="M544.218 360.936L551.762 382.375C551.977 382.985 552.058 383.634 551.999 384.278C551.94 384.922 551.743 385.546 551.421 386.107C551.1 386.668 550.661 387.153 550.135 387.529C549.609 387.905 549.008 388.163 548.373 388.286L526.128 392.594C523.001 393.675 519.572 393.472 516.595 392.029C513.617 390.586 511.333 388.021 510.244 384.896C509.155 381.772 509.35 378.343 510.785 375.362C512.22 372.38 514.779 370.09 517.9 368.992L537.874 358.449C538.446 358.148 539.076 357.973 539.722 357.937C540.367 357.901 541.013 358.004 541.615 358.24C542.217 358.476 542.762 358.839 543.211 359.304C543.66 359.769 544.003 360.326 544.218 360.936Z" fill="#3F3D56"/>
<path d="M438.96 308.473C438.574 308.869 438.157 309.235 437.714 309.566L440.292 359.092L451.017 364.583L444.846 381.85L424.916 373.976C423.306 373.339 421.946 372.198 421.04 370.723C420.133 369.248 419.73 367.519 419.89 365.795L425.111 309.616C423.403 308.341 422.123 306.576 421.442 304.556C420.761 302.536 420.711 300.357 421.298 298.308C421.886 296.259 423.084 294.437 424.732 293.086C426.38 291.734 428.401 290.916 430.525 290.741C432.65 290.565 434.777 291.041 436.625 292.104C438.472 293.168 439.952 294.768 440.868 296.693C441.784 298.618 442.092 300.776 441.751 302.881C441.41 304.985 440.436 306.935 438.96 308.473Z" fill="#A0616A"/>
<path d="M442.692 358.24C443.294 358.004 443.94 357.9 444.585 357.936C445.231 357.972 445.861 358.147 446.433 358.449L466.407 368.992C469.528 370.09 472.087 372.38 473.522 375.362C474.957 378.343 475.152 381.772 474.063 384.896C472.973 388.021 470.69 390.586 467.712 392.029C464.735 393.472 461.306 393.675 458.179 392.594L435.934 388.286C435.299 388.163 434.698 387.905 434.172 387.529C433.646 387.153 433.207 386.668 432.886 386.107C432.564 385.546 432.367 384.922 432.308 384.278C432.249 383.634 432.33 382.985 432.545 382.375L440.089 360.936C440.303 360.326 440.647 359.769 441.096 359.304C441.545 358.838 442.09 358.476 442.692 358.24Z" fill="#3F3D56"/>
<path d="M502.527 337.484C502.398 334.35 503.185 331.248 504.79 328.554C506.396 325.861 508.751 323.693 511.568 322.316C519.034 318.462 523.724 310.241 521.669 302.734C519.038 293.125 505.96 286.893 495.364 290.199C492.496 291.217 489.73 292.503 487.103 294.038L480.18 297.749C477.222 299.23 474.371 300.913 471.646 302.787C467.564 305.795 464.365 309.844 462.382 314.511C460.399 319.177 459.707 324.291 460.375 329.317C461.739 339.086 468.136 348.045 476.893 354.178C480.242 356.681 484.11 358.4 488.212 359.209C492.409 359.901 497.082 359.115 500.151 356.504C504.947 352.425 504.452 345.594 502.901 339.888C502.696 339.101 502.571 338.296 502.527 337.484Z" fill="#2F2E41"/>
<path d="M586 697.681H396C395.735 697.681 395.48 697.576 395.293 697.388C395.105 697.201 395 696.946 395 696.681C395 696.416 395.105 696.162 395.293 695.974C395.48 695.787 395.735 695.681 396 695.681H586C586.265 695.681 586.52 695.787 586.707 695.974C586.895 696.162 587 696.416 587 696.681C587 696.946 586.895 697.201 586.707 697.388C586.52 697.576 586.265 697.681 586 697.681Z" fill="#1E282E"/>
<path d="M275.91 515.254L119.132 579.571C116.44 580.672 113.421 580.66 110.737 579.538C108.053 578.415 105.924 576.274 104.817 573.584L56.8253 456.601C56.0187 454.629 56.0274 452.417 56.8495 450.451C57.6717 448.485 59.2402 446.925 61.2109 446.114L223.288 379.622C225.295 378.802 227.545 378.811 229.545 379.647C231.545 380.483 233.132 382.079 233.957 384.084L281.896 500.938C282.997 503.631 282.985 506.65 281.863 509.334C280.741 512.018 278.6 514.147 275.91 515.254Z" fill="#37474F"/>
<path d="M124.811 565.382L261.902 509.141C264.513 508.07 266.591 506.006 267.68 503.402C268.768 500.799 268.778 497.87 267.707 495.259L228.954 400.797C228.424 399.504 227.644 398.328 226.66 397.337C225.675 396.346 224.505 395.558 223.216 395.019C221.927 394.48 220.544 394.2 219.147 394.195C217.75 394.191 216.365 394.461 215.073 394.991L77.9821 451.232C76.6894 451.763 75.5139 452.542 74.5226 453.527C73.5313 454.512 72.7436 455.682 72.2046 456.971C71.6655 458.26 71.3857 459.642 71.3809 461.04C71.3762 462.437 71.6467 463.821 72.177 465.114L110.93 559.577C111.46 560.869 112.24 562.045 113.225 563.036C114.209 564.027 115.38 564.815 116.669 565.354C117.958 565.893 119.34 566.173 120.737 566.178C122.134 566.183 123.519 565.912 124.811 565.382Z" fill="#1E282E"/>
<path d="M228.197 426.558L226.181 427.385L226.319 427.721L228.334 426.894L228.197 426.558Z" fill="#E6E6E6"/>
<path d="M222.247 429.391L218.175 431.062L218.038 430.726L222.109 429.055L222.247 429.391ZM214.104 432.732L210.032 434.402L209.894 434.066L213.966 432.396L214.104 432.732ZM205.96 436.073L201.888 437.743L201.751 437.407L205.822 435.737L205.96 436.073ZM197.817 439.414L193.745 441.084L193.607 440.748L197.679 439.078L197.817 439.414ZM189.673 442.755L185.601 444.425L185.463 444.089L189.535 442.419L189.673 442.755ZM181.529 446.095L177.458 447.766L177.32 447.43L181.392 445.759L181.529 446.095ZM173.386 449.436L169.314 451.107L169.176 450.771L173.248 449.1L173.386 449.436ZM165.242 452.777L161.171 454.448L161.033 454.112L165.105 452.441L165.242 452.777ZM157.099 456.118L153.027 457.788L152.889 457.452L156.961 455.782L157.099 456.118ZM148.955 459.459L144.884 461.129L144.746 460.793L148.818 459.123L148.955 459.459ZM140.812 462.8L136.74 464.47L136.602 464.134L140.674 462.464L140.812 462.8ZM132.668 466.141L128.597 467.811L128.459 467.475L132.531 465.805L132.668 466.141ZM124.525 469.481L120.453 471.152L120.315 470.816L124.387 469.145L124.525 469.481ZM116.381 472.822L112.31 474.493L112.172 474.157L116.244 472.486L116.381 472.822ZM108.238 476.163L104.166 477.833L104.028 477.498L108.1 475.827L108.238 476.163ZM100.094 479.504L96.0226 481.174L95.8848 480.838L99.9566 479.168L100.094 479.504Z" fill="#E6E6E6"/>
<path d="M91.8134 482.509L89.7979 483.336L89.9357 483.672L91.9512 482.845L91.8134 482.509Z" fill="#E6E6E6"/>
<path d="M174.837 484.947L172.821 485.774L172.959 486.11L174.975 485.283L174.837 484.947Z" fill="#E6E6E6"/>
<path d="M168.948 487.756L164.936 489.401L164.799 489.065L168.81 487.42L168.948 487.756ZM160.925 491.047L156.914 492.692L156.776 492.357L160.787 490.711L160.925 491.047ZM152.903 494.338L148.891 495.984L148.753 495.648L152.765 494.002L152.903 494.338ZM144.88 497.629L140.869 499.275L140.731 498.939L144.742 497.293L144.88 497.629ZM136.857 500.921L132.846 502.566L132.708 502.23L136.72 500.585L136.857 500.921ZM128.835 504.212L124.824 505.857L124.686 505.522L128.697 503.876L128.835 504.212ZM120.812 507.503L116.801 509.149L116.663 508.813L120.674 507.167L120.812 507.503ZM112.79 510.794L108.778 512.44L108.641 512.104L112.652 510.458L112.79 510.794Z" fill="#E6E6E6"/>
<path d="M104.629 513.749L102.614 514.576L102.752 514.912L104.767 514.085L104.629 513.749Z" fill="#E6E6E6"/>
<path d="M141.598 515.851L139.582 516.678L139.72 517.014L141.735 516.187L141.598 515.851Z" fill="#E6E6E6"/>
<path d="M135.593 518.707L131.466 520.4L131.328 520.064L135.455 518.371L135.593 518.707ZM127.339 522.093L123.212 523.787L123.074 523.451L127.201 521.758L127.339 522.093ZM119.085 525.48L114.958 527.173L114.82 526.837L118.947 525.144L119.085 525.48Z" fill="#E6E6E6"/>
<path d="M110.693 528.53L108.678 529.357L108.816 529.693L110.831 528.866L110.693 528.53Z" fill="#E6E6E6"/>
<path d="M151.946 541.075L149.93 541.901L150.068 542.237L152.084 541.41L151.946 541.075Z" fill="#E6E6E6"/>
<path d="M145.941 543.931L141.814 545.624L141.676 545.288L145.803 543.595L145.941 543.931ZM137.687 547.317L133.56 549.01L133.422 548.674L137.549 546.981L137.687 547.317ZM129.433 550.703L125.306 552.396L125.168 552.06L129.295 550.367L129.433 550.703Z" fill="#E6E6E6"/>
<path d="M121.041 553.753L119.025 554.58L119.163 554.916L121.179 554.089L121.041 553.753Z" fill="#E6E6E6"/>
<path d="M130.632 550.512L246.807 502.851C249.619 501.694 251.857 499.469 253.03 496.664C254.203 493.859 254.215 490.703 253.065 487.889L229.592 430.673L229.365 430.774L200.856 498.941L179.711 490.101C179.321 489.937 178.898 489.865 178.475 489.891C178.053 489.917 177.642 490.041 177.275 490.253C176.725 490.584 176.299 491.088 176.063 491.686L161.122 527.407L145.662 520.945C145.329 520.805 144.971 520.733 144.609 520.732C144.248 520.73 143.889 520.8 143.555 520.938C143.22 521.075 142.916 521.277 142.659 521.532C142.403 521.787 142.199 522.089 142.06 522.423C141.961 522.666 132.428 546.054 130.632 550.512Z" fill="#344D84"/>
<path d="M130.275 551.051L129.94 550.911L141.895 522.324C142.211 521.57 142.814 520.972 143.571 520.661C144.328 520.35 145.177 520.353 145.932 520.668L161.087 527.005L175.943 491.48C176.26 490.726 176.862 490.128 177.62 489.817C178.377 489.506 179.226 489.509 179.981 489.824L200.82 498.539L229.476 430.015L229.811 430.155L201.015 499.014L179.841 490.159C179.511 490.021 179.157 489.949 178.8 489.948C178.442 489.947 178.088 490.016 177.757 490.152C177.426 490.287 177.125 490.487 176.871 490.739C176.618 490.991 176.416 491.29 176.278 491.62L161.282 527.48L145.792 521.003C145.126 520.725 144.377 520.723 143.709 520.997C143.041 521.271 142.509 521.799 142.229 522.464L130.275 551.051Z" fill="#3F3D56"/>
<path d="M141.667 518.561C143.07 518.561 144.208 517.423 144.208 516.019C144.208 514.616 143.07 513.478 141.667 513.478C140.263 513.478 139.125 514.616 139.125 516.019C139.125 517.423 140.263 518.561 141.667 518.561Z" fill="#3F3D56"/>
<path d="M174.905 487.657C176.309 487.657 177.447 486.519 177.447 485.115C177.447 483.711 176.309 482.573 174.905 482.573C173.502 482.573 172.364 483.711 172.364 485.115C172.364 486.519 173.502 487.657 174.905 487.657Z" fill="#3F3D56"/>
<path d="M226.662 429.178C228.066 429.178 229.204 428.04 229.204 426.636C229.204 425.232 228.066 424.094 226.662 424.094C225.259 424.094 224.121 425.232 224.121 426.636C224.121 428.04 225.259 429.178 226.662 429.178Z" fill="#3F3D56"/>
<path d="M84.4011 513.135C85.7224 512.478 86.8834 511.539 87.8024 510.384C88.7214 509.229 89.3761 507.887 89.7202 506.452C90.0644 505.017 90.0897 503.524 89.7944 502.078C89.4991 500.632 88.8904 499.268 88.011 498.083L95.5596 424.279H79.2463L73.2473 496.345C71.354 497.954 70.1169 500.202 69.7702 502.662C69.4235 505.122 69.9914 507.625 71.3663 509.694C72.7411 511.764 74.8274 513.257 77.2298 513.892C79.6322 514.526 82.1838 514.257 84.4011 513.135Z" fill="#FFB8B8"/>
<path d="M99.3799 383.548C112.127 383.548 122.46 373.214 122.46 360.468C122.46 347.721 112.127 337.387 99.3799 337.387C86.6331 337.387 76.2998 347.721 76.2998 360.468C76.2998 373.214 86.6331 383.548 99.3799 383.548Z" fill="#FFB8B8"/>
<path d="M103.725 467.26C102.801 467.259 101.902 466.956 101.168 466.396C100.433 465.836 99.9019 465.05 99.6566 464.16C97.8074 457.441 92.9965 446.082 85.3578 430.397C83.6341 426.851 82.6797 422.981 82.557 419.04C82.4343 415.099 83.1462 411.177 84.6459 407.531C86.1456 403.885 88.3992 400.597 91.259 397.883C94.1187 395.169 97.52 393.091 101.24 391.784C104.764 390.539 108.503 390.014 112.235 390.24C115.966 390.466 119.614 391.437 122.963 393.098C126.312 394.758 129.295 397.073 131.733 399.906C134.172 402.739 136.018 406.033 137.161 409.592C143.082 428.155 142.796 448.039 142.399 455.725C142.349 456.651 141.998 457.535 141.398 458.242C140.798 458.949 139.983 459.44 139.078 459.639L104.632 467.162C104.334 467.227 104.03 467.26 103.725 467.26Z" fill="#FF6584"/>
<path d="M137.082 686.425H148.602L154.083 641.988L137.08 641.989L137.082 686.425Z" fill="#FFB8B8"/>
<path d="M170.821 697.122L134.613 697.123L134.613 683.134L156.831 683.133C158.668 683.133 160.487 683.495 162.184 684.198C163.882 684.901 165.424 685.931 166.723 687.23C168.022 688.529 169.053 690.071 169.756 691.768C170.459 693.465 170.821 695.284 170.821 697.122Z" fill="#2F2E41"/>
<path d="M21.8818 671.495L31.9778 677.045L58.1898 640.747L43.2908 632.555L21.8818 671.495Z" fill="#FFB8B8"/>
<path d="M46.2939 697.123L14.5654 679.679L21.305 667.421L40.7748 678.125C44.026 679.912 46.434 682.918 47.469 686.481C48.5041 690.044 48.0814 693.872 46.2939 697.123Z" fill="#2F2E41"/>
<path d="M136.544 661.761C135.517 661.76 134.526 661.386 133.755 660.708C132.984 660.03 132.486 659.094 132.354 658.076L117.946 547.052C117.883 546.561 117.665 546.103 117.326 545.742C116.986 545.382 116.541 545.138 116.054 545.046C115.568 544.954 115.065 545.017 114.617 545.228C114.168 545.439 113.798 545.786 113.559 546.22L53.5136 655.16C53.0181 656.049 52.2199 656.732 51.2641 657.082C50.3083 657.433 49.2583 657.429 48.3051 657.071L35.2169 652.085C34.6904 651.884 34.2094 651.581 33.802 651.192C33.3945 650.803 33.069 650.336 32.8443 649.819C32.6197 649.303 32.5006 648.747 32.4939 648.183C32.4873 647.62 32.5933 647.061 32.8057 646.539L74.4009 544.359C74.5062 544.099 74.5776 543.827 74.6133 543.549C80.2472 499.944 94.5815 477.769 98.8405 472.012C99.1516 471.588 99.3563 471.097 99.4374 470.578C99.5185 470.059 99.4736 469.528 99.3065 469.03L98.721 467.274C98.4871 466.577 98.4392 465.83 98.5819 465.109C98.7246 464.388 99.0531 463.716 99.5348 463.161C114.881 445.681 141.63 455.219 141.898 455.317L142.032 455.367L142.116 455.482C172.109 496.615 161.02 630.214 158.492 656.578C158.398 657.569 157.956 658.494 157.245 659.191C156.534 659.887 155.6 660.309 154.607 660.383L136.872 661.749C136.762 661.757 136.652 661.761 136.544 661.761Z" fill="#2F2E41"/>
<path d="M189.106 387.277C188.991 387.784 188.916 388.3 188.881 388.819L148.514 412.106L138.702 406.458L128.242 420.151L144.64 431.839C145.965 432.783 147.56 433.272 149.187 433.233C150.813 433.193 152.383 432.627 153.66 431.619L195.285 398.781C197.164 399.476 199.21 399.583 201.15 399.087C203.091 398.592 204.835 397.517 206.15 396.006C207.465 394.495 208.289 392.619 208.512 390.629C208.736 388.638 208.347 386.627 207.399 384.862C206.451 383.097 204.989 381.663 203.206 380.75C201.423 379.837 199.404 379.488 197.418 379.751C195.432 380.013 193.573 380.873 192.089 382.218C190.604 383.563 189.564 385.327 189.106 387.277Z" fill="#FFB8B8"/>
<path d="M147.164 413.209L134.118 430.118C133.747 430.6 133.276 430.995 132.738 431.278C132.2 431.561 131.608 431.724 131.001 431.758C130.394 431.791 129.788 431.693 129.222 431.47C128.657 431.248 128.146 430.906 127.724 430.469L112.955 415.132C110.504 413.218 108.912 410.411 108.528 407.326C108.143 404.241 108.998 401.129 110.905 398.673C112.811 396.217 115.614 394.618 118.698 394.225C121.782 393.832 124.896 394.678 127.357 396.578L145.881 406.936C146.412 407.233 146.872 407.64 147.23 408.131C147.589 408.622 147.838 409.184 147.959 409.779C148.081 410.374 148.073 410.989 147.936 411.581C147.799 412.173 147.536 412.728 147.164 413.209Z" fill="#FF6584"/>
<path d="M96.598 442.587L75.5808 438.792C74.9828 438.684 74.4151 438.448 73.9163 438.101C73.4176 437.754 72.9995 437.303 72.6906 436.78C72.3817 436.257 72.1892 435.673 72.1263 435.068C72.0633 434.464 72.1314 433.853 72.3258 433.277L79.1392 413.105C79.7088 410.048 81.4673 407.342 84.0291 405.58C86.5908 403.818 89.7468 403.144 92.8049 403.705C95.863 404.267 98.5736 406.018 100.342 408.575C102.111 411.132 102.794 414.286 102.241 417.346L101.576 438.559C101.557 439.166 101.407 439.762 101.136 440.307C100.866 440.851 100.482 441.33 100.009 441.713C99.5368 442.095 98.9875 442.371 98.3989 442.522C97.8102 442.672 97.196 442.695 96.598 442.587Z" fill="#FF6584"/>
<path d="M103.033 355.159C108.965 359.219 116.754 363.392 122.812 359.069C124.707 357.626 126.084 355.607 126.737 353.316C127.389 351.025 127.282 348.585 126.431 346.36C123.53 338.063 115.559 334.411 107.937 331.611C98.0283 327.972 87.2393 325.076 77.0102 327.683C66.7812 330.289 57.7411 340.193 59.5876 350.586C61.0725 358.944 68.9564 365.898 67.8372 374.313C66.7108 382.782 57.1868 387.24 48.7786 388.753C40.3705 390.267 30.9615 390.753 24.9189 396.793C17.2104 404.497 19.1354 418.268 26.3887 426.402C33.6421 434.536 44.5878 438.224 55.1942 440.73C69.247 444.051 84.4462 445.797 97.7928 440.285C111.14 434.773 121.526 419.936 117.659 406.024C116.026 400.147 112.179 395.18 108.461 390.345C104.743 385.51 100.978 380.454 99.5598 374.522C98.3779 369.578 99.2527 363.839 102.531 360.13C103.127 359.481 103.502 358.66 103.603 357.784C103.703 356.909 103.523 356.024 103.09 355.257L103.033 355.159Z" fill="#2F2E41"/>
<path d="M191 697.681H1C0.734784 697.681 0.480429 697.576 0.292892 697.388C0.105356 697.201 0 696.946 0 696.681C0 696.416 0.105356 696.162 0.292892 695.974C0.480429 695.787 0.734784 695.681 1 695.681H191C191.265 695.681 191.52 695.787 191.707 695.974C191.895 696.162 192 696.416 192 696.681C192 696.946 191.895 697.201 191.707 697.388C191.52 697.576 191.265 697.681 191 697.681Z" fill="#1E282E"/>
</g>
<defs>
<clipPath id="clip0_1529_153">
<rect width="995" height="697.681" fill="white"/>
</clipPath>
</defs>
</svg>
