<svg width="50" height="50" viewBox="0 0 50 50" fill="none" xmlns="http://www.w3.org/2000/svg">
<g clip-path="url(#clip0_55_70098)">
<path d="M4.16797 25.0003C4.16797 30.5257 6.3629 35.8247 10.2699 39.7317C14.1769 43.6387 19.476 45.8337 25.0013 45.8337C30.5266 45.8337 35.8257 43.6387 39.7327 39.7317C43.6397 35.8247 45.8346 30.5257 45.8346 25.0003C45.8346 19.475 43.6397 14.1759 39.7327 10.2689C35.8257 6.36193 30.5266 4.16699 25.0013 4.16699C19.476 4.16699 14.1769 6.36193 10.2699 10.2689C6.3629 14.1759 4.16797 19.475 4.16797 25.0003Z" stroke="#005249" stroke-width="2.75" stroke-linecap="round" stroke-linejoin="round"/>
<path d="M14.582 31.25V21.875C14.582 21.0462 14.9113 20.2513 15.4973 19.6653C16.0834 19.0792 16.8782 18.75 17.707 18.75C18.5358 18.75 19.3307 19.0792 19.9167 19.6653C20.5028 20.2513 20.832 21.0462 20.832 21.875V31.25" stroke="#1DB16D" stroke-width="2.75" stroke-linecap="round" stroke-linejoin="round"/>
<path d="M14.582 27.083H20.832" stroke="#1DB16D" stroke-width="2.75" stroke-linecap="round" stroke-linejoin="round"/>
<path d="M29.168 18.75V31.25H31.2513C32.3564 31.25 33.4162 30.811 34.1976 30.0296C34.979 29.2482 35.418 28.1884 35.418 27.0833V22.9167C35.418 21.8116 34.979 20.7518 34.1976 19.9704C33.4162 19.189 32.3564 18.75 31.2513 18.75H29.168Z" stroke="#1DB16D" stroke-width="2.75" stroke-linecap="round" stroke-linejoin="round"/>
</g>
<defs>
<clipPath id="clip0_55_70098">
<rect width="50" height="50" fill="white"/>
</clipPath>
</defs>
</svg>
