<svg width="44" height="44" viewBox="0 0 44 44" fill="none" xmlns="http://www.w3.org/2000/svg">
<g clip-path="url(#clip0_119_70044)">
<path d="M28.4167 23.833C26.7149 23.833 25.0828 24.509 23.8794 25.7124C22.676 26.9158 22 28.5479 22 30.2497V32.083C22 33.7848 22.676 35.4169 23.8794 36.6203C25.0828 37.8236 26.7149 38.4997 28.4167 38.4997C30.1185 38.4997 31.7506 37.8236 32.9539 36.6203C34.1573 35.4169 34.8333 33.7848 34.8333 32.083V28.783" stroke="#5865F2" stroke-width="2.75" stroke-linecap="round" stroke-linejoin="round"/>
<path d="M15.5846 23.833C17.2864 23.833 18.9185 24.509 20.1219 25.7124C21.3253 26.9158 22.0013 28.5479 22.0013 30.2497V32.083C22.0013 33.7848 21.3253 35.4169 20.1219 36.6203C18.9185 37.8236 17.2864 38.4997 15.5846 38.4997C13.8828 38.4997 12.2507 37.8236 11.0474 36.6203C9.84401 35.4169 9.16797 33.7848 9.16797 32.083V28.783" stroke="#2F389F" stroke-width="2.75" stroke-linecap="round" stroke-linejoin="round"/>
<path d="M32.0846 29.3333C33.7864 29.3333 35.4185 28.6573 36.6219 27.4539C37.8253 26.2506 38.5013 24.6185 38.5013 22.9167C38.5013 21.2149 37.8253 19.5828 36.6219 18.3794C35.4185 17.176 33.7864 16.5 32.0846 16.5H31.168" stroke="#5865F2" stroke-width="2.75" stroke-linecap="round" stroke-linejoin="round"/>
<path d="M34.8333 17.05V11.9167C34.8333 10.2149 34.1573 8.58276 32.9539 7.3794C31.7506 6.17604 30.1185 5.5 28.4167 5.5C26.7149 5.5 25.0828 6.17604 23.8794 7.3794C22.676 8.58276 22 10.2149 22 11.9167" stroke="#5865F2" stroke-width="2.75" stroke-linecap="round" stroke-linejoin="round"/>
<path d="M11.9167 29.3333C10.2149 29.3333 8.58276 28.6573 7.3794 27.4539C6.17604 26.2506 5.5 24.6185 5.5 22.9167C5.5 21.2149 6.17604 19.5828 7.3794 18.3794C8.58276 17.176 10.2149 16.5 11.9167 16.5H12.8333" stroke="#2F389F" stroke-width="2.75" stroke-linecap="round" stroke-linejoin="round"/>
<path d="M9.16797 17.05V11.9167C9.16797 10.2149 9.84401 8.58276 11.0474 7.3794C12.2507 6.17604 13.8828 5.5 15.5846 5.5C17.2864 5.5 18.9185 6.17604 20.1219 7.3794C21.3253 8.58276 22.0013 10.2149 22.0013 11.9167V30.25" stroke="#2F389F" stroke-width="2.75" stroke-linecap="round" stroke-linejoin="round"/>
</g>
<defs>
<clipPath id="clip0_119_70044">
<rect width="44" height="44" fill="white"/>
</clipPath>
</defs>
</svg>
