<svg width="48" height="49" viewBox="0 0 48 49" fill="none" xmlns="http://www.w3.org/2000/svg">
<path d="M12 16C12 17.8565 12.7375 19.637 14.0503 20.9497C15.363 22.2625 17.1435 23 19 23C20.8565 23 22.637 22.2625 23.9497 20.9497C25.2625 19.637 26 17.8565 26 16C26 14.1435 25.2625 12.363 23.9497 11.0503C22.637 9.7375 20.8565 9 19 9C17.1435 9 15.363 9.7375 14.0503 11.0503C12.7375 12.363 12 14.1435 12 16Z" stroke="#FFAB00" stroke-width="2" stroke-linecap="round" stroke-linejoin="round"/>
<path d="M11.168 15.8333C11.168 17.7783 11.9406 19.6435 13.3159 21.0188C14.6911 22.3941 16.5564 23.1667 18.5013 23.1667C20.4462 23.1667 22.3115 22.3941 23.6868 21.0188C25.062 19.6435 25.8346 17.7783 25.8346 15.8333C25.8346 13.8884 25.062 12.0232 23.6868 10.6479C22.3115 9.27262 20.4462 8.5 18.5013 8.5C16.5564 8.5 14.6911 9.27262 13.3159 10.6479C11.9406 12.0232 11.168 13.8884 11.168 15.8333Z" stroke="#7A4100" stroke-width="2.75" stroke-linecap="round" stroke-linejoin="round"/>
<path d="M7.5 41.5V37.8333C7.5 35.8884 8.27262 34.0232 9.64788 32.6479C11.0232 31.2726 12.8884 30.5 14.8333 30.5H22.1667C24.1116 30.5 25.9769 31.2726 27.3521 32.6479C28.7274 34.0232 29.5 35.8884 29.5 37.8333V41.5" stroke="#7A4100" stroke-width="2.75" stroke-linecap="round" stroke-linejoin="round"/>
<path d="M31.332 8.73828C32.9095 9.14217 34.3076 10.0596 35.306 11.3459C36.3045 12.6321 36.8464 14.2141 36.8464 15.8424C36.8464 17.4708 36.3045 19.0528 35.306 20.339C34.3076 21.6253 32.9095 22.5427 31.332 22.9466" stroke="#FFAB00" stroke-width="2.75" stroke-linecap="round" stroke-linejoin="round"/>
<path d="M40.5 41.5004V37.8337C40.4907 36.2152 39.9462 34.6452 38.9513 33.3685C37.9565 32.0917 36.5672 31.18 35 30.7754" stroke="#FFAB00" stroke-width="2.75" stroke-linecap="round" stroke-linejoin="round"/>
</svg>
