<svg width="48" height="49" viewBox="0 0 48 49" fill="none" xmlns="http://www.w3.org/2000/svg">
<path opacity="0.48" d="M9.04688 27.4098V13.309C9.04688 8.56471 12.8835 4.71875 17.6162 4.71875H12.3984C7.6522 4.71875 3.80469 8.56626 3.80469 13.3125V27.4062C3.80469 32.1524 7.6522 36 12.3984 36H17.6162C12.8835 36 9.04688 32.154 9.04688 27.4098Z" fill="#00AB55"/>
<path d="M32.25 44.5938H15.75C13.472 44.5093 13.4737 41.24 15.75 41.1562H32.25C34.528 41.2407 34.5263 44.51 32.25 44.5938ZM35.6875 37.7188H12.3107C6.62541 37.7188 2 33.0934 2 27.4081V13.3125C2 7.62619 6.62619 3 12.3125 3H35.6875C41.3738 3 46 7.62619 46 13.3125V27.4062C46 33.0926 41.3738 37.7188 35.6875 37.7188ZM12.3125 6.4375C8.52163 6.4375 5.4375 9.52163 5.4375 13.3125V27.4081C5.4375 31.1979 8.52085 34.2812 12.3107 34.2812H35.6875C39.4784 34.2812 42.5625 31.1971 42.5625 27.4062V13.3125C42.5625 9.52163 39.4784 6.4375 35.6875 6.4375H12.3125Z" fill="#005249"/>
<path fill-rule="evenodd" clip-rule="evenodd" d="M19.4116 22.4637C21.2778 26.6046 23.2069 30.5059 25.4229 24.783C25.7261 24.0473 25.947 22.6175 26.442 22.6175V22.6248C26.937 22.6248 27.1579 24.0546 27.461 24.7903C29.6771 30.5132 31.6062 26.6119 33.4725 22.471C33.6129 22.1587 33.7478 21.8607 33.8633 21.6016C29.5865 25.0352 29.9465 14.6623 26.442 14.5799V14.5726C22.9374 14.6551 23.2976 25.0279 19.0208 21.5945C19.1361 21.8534 19.271 22.1514 19.4116 22.4637Z" fill="#1B7049"/>
<path d="M19.0196 21.5948C21.0966 23.2687 22.0735 21.6856 22.9339 19.6112C22.2219 17.9671 21.7417 16.9413 21.5115 16.5788C21.0776 15.8949 20.6042 15.3771 20.022 15.0783V15.0783C17.9251 13.8285 16.8214 16.7901 17.837 19.01L19.0196 21.5948Z" fill="#1B7049"/>
<ellipse cx="34.3098" cy="16.3762" rx="1.79024" ry="1.79024" fill="#1B7049"/>
</svg>
