<svg width="44" height="44" viewBox="0 0 44 44" fill="none" xmlns="http://www.w3.org/2000/svg">
<g clip-path="url(#clip0_119_70072)">
<path d="M18.332 21.9997C18.332 22.9721 18.7183 23.9048 19.406 24.5924C20.0936 25.28 21.0262 25.6663 21.9987 25.6663C22.9712 25.6663 23.9038 25.28 24.5914 24.5924C25.2791 23.9048 25.6654 22.9721 25.6654 21.9997C25.6654 21.0272 25.2791 20.0946 24.5914 19.407C23.9038 18.7193 22.9712 18.333 21.9987 18.333C21.0262 18.333 20.0936 18.7193 19.406 19.407C18.7183 20.0946 18.332 21.0272 18.332 21.9997Z" stroke="#1DB16D" stroke-width="2.75" stroke-linecap="round" stroke-linejoin="round"/>
<path d="M38.5 22C34.1 29.3333 28.6 33 22 33C15.4 33 9.9 29.3333 5.5 22C9.9 14.6667 15.4 11 22 11C28.6 11 34.1 14.6667 38.5 22Z" stroke="#005249" stroke-width="2.75" stroke-linecap="round" stroke-linejoin="round"/>
</g>
<defs>
<clipPath id="clip0_119_70072">
<rect width="44" height="44" fill="white"/>
</clipPath>
</defs>
</svg>
