<svg width="44" height="44" viewBox="0 0 44 44" fill="none" xmlns="http://www.w3.org/2000/svg">
<g clip-path="url(#clip0_119_70085)">
<path d="M5.5 23.8333C5.5 23.3471 5.69315 22.8808 6.03697 22.537C6.38079 22.1932 6.8471 22 7.33333 22H14.6667C15.1529 22 15.6192 22.1932 15.963 22.537C16.3068 22.8808 16.5 23.3471 16.5 23.8333V34.8333C16.5 35.3196 16.3068 35.7859 15.963 36.1297C15.6192 36.4735 15.1529 36.6667 14.6667 36.6667H7.33333C6.8471 36.6667 6.38079 36.4735 6.03697 36.1297C5.69315 35.7859 5.5 35.3196 5.5 34.8333V23.8333Z" stroke="#7178C9" stroke-width="2.75" stroke-linecap="round" stroke-linejoin="round"/>
<path d="M16.5 16.5003C16.5 16.0141 16.6932 15.5478 17.037 15.204C17.3808 14.8601 17.8471 14.667 18.3333 14.667H25.6667C26.1529 14.667 26.6192 14.8601 26.963 15.204C27.3068 15.5478 27.5 16.0141 27.5 16.5003V34.8337C27.5 35.3199 27.3068 35.7862 26.963 36.13C26.6192 36.4738 26.1529 36.667 25.6667 36.667H18.3333C17.8471 36.667 17.3808 36.4738 17.037 36.13C16.6932 35.7862 16.5 35.3199 16.5 34.8337V16.5003Z" stroke="#5865F2" stroke-width="2.75" stroke-linecap="round" stroke-linejoin="round"/>
<path d="M27.5 9.16634C27.5 8.68011 27.6932 8.2138 28.037 7.86998C28.3808 7.52616 28.8471 7.33301 29.3333 7.33301H36.6667C37.1529 7.33301 37.6192 7.52616 37.963 7.86998C38.3068 8.2138 38.5 8.68011 38.5 9.16634V34.833C38.5 35.3192 38.3068 35.7856 37.963 36.1294C37.6192 36.4732 37.1529 36.6663 36.6667 36.6663H29.3333C28.8471 36.6663 28.3808 36.4732 28.037 36.1294C27.6932 35.7856 27.5 35.3192 27.5 34.833V9.16634Z" stroke="#2F389F" stroke-width="2.75" stroke-linecap="round" stroke-linejoin="round"/>
</g>
<defs>
<clipPath id="clip0_119_70085">
<rect width="44" height="44" fill="white"/>
</clipPath>
</defs>
</svg>
