<svg width="50" height="50" viewBox="0 0 50 50" fill="none" xmlns="http://www.w3.org/2000/svg">
<g clip-path="url(#clip0_56_70104)">
<path d="M25 6.25C40 6.25 43.75 10 43.75 25C43.75 40 40 43.75 25 43.75C10 43.75 6.25 40 6.25 25C6.25 10 10 6.25 25 6.25Z" stroke="#05233E" stroke-width="2.75" stroke-linecap="round" stroke-linejoin="round"/>
<path d="M16.668 25.0003C16.668 24.4478 16.8875 23.9179 17.2782 23.5272C17.6689 23.1365 18.1988 22.917 18.7513 22.917H31.2513C31.8038 22.917 32.3337 23.1365 32.7244 23.5272C33.1151 23.9179 33.3346 24.4478 33.3346 25.0003V31.2503C33.3346 31.8029 33.1151 32.3328 32.7244 32.7235C32.3337 33.1142 31.8038 33.3337 31.2513 33.3337H18.7513C18.1988 33.3337 17.6689 33.1142 17.2782 32.7235C16.8875 32.3328 16.668 31.8029 16.668 31.2503V25.0003Z" stroke="#00B8D9" stroke-width="2.75" stroke-linecap="round" stroke-linejoin="round"/>
<path d="M20.832 22.9163V18.7497C20.832 17.6446 21.271 16.5848 22.0524 15.8034C22.8338 15.022 23.8936 14.583 24.9987 14.583C26.1038 14.583 27.1636 15.022 27.945 15.8034C28.7264 16.5848 29.1654 17.6446 29.1654 18.7497V22.9163" stroke="#00B8D9" stroke-width="2.75" stroke-linecap="round" stroke-linejoin="round"/>
</g>
<defs>
<clipPath id="clip0_56_70104">
<rect width="50" height="50" fill="white"/>
</clipPath>
</defs>
</svg>
