<svg width="44" height="44" viewBox="0 0 44 44" fill="none" xmlns="http://www.w3.org/2000/svg">
<g clip-path="url(#clip0_118_70016)">
<path d="M31.1654 31.1667H10.9987V5.5H7.33203" stroke="#5865F2" stroke-width="2.75" stroke-linecap="round" stroke-linejoin="round"/>
<path d="M11 9.16699L36.6667 11.0003L34.8333 23.8337H11" stroke="#5865F2" stroke-width="2.75" stroke-linecap="round" stroke-linejoin="round"/>
<path d="M7.33203 34.8337C7.33203 35.8061 7.71834 36.7387 8.40597 37.4264C9.09361 38.114 10.0262 38.5003 10.9987 38.5003C11.9712 38.5003 12.9038 38.114 13.5914 37.4264C14.2791 36.7387 14.6654 35.8061 14.6654 34.8337C14.6654 33.8612 14.2791 32.9286 13.5914 32.2409C12.9038 31.5533 11.9712 31.167 10.9987 31.167C10.0262 31.167 9.09361 31.5533 8.40597 32.2409C7.71834 32.9286 7.33203 33.8612 7.33203 34.8337Z" stroke="#2F389F" stroke-width="2.75" stroke-linecap="round" stroke-linejoin="round"/>
<path d="M27.5 34.8337C27.5 35.8061 27.8863 36.7387 28.5739 37.4264C29.2616 38.114 30.1942 38.5003 31.1667 38.5003C32.1391 38.5003 33.0718 38.114 33.7594 37.4264C34.447 36.7387 34.8333 35.8061 34.8333 34.8337C34.8333 33.8612 34.447 32.9286 33.7594 32.2409C33.0718 31.5533 32.1391 31.167 31.1667 31.167C30.1942 31.167 29.2616 31.5533 28.5739 32.2409C27.8863 32.9286 27.5 33.8612 27.5 34.8337Z" stroke="#2F389F" stroke-width="2.75" stroke-linecap="round" stroke-linejoin="round"/>
</g>
<defs>
<clipPath id="clip0_118_70016">
<rect width="44" height="44" fill="white"/>
</clipPath>
</defs>
</svg>
