<svg width="50" height="50" viewBox="0 0 50 50" fill="none" xmlns="http://www.w3.org/2000/svg">
<g clip-path="url(#clip0_55_70072)">
<path d="M25 14.583V22.9163" stroke="#2F389F" stroke-width="2.75" stroke-linecap="round" stroke-linejoin="round"/>
<path d="M13.9609 37.0837L19.7943 32.917" stroke="#2F389F" stroke-width="2.75" stroke-linecap="round" stroke-linejoin="round"/>
<path d="M36.0404 37.0837L30.207 32.917" stroke="#2F389F" stroke-width="2.75" stroke-linecap="round" stroke-linejoin="round"/>
<path d="M20.832 10.4167C20.832 11.5217 21.271 12.5815 22.0524 13.3629C22.8338 14.1443 23.8936 14.5833 24.9987 14.5833C26.1038 14.5833 27.1636 14.1443 27.945 13.3629C28.7264 12.5815 29.1654 11.5217 29.1654 10.4167C29.1654 9.3116 28.7264 8.25179 27.945 7.47039C27.1636 6.68899 26.1038 6.25 24.9987 6.25C23.8936 6.25 22.8338 6.68899 22.0524 7.47039C21.271 8.25179 20.832 9.3116 20.832 10.4167Z" stroke="#5865F2" stroke-width="2.75" stroke-linecap="round" stroke-linejoin="round"/>
<path d="M6.25 39.5837C6.25 40.6887 6.68899 41.7485 7.47039 42.5299C8.25179 43.3113 9.3116 43.7503 10.4167 43.7503C11.5217 43.7503 12.5815 43.3113 13.3629 42.5299C14.1443 41.7485 14.5833 40.6887 14.5833 39.5837C14.5833 38.4786 14.1443 37.4188 13.3629 36.6374C12.5815 35.856 11.5217 35.417 10.4167 35.417C9.3116 35.417 8.25179 35.856 7.47039 36.6374C6.68899 37.4188 6.25 38.4786 6.25 39.5837Z" stroke="#5865F2" stroke-width="2.75" stroke-linecap="round" stroke-linejoin="round"/>
<path d="M35.418 39.5837C35.418 40.6887 35.857 41.7485 36.6384 42.5299C37.4198 43.3113 38.4796 43.7503 39.5846 43.7503C40.6897 43.7503 41.7495 43.3113 42.5309 42.5299C43.3123 41.7485 43.7513 40.6887 43.7513 39.5837C43.7513 38.4786 43.3123 37.4188 42.5309 36.6374C41.7495 35.856 40.6897 35.417 39.5846 35.417C38.4796 35.417 37.4198 35.856 36.6384 36.6374C35.857 37.4188 35.418 38.4786 35.418 39.5837Z" stroke="#5865F2" stroke-width="2.75" stroke-linecap="round" stroke-linejoin="round"/>
<path d="M18.75 29.167C18.75 30.8246 19.4085 32.4143 20.5806 33.5864C21.7527 34.7585 23.3424 35.417 25 35.417C26.6576 35.417 28.2473 34.7585 29.4194 33.5864C30.5915 32.4143 31.25 30.8246 31.25 29.167C31.25 27.5094 30.5915 25.9197 29.4194 24.7476C28.2473 23.5755 26.6576 22.917 25 22.917C23.3424 22.917 21.7527 23.5755 20.5806 24.7476C19.4085 25.9197 18.75 27.5094 18.75 29.167Z" stroke="#5865F2" stroke-width="2.75" stroke-linecap="round" stroke-linejoin="round"/>
</g>
<defs>
<clipPath id="clip0_55_70072">
<rect width="50" height="50" fill="white"/>
</clipPath>
</defs>
</svg>
