<svg width="44" height="44" viewBox="0 0 44 44" fill="none" xmlns="http://www.w3.org/2000/svg">
<g clip-path="url(#clip0_118_70023)">
<path d="M5.5 12.8337C5.5 11.8612 5.88631 10.9286 6.57394 10.2409C7.26158 9.5533 8.19421 9.16699 9.16667 9.16699H34.8333C35.8058 9.16699 36.7384 9.5533 37.4261 10.2409C38.1137 10.9286 38.5 11.8612 38.5 12.8337V31.167C38.5 32.1395 38.1137 33.0721 37.4261 33.7597C36.7384 34.4474 35.8058 34.8337 34.8333 34.8337H9.16667C8.19421 34.8337 7.26158 34.4474 6.57394 33.7597C5.88631 33.0721 5.5 32.1395 5.5 31.167V12.8337Z" stroke="#05233E" stroke-width="2.75" stroke-linecap="round" stroke-linejoin="round"/>
<path d="M18.332 19.25C18.332 18.5207 18.0423 17.8212 17.5266 17.3055C17.0109 16.7897 16.3114 16.5 15.582 16.5C14.8527 16.5 14.1532 16.7897 13.6375 17.3055C13.1218 17.8212 12.832 18.5207 12.832 19.25V24.75C12.832 25.4793 13.1218 26.1788 13.6375 26.6945C14.1532 27.2103 14.8527 27.5 15.582 27.5C16.3114 27.5 17.0109 27.2103 17.5266 26.6945C18.0423 26.1788 18.332 25.4793 18.332 24.75" stroke="#00B8D9" stroke-width="2.75" stroke-linecap="round" stroke-linejoin="round"/>
<path d="M31.168 19.25C31.168 18.5207 30.8782 17.8212 30.3625 17.3055C29.8468 16.7897 29.1473 16.5 28.418 16.5C27.6886 16.5 26.9891 16.7897 26.4734 17.3055C25.9577 17.8212 25.668 18.5207 25.668 19.25V24.75C25.668 25.4793 25.9577 26.1788 26.4734 26.6945C26.9891 27.2103 27.6886 27.5 28.418 27.5C29.1473 27.5 29.8468 27.2103 30.3625 26.6945C30.8782 26.1788 31.168 25.4793 31.168 24.75" stroke="#00B8D9" stroke-width="2.75" stroke-linecap="round" stroke-linejoin="round"/>
</g>
<defs>
<clipPath id="clip0_118_70023">
<rect width="44" height="44" fill="white"/>
</clipPath>
</defs>
</svg>
