<svg width="44" height="44" viewBox="0 0 44 44" fill="none" xmlns="http://www.w3.org/2000/svg">
<g clip-path="url(#clip0_119_70038)">
<path d="M27.0917 22.4067L32.7989 18.575C33.194 18.3622 33.5146 18.0336 33.7176 17.6334C33.9207 17.2332 33.9965 16.7804 33.9348 16.3358C33.8731 15.8913 33.677 15.4763 33.3727 15.1464C33.0684 14.8165 32.6705 14.5876 32.2324 14.4903L7.33203 7.33301L14.4894 32.1985C14.5869 32.6365 14.816 33.0342 15.146 33.3383C15.476 33.6424 15.891 33.8383 16.3355 33.8998C16.7801 33.9612 17.2327 33.8853 17.6328 33.6821C18.0329 33.479 18.3614 33.1583 18.574 32.7632L22.4057 27.0927" stroke="#FFCD19" stroke-width="2.75" stroke-linecap="round" stroke-linejoin="round"/>
<path d="M27.5 33C27.5 34.4587 28.0795 35.8576 29.1109 36.8891C30.1424 37.9205 31.5413 38.5 33 38.5C34.4587 38.5 35.8576 37.9205 36.8891 36.8891C37.9205 35.8576 38.5 34.4587 38.5 33C38.5 31.5413 37.9205 30.1424 36.8891 29.1109C35.8576 28.0795 34.4587 27.5 33 27.5C31.5413 27.5 30.1424 28.0795 29.1109 29.1109C28.0795 30.1424 27.5 31.5413 27.5 33Z" stroke="#A48010" stroke-width="2.75" stroke-linecap="round" stroke-linejoin="round"/>
<path d="M37.0352 37.0332L40.3352 40.3332" stroke="#A48010" stroke-width="2.75" stroke-linecap="round" stroke-linejoin="round"/>
</g>
<defs>
<clipPath id="clip0_119_70038">
<rect width="44" height="44" fill="white"/>
</clipPath>
</defs>
</svg>
