<svg width="44" height="44" viewBox="0 0 44 44" fill="none" xmlns="http://www.w3.org/2000/svg">
<g clip-path="url(#clip0_119_70092)">
<path d="M14.668 12.8333C14.668 14.7783 15.4406 16.6435 16.8159 18.0188C18.1911 19.3941 20.0564 20.1667 22.0013 20.1667C23.9462 20.1667 25.8115 19.3941 27.1868 18.0188C28.562 16.6435 29.3346 14.7783 29.3346 12.8333C29.3346 10.8884 28.562 9.02315 27.1868 7.64788C25.8115 6.27262 23.9462 5.5 22.0013 5.5C20.0564 5.5 18.1911 6.27262 16.8159 7.64788C15.4406 9.02315 14.668 10.8884 14.668 12.8333Z" stroke="#FFAB00" stroke-width="2.75" stroke-linecap="round" stroke-linejoin="round"/>
<path d="M11 38.5V34.8333C11 32.8884 11.7726 31.0232 13.1479 29.6479C14.5232 28.2726 16.3884 27.5 18.3333 27.5H19.25" stroke="#FFAB00" stroke-width="2.75" stroke-linecap="round" stroke-linejoin="round"/>
<path d="M33.0015 40.3336L39.1432 34.313C39.5198 33.9475 39.8194 33.5103 40.0243 33.0271C40.2291 32.5439 40.3351 32.0246 40.336 31.4998C40.3368 30.975 40.2325 30.4553 40.0292 29.9715C39.826 29.4877 39.5278 29.0495 39.1524 28.6828C38.3863 27.9336 37.3579 27.5131 36.2863 27.5111C35.2148 27.509 34.1848 27.9255 33.4159 28.6718L33.0052 29.0751L32.5964 28.6718C31.8303 27.9231 30.8024 27.503 29.7313 27.501C28.6602 27.4989 27.6306 27.9151 26.8617 28.6608C26.4849 29.0261 26.1852 29.4633 25.9802 29.9464C25.7752 30.4295 25.669 30.9487 25.668 31.4735C25.667 31.9984 25.7711 32.518 25.9742 33.0019C26.1773 33.4858 26.4754 33.9241 26.8507 34.291L33.0015 40.3336Z" stroke="#7A4100" stroke-width="2.75" stroke-linecap="round" stroke-linejoin="round"/>
</g>
<defs>
<clipPath id="clip0_119_70092">
<rect width="44" height="44" fill="white"/>
</clipPath>
</defs>
</svg>
