<svg width="44" height="44" viewBox="0 0 44 44" fill="none" xmlns="http://www.w3.org/2000/svg">
<g clip-path="url(#clip0_119_70066)">
<path d="M22 16.5V23.8333" stroke="#7A4100" stroke-width="2.75" stroke-linecap="round" stroke-linejoin="round"/>
<path d="M18.9992 6.5832L4.13821 31.3955C3.83186 31.9261 3.66974 32.5276 3.66798 33.1402C3.66623 33.7528 3.8249 34.3553 4.12821 34.8875C4.43153 35.4198 4.86892 35.8634 5.39687 36.1742C5.92482 36.485 6.52495 36.6521 7.13755 36.659H36.8632C37.4755 36.652 38.0754 36.4848 38.6031 36.1741C39.1308 35.8634 39.568 35.42 39.8712 34.888C40.1745 34.356 40.3333 33.7539 40.3317 33.1415C40.3302 32.5292 40.1685 31.9279 39.8625 31.3974L25.0015 6.58136C24.6889 6.06529 24.2484 5.63856 23.7227 5.34239C23.197 5.04622 22.6038 4.89063 22.0004 4.89062C21.397 4.89063 20.8038 5.04622 20.2781 5.34239C19.7523 5.63856 19.3119 6.06529 18.9992 6.58136V6.5832Z" stroke="#FFAB00" stroke-width="2.75" stroke-linecap="round" stroke-linejoin="round"/>
<path d="M22 29.333H22.0183" stroke="#7A4100" stroke-width="2.75" stroke-linecap="round" stroke-linejoin="round"/>
</g>
<defs>
<clipPath id="clip0_119_70066">
<rect width="44" height="44" fill="white"/>
</clipPath>
</defs>
</svg>
